<?xml version="1.0" encoding="UTF-8"?>
<svg width="442px" height="98px" viewBox="0 0 442 98" version="1.1" xmlns="http://www.w3.org/2000/svg" xmlns:xlink="http://www.w3.org/1999/xlink">
    <!-- Generator: Sketch 51.3 (57544) - http://www.bohemiancoding.com/sketch -->
    <title>Group 19</title>
    <desc>Created with Sketch.</desc>
    <defs></defs>
    <g id="corp" stroke="none" stroke-width="1" fill="none" fill-rule="evenodd">
        <g id="corp/pc2" transform="translate(-144.000000, -99.000000)" fill="#0A1227">
            <g id="Group-7" transform="translate(144.000000, 99.000000)">
                <g id="Group-19">
                    <g id="logo/typo/bl" fill-rule="nonzero">
                        <path d="M44.8110526,31.2193914 L31.2052834,31.2193914 C31.3125947,26.1002002 32.9752024,21.1344363 35.9727449,16.980261 C38.7539324,13.7616398 42.8668776,12.0048242 47.1185911,12.2193914 C49.8948046,12.2969496 52.6298372,12.9096356 55.1732064,14.0237393 C55.8054747,14.3134938 56.5383397,14.2840343 57.1452405,13.9444678 C57.7521414,13.6049013 58.1599772,12.9961286 58.242668,12.306348 L59.374668,4.71939143 C59.603172,3.6172508 58.951492,2.52318765 57.8725911,2.1976523 C56.0880488,1.59627135 54.2710834,1.0954823 52.4302834,0.6976523 C50.117915,0.21874992 47.760192,-0.00722021052 45.3988218,0.0237392565 C37.9523583,-0.30211951 30.7553301,2.74040969 25.8065141,8.30634795 C20.9302064,13.8425798 18.0276423,21.480261 17.0988218,31.2193914 L3.12297567,31.2193914 C2.00832194,31.2126387 1.06864625,32.0477937 0.946052589,33.154174 L0.031744897,39.8280871 C-0.0784266942,40.4654289 0.101302206,41.1186636 0.522102552,41.6103193 C0.942902899,42.1019749 1.56107322,42.3809915 2.20866797,42.3715653 L15.5532064,42.3715653 L7.3244372,95.3280871 C7.22147889,95.96207 7.40452095,96.6090694 7.82446244,97.0955279 C8.24440392,97.5819865 8.85825861,97.8581092 9.50136028,97.8498262 L18.7968218,97.8498262 C19.9114756,97.8565789 20.8511512,97.0214239 20.9737449,95.9150436 L29.4855141,42.4150436 L43.8749757,42.4150436 C44.9896294,42.4217963 45.9293051,41.5866413 46.0518987,40.480261 L46.9662064,33.7628697 C47.0756612,33.1293071 46.8986732,32.4798575 46.4828076,31.9890596 C46.0669421,31.4982618 45.4548582,31.2164612 44.8110526,31.2193914 Z" id="Shape"></path>
                        <path d="M96.0495274,31.569239 C92.0684622,29.3248263 87.5589479,28.1839956 82.9879889,28.2648912 C77.5267301,28.2467866 72.1785038,29.8180637 67.5971428,32.7866303 C62.775761,35.8740823 58.8914177,40.2191328 56.3642197,45.3518477 C53.6106017,50.7880485 52.1998451,56.803426 52.2498351,62.895326 C52.1742427,67.7694098 53.2638221,72.5912124 55.4281428,76.9605434 C57.4325885,81.0071255 60.5811139,84.3780405 64.4841428,86.6561955 C68.043841,88.7257851 72.0581831,89.8903502 76.1742197,90.0474999 C82.0930911,90.3834476 87.9690695,88.8632782 92.9800658,85.6996738 C97.8379923,82.5382664 101.719689,78.0898957 104.19122,72.8518477 C106.846015,67.2867007 108.193656,61.1898068 108.13145,55.0257608 C108.21511,50.1856497 107.124641,45.397204 104.953143,41.069239 C102.979484,37.1011831 99.8838807,33.7982289 96.0495274,31.569239 Z M91.6956812,66.3518477 C90.5187962,69.6965309 88.5114686,72.6883997 85.8615274,75.0474999 C83.605935,77.0851135 80.6743105,78.2158684 77.6327582,78.2214129 C75.6492613,78.2339827 73.7157195,77.6005358 72.1251428,76.4170651 C70.3550841,75.0910399 68.9782917,73.3104463 68.1413735,71.2648912 C67.1370805,68.9089865 66.6401474,66.3685036 66.6828351,63.8083695 C66.7129558,59.762719 67.4496415,55.7533337 68.8597582,51.9605434 C69.9995646,48.4875227 71.9725629,45.3455387 74.6068351,42.8083695 C77.2828236,40.185779 81.0527461,38.9981988 84.7512966,39.6127173 C86.5630859,39.8999535 88.2344399,40.7611492 89.5187582,42.069239 C92.5487685,45.3522157 94.1192782,49.7200375 93.8726043,54.1779347 C93.8989019,58.3559483 93.1611665,62.5036555 91.6956812,66.4170651 L91.6956812,66.3518477 Z" id="Shape"></path>
                        <path d="M166.348668,32.6149218 C163.865286,31.1125045 161.000496,30.3576684 158.09813,30.4410087 C154.604067,30.4724851 151.174568,31.3847566 148.127822,33.0931826 C144.414243,35.185223 141.026113,37.8070273 138.070437,40.8757913 L139.028283,34.0062261 C139.138455,33.3688843 138.958726,32.7156496 138.537926,32.2239939 C138.117125,31.7323383 137.498955,31.4533217 136.85136,31.4627479 L127.359976,31.4627479 C126.245322,31.4559952 125.305646,32.2911502 125.183053,33.3975305 L117.585591,87.7453565 C117.475419,88.3826984 117.655148,89.0359331 118.075949,89.5275887 C118.496749,90.0192444 119.114919,90.298261 119.762514,90.2888348 L129.253899,90.2888348 C130.361138,90.2968215 131.297979,89.4735415 131.430822,88.3757913 L136.459514,52.6801392 C139.151816,49.3815377 142.321406,46.5020779 145.863822,44.1366609 C147.945911,42.6435794 150.387177,41.7284328 152.938822,41.484487 C154.660141,41.4484794 156.288723,42.2616445 157.292668,43.6584 C158.420546,45.1991592 158.988771,47.0778415 158.903591,48.984487 C158.911997,50.1529745 158.861137,51.3211374 158.751206,52.484487 C158.64236,53.5497044 158.424668,55.2888348 158.07636,57.7018783 L153.918437,87.8105739 C153.808266,88.4479158 153.987995,89.1011505 154.408795,89.5928061 C154.829595,90.0844618 155.447766,90.3634784 156.09536,90.3540522 L165.521437,90.3540522 C166.628676,90.3620389 167.565517,89.5387589 167.69836,88.4410087 L172.24813,57.8105739 C172.422283,56.3757913 172.574668,55.1801392 172.705283,54.2018783 C172.835899,53.2236174 172.922976,52.3540522 172.988283,51.5931826 C173.053591,50.8323131 173.09713,50.1149218 173.118899,49.4192696 C173.140668,48.7236174 173.118899,48.0062261 173.118899,47.2453565 C173.170701,44.2976312 172.576301,41.3742577 171.37736,38.6801392 C170.327434,36.2130723 168.579869,34.1052962 166.348668,32.6149218 Z" id="Shape"></path>
                        <path d="M242.453736,0.00130859007 L232.853505,0.00130859007 C231.746266,-0.00667809792 230.809425,0.816601928 230.676582,1.91435207 L226.932274,28.7839173 L222.578428,28.7839173 C215.438469,28.6444052 208.355356,30.0768822 201.832351,32.9795695 C196.064751,35.5468242 191.192247,39.7693712 187.834736,45.1100042 C184.436429,50.7369653 182.7147,57.2146862 182.871351,63.7839173 C182.785727,68.6768651 184.091624,73.4937101 186.637428,77.6752216 C189.204684,81.7851007 192.952149,85.027403 197.391428,86.9795695 C202.465255,89.1976618 207.963422,90.2809354 213.500659,90.1534825 C219.345625,90.1894186 225.179614,89.6432384 230.916044,88.5230477 C231.847436,88.339294 232.552163,87.5739629 232.657582,86.6317434 L244.674198,2.54478685 C244.786028,1.89977762 244.600853,1.23878455 244.170093,0.745360697 C243.739333,0.251936846 243.108854,-0.0213798936 242.453736,0.00130859007 Z M220.205582,76.7186999 C220.090563,77.7238362 219.296418,78.5168835 218.28989,78.6317434 C216.844207,78.7903371 215.390358,78.862929 213.936044,78.8491347 C209.464735,79.0560336 205.092102,77.4937485 201.767044,74.5013086 C198.69633,71.5087923 197.055974,67.3463083 197.260813,63.066526 C197.1682,58.8645437 198.221692,54.7165195 200.308505,51.066526 C202.352667,47.6180622 205.386043,44.8615067 209.016198,43.1534825 C213.278346,41.2001163 217.934406,40.2553131 222.621967,40.3926129 L225.234274,40.3926129 L220.205582,76.7186999 Z" id="Shape"></path>
                        <path d="M262.820016,18.5436834 C263.971338,19.2307583 265.288399,19.5915097 266.629631,19.5871617 C269.380201,19.5684067 271.918378,18.1070516 273.312785,15.7393356 C273.984052,14.6153413 274.337643,13.330651 274.335939,12.0219443 C274.344935,10.6877062 273.999392,9.37495743 273.334555,8.21759645 C272.687293,7.03489906 271.722251,6.05613385 270.548093,5.39150949 C269.357437,4.70349768 268.005245,4.34341161 266.629631,4.34803123 C265.273926,4.33796076 263.941346,4.69883878 262.776478,5.39150949 C261.629154,6.0761982 260.683011,7.05102694 260.033555,8.21759645 C259.384816,9.38047637 259.047409,10.6907997 259.053939,12.0219443 C259.051175,14.7119612 260.487165,17.1986756 262.820016,18.5436834 Z" id="Shape"></path>
                        <path d="M279.909078,76.4568132 C279.408386,76.4568132 276.752539,77.1307263 276.143001,77.3046393 C274.978032,77.6936852 273.757693,77.8918996 272.529309,77.8915958 C271.029385,77.9597883 269.564176,77.4277219 268.458462,76.4133349 C267.473677,75.5263991 266.918544,74.2592797 266.934616,72.9350741 C266.954835,71.676197 267.056637,70.4199471 267.239386,69.1742045 L267.565924,67.0002915 C267.565924,66.7176828 267.565924,66.4568132 267.718309,66.1524654 L271.767386,33.0002915 C271.884873,32.3596237 271.708514,31.700105 271.286837,31.2032143 C270.86516,30.7063236 270.242599,30.4244198 269.590462,30.4350741 L259.990232,30.4350741 C258.882993,30.4270874 257.946152,31.2503674 257.813309,32.3481176 L253.350616,69.3046393 C252.889637,71.8904811 252.613197,74.5057598 252.523386,77.1307263 C252.506063,79.5796455 253.218351,81.9784004 254.569693,84.0220306 C255.968097,86.1511647 257.93661,87.8458123 260.251462,88.9133349 C264.833997,90.8402135 269.931189,91.1770049 274.728001,89.8698567 C276.34694,89.5224756 277.918296,88.9823843 279.408386,88.261161 C280.125512,87.8663084 280.598856,87.1409744 280.671001,86.3263784 L282.129539,78.4785523 C282.129539,76.7176828 281.781232,76.3915958 279.909078,76.4568132 Z" id="Shape"></path>
                    </g>
                    <path d="M334.10498,35.840332 L326.890625,87 L318.138184,87 L325.315918,35.840332 L334.10498,35.840332 Z M374.64863,87 L366.62861,87 L369.228708,68.1767578 C369.424021,66.7851493 369.552194,65.7841827 369.613229,65.1738281 C369.674265,64.5634735 369.704782,63.8920935 369.704782,63.159668 C369.704782,61.9145446 369.393506,60.8891642 368.770944,60.0834961 C368.148383,59.277828 367.312209,58.875 366.262399,58.875 C365.188175,58.875 363.833208,59.3815867 362.197458,60.3947754 C360.561708,61.4079641 358.755085,63.0497933 356.777536,65.3203125 L353.737985,87 L345.681345,87 L350.405466,53.1621094 L358.462106,53.1621094 L357.693063,58.5820312 C359.670612,56.6044823 361.599304,55.1091359 363.479196,54.0959473 C365.359088,53.0827586 367.275573,52.5761719 369.228708,52.5761719 C371.084186,52.5761719 372.664981,52.9912068 373.97114,53.8212891 C375.277298,54.6513713 376.266058,55.7866139 376.937448,57.2270508 C377.608838,58.6674877 377.944528,60.3154204 377.944528,62.1708984 C377.944528,62.6103538 377.938425,63.0253887 377.926218,63.4160156 C377.914011,63.8066426 377.889597,64.2216775 377.852976,64.6611328 C377.816354,65.1005881 377.761423,65.6010714 377.688181,66.1625977 C377.614938,66.7241239 377.52949,67.4199177 377.431833,68.25 L374.64863,87 Z M420.209369,60.3764648 C419.208387,60.0346663 418.207421,59.7844246 417.206439,59.6257324 C416.205458,59.4670402 414.996974,59.3876953 413.580951,59.3876953 C411.188361,59.3876953 408.985014,59.9431097 406.970844,61.0539551 C404.956673,62.1648005 403.345361,63.6967676 402.136859,65.6499023 C400.928357,67.6030371 400.324115,69.6904186 400.324115,71.9121094 C400.324115,74.7929832 401.117564,77.0268475 402.704486,78.6137695 C404.291408,80.2006915 406.525273,80.9941406 409.406146,80.9941406 C411.066311,80.9941406 412.573864,80.7988301 413.928851,80.4082031 C415.283839,80.0175762 416.901254,79.37061 418.781146,78.4672852 L417.865619,86.0112305 C414.691775,87.2807681 411.39591,87.9155273 407.977924,87.9155273 C404.852908,87.9155273 402.075836,87.2563542 399.646625,85.9379883 C397.217413,84.6196223 395.337549,82.7336548 394.006976,80.2800293 C392.676403,77.8264037 392.011127,75.037125 392.011127,71.9121094 C392.011127,68.3232242 392.957162,65.0151519 394.849262,61.987793 C396.741361,58.9604341 399.365846,56.5861902 402.722797,54.8649902 C406.079747,53.1437902 409.784544,52.2832031 413.837299,52.2832031 C415.033594,52.2832031 416.303112,52.362548 417.645892,52.5212402 C418.988673,52.6799324 420.18495,52.8935533 421.23476,53.1621094 L420.209369,60.3764648 Z M441.233975,82.6420898 C441.233975,84.0825267 440.727389,85.3093211 439.7142,86.3225098 C438.701011,87.3356984 437.46201,87.8422852 435.997159,87.8422852 C435.093834,87.8422852 434.245454,87.6164573 433.451993,87.1647949 C432.658532,86.7131325 432.023773,86.0844767 431.547696,85.2788086 C431.071619,84.4731405 430.833585,83.594243 430.833585,82.6420898 C430.833585,81.6899366 431.065516,80.8049357 431.529386,79.9870605 C431.993255,79.1691854 432.628014,78.5344261 433.433682,78.0827637 C434.23935,77.6311013 435.093834,77.4052734 435.997159,77.4052734 C437.46201,77.4052734 438.701011,77.9179636 439.7142,78.9433594 C440.727389,79.9687551 441.233975,81.201653 441.233975,82.6420898 Z" id="Inc."></path>
                </g>
            </g>
        </g>
    </g>
</svg>