<?xml version="1.0" encoding="UTF-8"?>
<svg width="400px" height="100px" viewBox="0 0 400 100" version="1.1" xmlns="http://www.w3.org/2000/svg" xmlns:xlink="http://www.w3.org/1999/xlink">
    <!-- Generator: Sketch 51.3 (57544) - http://www.bohemiancoding.com/sketch -->
    <title>element/logo/bl</title>
    <desc>Created with Sketch.</desc>
    <defs></defs>
    <g id="element/logo/bl" stroke="none" stroke-width="1" fill="none" fill-rule="evenodd">
        <g id="Group-3" transform="translate(5.000000, 2.000000)" fill="#000000" fill-rule="nonzero">
            <path d="M48,95.5051546 C21.7636276,95.5051546 0.494845361,74.2363724 0.494845361,48 C0.494845361,21.7636276 21.7636276,0.494845361 48,0.494845361 C74.2363724,0.494845361 95.5051546,21.7636276 95.5051546,48 C95.5051546,74.2363724 74.2363724,95.5051546 48,95.5051546 Z M48,92.5360825 C72.5965992,92.5360825 92.5360825,72.5965992 92.5360825,48 C92.5360825,23.4034008 72.5965992,3.46391753 48,3.46391753 C23.4034008,3.46391753 3.46391753,23.4034008 3.46391753,48 C3.46391753,72.5965992 23.4034008,92.5360825 48,92.5360825 Z" id="Oval-3"></path>
            <path d="M5.79533071,62.0985607 L4.38263702,62.5547887 L3.47018115,59.7294013 L4.88287484,59.2731734 C9.7642207,57.6967479 14.6537328,56.9072165 19.5463918,56.9072165 C29.3313188,56.9072165 39.0915708,60.0636092 48.7753222,66.3274505 C58.0354645,71.9985948 67.2550711,74.8217544 76.4536082,74.8217544 C78.8337188,74.8217544 81.2142014,74.6328222 83.5957597,74.2547871 L85.0619394,74.022054 L85.5274055,76.9544133 L84.0612259,77.1871463 C81.5261945,77.5895429 78.9900874,77.7908265 76.4536082,77.7908265 C66.6830733,77.7908265 56.9336077,74.8054174 47.1937644,68.8399652 C37.939357,62.8543525 28.7305368,59.8762887 19.5463918,59.8762887 C14.9675247,59.8762887 10.3855108,60.6161669 5.79533071,62.0985607 Z" id="Line-Copy"></path>
            <path d="M11.1865898,74.5537269 L9.7299202,74.8400151 L9.15734376,71.9266758 L10.6140134,71.6403876 C13.5899003,71.0555183 16.5677924,70.7628866 19.5463918,70.7628866 C31.4889019,70.7628866 39.2718011,73.8506371 48.8230677,80.2136291 C53.9770578,83.6471839 61.0817686,86.5050599 67.4681261,87.7801367 L68.9239296,88.0707971 L68.3426088,90.9824041 L66.8868053,90.6917437 C60.1294362,89.3425922 52.6624055,86.3389727 47.1769323,82.6845859 C38.0687031,76.6167426 30.7973961,73.7319588 19.5463918,73.7319588 C16.760931,73.7319588 13.9747631,74.0057501 11.1865898,74.5537269 Z" id="Line-Copy"></path>
            <path d="M37.5500949,25.2371134 C28.8164086,25.2371134 22.8113806,28.3981249 17.8292957,33.472464 C16.8312524,34.4889883 11.909364,40.6879372 11.2137189,41.5124411 C8.79615861,44.3778217 6.63526238,46.562263 4.43604356,48.2218137 L3.25104154,49.1160271 L1.46261476,46.746023 L2.64761678,45.8518096 C4.63829866,44.3496229 6.65731214,42.3086103 8.94444149,39.5978211 C9.54761086,38.8829228 14.5834484,32.5404589 15.7106742,31.3923602 C21.2027969,25.7985387 27.9097438,22.2680412 37.5500949,22.2680412 C45.2122138,22.2680412 50.6446126,25.7732904 53.5922294,32.6378258 L55.2952852,36.6039747 L51.5129147,34.5244531 C47.8218195,32.4951141 44.2476661,32.262505 40.6549633,33.7975586 C36.4521731,35.5932841 35.0597289,40.4421785 37.3417975,44.4983632 C38.3886054,46.358976 42.5124781,49.010953 49.8961988,52.9254284 C58.759622,57.6243672 66.0107852,60.0752827 77.0978793,60.4824284 C81.3707381,60.6393385 85.5539805,60.0325367 91.284794,58.4276684 L92.7143333,58.0273374 L93.5149953,60.8864159 L92.085456,61.2867469 C86.0788532,62.9688478 81.5983414,63.6187701 76.988921,63.4495007 C65.3751217,63.023013 57.7295545,60.4387877 48.5054952,55.5486578 C40.3878758,51.2451065 36.2245878,48.5677823 34.7541536,45.9542094 C31.6362304,40.4123637 33.5969725,33.5844913 39.4883914,31.0672656 C42.5803791,29.7461525 45.7119417,29.4857999 48.8375745,30.2764455 C46.2569997,26.8948301 42.5330562,25.2371134 37.5500949,25.2371134 Z" id="Line-2"></path>
        </g>
        <g id="LOG" transform="translate(121.000000, 18.000000)" fill="#000000" fill-rule="nonzero">
            <path d="M40.28,5.89 C44.6866667,9.58333333 46.89,14.7 46.89,21.24 C46.89,27.78 44.6866667,32.9233333 40.28,36.67 C35.8666667,40.37 29.73,42.2166667 21.87,42.21 L3.06,42.21 L3.06,63.36 L0,63.36 L0,0.36 L21.87,0.36 C29.73,0.36 35.8666667,2.20333333 40.28,5.89 Z M38.28,34.7 C42.04,31.5666667 43.92,27.08 43.92,21.24 C43.92,15.4 42.03,10.9466667 38.25,7.88 C34.47,4.72 29.07,3.14333333 22.05,3.15 L3.05,3.14997895 L3.05,39.42 L22.05,39.42 C29.07,39.42 34.47,37.8466667 38.25,34.7 L38.28,34.7 Z" id="Shape"></path>
            <path d="M82.57,59.58 C77.7127954,56.9093315 73.6827732,52.9554127 70.92,48.15 C68.0753468,43.1973119 66.6143692,37.5709938 66.69,31.86 C66.6143692,26.1490062 68.0753468,20.5226881 70.92,15.57 C73.6827732,10.7645873 77.7127954,6.81066855 82.57,4.14 C92.9695451,-1.38010427 105.430455,-1.38010427 115.83,4.14 C120.707774,6.80038519 124.756477,10.7556566 127.53,15.57 C130.374653,20.5226881 131.835631,26.1490062 131.76,31.86 C131.835631,37.5709938 130.374653,43.1973119 127.53,48.15 C124.756477,52.9643434 120.707774,56.9196148 115.83,59.58 C105.430455,65.1001043 92.9695451,65.1001043 82.57,59.58 Z M114.21,57.15 C118.635408,54.7030369 122.307752,51.0929358 124.83,46.71 C127.430058,42.1973123 128.766865,37.0677042 128.7,31.86 C128.768666,26.6489133 127.431798,21.5156158 124.83,17 C122.306311,12.6207447 118.634096,9.01422843 114.21,6.57 C104.843308,1.53687862 93.5766922,1.53687862 84.21,6.57 C79.7990731,9.02144819 76.1383104,12.6269019 73.62,17 C71.0199417,21.5126877 69.6831348,26.6422958 69.75,31.85 C69.6831348,37.0577042 71.0199417,42.1873123 73.62,46.7 C76.1299668,51.0778158 79.7838125,54.6901797 84.19,57.15 C93.5566922,62.1831214 104.823308,62.1831214 114.19,57.15 L114.21,57.15 Z" id="Shape"></path>
            <path d="M201.69,63.36 L186.12,41.67 C183.859954,42.0478552 181.57134,42.2285352 179.28,42.21 L160.47,42.21 L160.47,63.36 L157.41,63.36 L157.41,0.36 L179.28,0.36 C187.14,0.36 193.273333,2.20333333 197.68,5.89 C202.086667,9.57666667 204.293333,14.6933333 204.3,21.24 C204.459179,25.7752412 203.077432,30.2306698 200.38,33.88 C197.551411,37.4428982 193.606529,39.9507161 189.18,41 L205.29,63.41 L201.69,63.36 Z M179.46,39.42 C186.48,39.42 191.88,37.8466667 195.66,34.7 C199.44,31.5533333 201.33,27.0666667 201.33,21.24 C201.33,15.48 199.44,11.0266667 195.66,7.88 C191.88,4.73333333 186.48,3.15666667 179.46,3.15 L160.46,3.15 L160.46,39.42 L179.46,39.42 Z" id="Shape"></path>
            <polygon id="Shape" points="243 3.15 219.87 3.15 219.87 0.36 269.1 0.36 269.1 3.15 246 3.15 246 63.36 243 63.36"></polygon>
        </g>
    </g>
</svg>