<?xml version="1.0" encoding="UTF-8"?>
<svg width="82px" height="430px" viewBox="0 0 82 430" version="1.1" xmlns="http://www.w3.org/2000/svg" xmlns:xlink="http://www.w3.org/1999/xlink">
    <!-- Generator: Sketch 51.3 (57544) - http://www.bohemiancoding.com/sketch -->
    <title>ABOUT</title>
    <desc>Created with Sketch.</desc>
    <defs></defs>
    <g id="Page-1" stroke="none" stroke-width="1" fill="none" fill-rule="evenodd">
        <g id="Desktop-HD" transform="translate(-1358.000000, -1571.000000)" fill="#FFFFFF">
            <path d="M1205.89906,1807.47594 L1196.71938,1825.20055 L1184.56117,1825.20055 L1226.26039,1744.43883 L1252.28578,1825.20055 L1240.61586,1825.20055 L1235.14711,1807.47594 L1205.89906,1807.47594 Z M1210.73305,1797.80797 L1232.02211,1797.80797 L1223.91664,1771.00133 L1210.73305,1797.80797 Z M1291.47102,1749.80992 L1305.43586,1749.80992 C1309.83041,1749.80992 1313.39483,1750.28192 1316.12922,1751.22594 C1318.7985,1752.16995 1321.06085,1753.76499 1322.91633,1756.01109 C1325.87858,1759.55929 1327.35969,1763.83984 1327.35969,1768.85289 C1327.35969,1776.47012 1323.69762,1782.2806 1316.37336,1786.28453 C1325.26012,1788.49808 1329.70344,1794.06443 1329.70344,1802.98375 C1329.70344,1806.66215 1328.9222,1810.12892 1327.35969,1813.38414 C1325.86228,1816.60681 1323.74642,1819.21095 1321.01203,1821.19664 C1318.83103,1822.7917 1316.43848,1823.84963 1313.8343,1824.37047 C1312.4671,1824.63089 1310.82324,1824.83433 1308.90266,1824.98082 C1306.98207,1825.1273 1304.70345,1825.20055 1302.06672,1825.20055 L1282.19367,1825.20055 L1291.47102,1749.80992 Z M1301.3343,1760.21031 L1298.59992,1782.76891 L1301.77375,1782.76891 C1311.34411,1782.76891 1316.12922,1778.30931 1316.12922,1769.39 C1316.12922,1763.27018 1312.48342,1760.21031 1305.19172,1760.21031 L1301.3343,1760.21031 Z M1297.47688,1791.70445 L1294.64484,1814.80016 L1302.16438,1814.80016 C1307.76336,1814.80016 1311.60447,1814.10029 1313.68781,1812.70055 C1316.87793,1810.58465 1318.47297,1807.06906 1318.47297,1802.15367 C1318.47297,1800.29819 1318.20442,1798.7113 1317.6673,1797.39293 C1317.13019,1796.07456 1316.29199,1794.99222 1315.15266,1794.14586 C1314.01333,1793.2995 1312.54036,1792.68102 1310.73371,1792.29039 C1308.92706,1791.89976 1306.75423,1791.70445 1304.21516,1791.70445 L1297.47688,1791.70445 Z M1440.42188,1786.04039 C1440.42188,1794.63418 1438.14325,1802.43033 1433.58594,1809.42906 C1429.97264,1814.93039 1425.25263,1819.1784 1419.42578,1822.1732 C1413.59893,1825.16801 1407.15368,1826.66539 1400.08984,1826.66539 C1388.79421,1826.66539 1379.58207,1823.06842 1372.45312,1815.87437 C1365.32418,1808.64778 1361.75977,1799.30542 1361.75977,1787.84703 C1361.75977,1776.42119 1365.53577,1766.98118 1373.08789,1759.52672 C1380.67256,1752.0397 1390.24278,1748.29625 1401.79883,1748.29625 C1413.35488,1748.29625 1422.68095,1751.76301 1429.77734,1758.69664 C1436.87373,1765.59772 1440.42188,1774.71221 1440.42188,1786.04039 Z M1429.19141,1785.94273 C1429.19141,1777.70702 1426.75002,1771.11528 1421.86719,1766.16734 C1416.98435,1761.25195 1410.42517,1758.7943 1402.18945,1758.7943 C1393.92118,1758.7943 1386.97138,1761.5612 1381.33984,1767.09508 C1375.77341,1772.62896 1372.99023,1779.54621 1372.99023,1787.84703 C1372.99023,1796.0502 1375.5781,1802.83724 1380.75391,1808.20836 C1385.92971,1813.54693 1392.47262,1816.21617 1400.38281,1816.21617 C1408.61853,1816.21617 1415.47068,1813.33534 1420.93945,1807.57359 C1426.44078,1801.87695 1429.19141,1794.66674 1429.19141,1785.94273 Z M1536.34539,1749.80992 L1530.87664,1794.43883 C1529.63965,1804.26961 1527.32848,1811.46354 1523.94305,1816.02086 C1518.50682,1823.11725 1510.95481,1826.66539 1501.2868,1826.66539 C1493.53936,1826.66539 1487.07784,1824.32166 1481.90203,1819.63414 C1476.75878,1814.88151 1474.18719,1808.98964 1474.18719,1801.95836 C1474.18719,1800.46096 1474.24415,1798.8822 1474.35809,1797.22203 C1474.47202,1795.56187 1474.64292,1793.80407 1474.87078,1791.94859 L1480.04656,1749.80992 L1491.17937,1749.80992 L1485.85711,1793.36461 C1485.69435,1794.6667 1485.57228,1795.87111 1485.4909,1796.97789 C1485.40952,1798.08467 1485.36883,1799.11005 1485.36883,1800.05406 C1485.36883,1805.06711 1486.76855,1809.02215 1489.56805,1811.9193 C1492.40009,1814.81645 1496.2412,1816.265 1501.09148,1816.265 C1506.75557,1816.265 1511.05241,1814.4421 1513.98211,1810.79625 C1516.91181,1807.11785 1518.89747,1801.1446 1519.93914,1792.87633 L1525.21258,1749.80992 L1536.34539,1749.80992 Z M1595.15953,1760.21031 L1587.15172,1825.20055 L1575.97008,1825.20055 L1583.97789,1760.21031 L1565.96031,1760.21031 L1567.22984,1749.80992 L1613.66539,1749.80992 L1612.39586,1760.21031 L1595.15953,1760.21031 Z" id="ABOUT" transform="translate(1399.113281, 1785.552109) rotate(-90.000000) translate(-1399.113281, -1785.552109) "></path>
        </g>
    </g>
</svg>