<?xml version="1.0" encoding="UTF-8"?>
<svg width="14px" height="333px" viewBox="0 0 14 333" version="1.1" xmlns="http://www.w3.org/2000/svg" xmlns:xlink="http://www.w3.org/1999/xlink">
    <!-- Generator: Sketch 51.3 (57544) - http://www.bohemiancoding.com/sketch -->
    <title>TAKAHIRO FUKUYAMA 20</title>
    <desc>Created with Sketch.</desc>
    <defs></defs>
    <g id="Page-1" stroke="none" stroke-width="1" fill="none" fill-rule="evenodd">
        <g id="Desktop-HD" transform="translate(-1411.000000, -640.000000)" fill="#212020">
            <path d="M1255.17188,802.201172 L1254.21094,810 L1252.86914,810 L1253.83008,802.201172 L1251.66797,802.201172 L1251.82031,800.953125 L1257.39258,800.953125 L1257.24023,802.201172 L1255.17188,802.201172 Z M1259.91863,807.873047 L1258.81706,810 L1257.35808,810 L1262.36198,800.308594 L1265.48503,810 L1264.08464,810 L1263.42839,807.873047 L1259.91863,807.873047 Z M1260.4987,806.712891 L1263.05339,806.712891 L1262.08073,803.496094 L1260.4987,806.712891 Z M1270.2728,800.953125 L1269.80405,804.796875 L1273.4603,800.953125 L1275.15366,800.953125 L1270.93491,805.160156 L1274.73178,810 L1273.11459,810 L1269.70444,805.587891 L1269.16538,810 L1267.82358,810 L1268.93686,800.953125 L1270.2728,800.953125 Z M1279.03322,807.873047 L1277.93166,810 L1276.47267,810 L1281.47658,800.308594 L1284.59963,810 L1283.19923,810 L1282.54298,807.873047 L1279.03322,807.873047 Z M1279.6133,806.712891 L1282.16798,806.712891 L1281.19533,803.496094 L1279.6133,806.712891 Z M1294.46747,800.953125 L1293.35419,810 L1292.01239,810 L1292.55731,805.582031 L1288.81903,805.582031 L1288.27997,810 L1286.93817,810 L1288.05145,800.953125 L1289.38739,800.953125 L1288.9538,804.498047 L1292.69208,804.498047 L1293.12567,800.953125 L1294.46747,800.953125 Z M1299.26109,800.953125 L1298.14781,810 L1296.80602,810 L1297.9193,800.953125 L1299.26109,800.953125 Z M1305.17386,806.185547 L1307.4473,810 L1306.02933,810 L1303.8848,806.279297 L1303.39847,806.279297 L1302.94144,810 L1301.59964,810 L1302.71292,800.953125 L1304.48831,800.953125 C1305.06644,800.953125 1305.52542,801.005859 1305.86527,801.111328 C1306.2012,801.208985 1306.49417,801.388671 1306.74417,801.650391 C1307.21683,802.134768 1307.45316,802.759762 1307.45316,803.525391 C1307.45316,804.927741 1306.6934,805.814451 1305.17386,806.185547 Z M1303.89652,802.201172 L1303.54495,805.107422 L1304.16019,805.107422 C1304.61331,805.107422 1304.9512,805.064454 1305.17386,804.978516 C1305.41214,804.892578 1305.61136,804.746095 1305.77152,804.539062 C1305.99027,804.249999 1306.09964,803.910158 1306.09964,803.519531 C1306.09964,803.062498 1305.96781,802.728517 1305.70413,802.517578 C1305.44046,802.30664 1305.02542,802.201172 1304.45902,802.201172 L1303.89652,802.201172 Z M1319.3835,805.300781 C1319.3835,806.332036 1319.11007,807.267574 1318.56319,808.107422 C1318.12959,808.767581 1317.56319,809.277342 1316.86397,809.636719 C1316.16475,809.996096 1315.39132,810.175781 1314.54366,810.175781 C1313.18818,810.175781 1312.08272,809.744145 1311.22725,808.880859 C1310.37178,808.013668 1309.94405,806.892585 1309.94405,805.517578 C1309.94405,804.146478 1310.39717,803.013676 1311.30342,802.119141 C1312.21358,801.220699 1313.36201,800.771484 1314.74873,800.771484 C1316.13546,800.771484 1317.25459,801.187496 1318.10616,802.019531 C1318.95772,802.84766 1319.3835,803.941399 1319.3835,805.300781 Z M1318.03584,805.289062 C1318.03584,804.300776 1317.74288,803.509769 1317.15694,802.916016 C1316.571,802.326169 1315.7839,802.03125 1314.79561,802.03125 C1313.80342,802.03125 1312.96944,802.363278 1312.29366,803.027344 C1311.62568,803.69141 1311.2917,804.521479 1311.2917,805.517578 C1311.2917,806.501958 1311.60225,807.316403 1312.22334,807.960938 C1312.84444,808.601566 1313.62959,808.921875 1314.57881,808.921875 C1315.5671,808.921875 1316.38936,808.576175 1317.04561,807.884766 C1317.70577,807.201168 1318.03584,806.335943 1318.03584,805.289062 Z M1332.33989,800.953125 L1332.18755,802.201172 L1329.05864,802.201172 L1328.77153,804.533203 L1331.90044,804.533203 L1331.75981,805.693359 L1328.62505,805.693359 L1328.0977,810 L1326.75591,810 L1327.87505,800.953125 L1332.33989,800.953125 Z M1341.82102,800.953125 L1341.16477,806.308594 C1341.01633,807.488287 1340.73899,808.35156 1340.33273,808.898438 C1339.68039,809.750004 1338.77415,810.175781 1337.61398,810.175781 C1336.68429,810.175781 1335.90891,809.894534 1335.28781,809.332031 C1334.67062,808.761716 1334.36203,808.054692 1334.36203,807.210938 C1334.36203,807.031249 1334.36887,806.841798 1334.38254,806.642578 C1334.39621,806.443358 1334.41672,806.232423 1334.44406,806.009766 L1335.06516,800.953125 L1336.40109,800.953125 L1335.76242,806.179688 C1335.74289,806.335938 1335.72824,806.480468 1335.71848,806.613281 C1335.70871,806.746094 1335.70383,806.86914 1335.70383,806.982422 C1335.70383,807.583987 1335.8718,808.058592 1336.20773,808.40625 C1336.54758,808.753908 1337.00851,808.927734 1337.59055,808.927734 C1338.27024,808.927734 1338.78586,808.708987 1339.13742,808.271484 C1339.48899,807.830076 1339.72726,807.113286 1339.85227,806.121094 L1340.48508,800.953125 L1341.82102,800.953125 Z M1346.60878,800.953125 L1346.14003,804.796875 L1349.79628,800.953125 L1351.48964,800.953125 L1347.27089,805.160156 L1351.06777,810 L1349.45058,810 L1346.04042,805.587891 L1345.50136,810 L1344.15956,810 L1345.27284,800.953125 L1346.60878,800.953125 Z M1361.39264,800.953125 L1360.73639,806.308594 C1360.58795,807.488287 1360.31061,808.35156 1359.90436,808.898438 C1359.25201,809.750004 1358.34577,810.175781 1357.18561,810.175781 C1356.25592,810.175781 1355.48053,809.894534 1354.85944,809.332031 C1354.24225,808.761716 1353.93366,808.054692 1353.93366,807.210938 C1353.93366,807.031249 1353.94049,806.841798 1353.95416,806.642578 C1353.96784,806.443358 1353.98834,806.232423 1354.01569,806.009766 L1354.63678,800.953125 L1355.97272,800.953125 L1355.33405,806.179688 C1355.31452,806.335938 1355.29987,806.480468 1355.2901,806.613281 C1355.28034,806.746094 1355.27545,806.86914 1355.27545,806.982422 C1355.27545,807.583987 1355.44342,808.058592 1355.77936,808.40625 C1356.1192,808.753908 1356.58014,808.927734 1357.16217,808.927734 C1357.84186,808.927734 1358.35748,808.708987 1358.70905,808.271484 C1359.06061,807.830076 1359.29889,807.113286 1359.42389,806.121094 L1360.0567,800.953125 L1361.39264,800.953125 Z M1367.31713,805.951172 L1366.81908,810 L1365.47728,810 L1365.99291,805.857422 L1363.6433,800.953125 L1365.0847,800.953125 L1366.75463,804.550781 L1369.12767,800.953125 L1370.66869,800.953125 L1367.31713,805.951172 Z M1372.94278,807.873047 L1371.84122,810 L1370.38223,810 L1375.38614,800.308594 L1378.50919,810 L1377.1088,810 L1376.45255,807.873047 L1372.94278,807.873047 Z M1373.52286,806.712891 L1376.07755,806.712891 L1375.10489,803.496094 L1373.52286,806.712891 Z M1390.04695,800.097656 L1390.79109,810 L1389.51375,810 L1389.10945,804.234375 L1385.60555,810.632812 L1383.66609,804.234375 L1381.86141,810 L1380.49031,810 L1383.61922,800.314453 L1385.91023,807.708984 L1390.04695,800.097656 Z M1395.63159,807.873047 L1394.53003,810 L1393.07105,810 L1398.07495,800.308594 L1401.198,810 L1399.79761,810 L1399.14136,807.873047 L1395.63159,807.873047 Z M1396.21167,806.712891 L1398.76636,806.712891 L1397.7937,803.496094 L1396.21167,806.712891 Z M1414.0372,808.751953 L1413.879,810 L1408.02548,810 L1411.63486,806.021484 C1412.00986,805.611326 1412.30869,805.273439 1412.53134,805.007812 C1412.754,804.742186 1412.9083,804.541016 1412.99423,804.404297 C1413.1583,804.142577 1413.24033,803.83008 1413.24033,803.466797 C1413.24033,803.24414 1413.20615,803.043946 1413.13779,802.866211 C1413.06943,802.688476 1412.97177,802.53711 1412.84482,802.412109 C1412.71787,802.287109 1412.56259,802.191407 1412.379,802.125 C1412.19541,802.058593 1411.99033,802.025391 1411.76377,802.025391 C1411.50986,802.025391 1411.2872,802.061523 1411.0958,802.133789 C1410.90439,802.206055 1410.74326,802.318359 1410.6124,802.470703 C1410.48154,802.623048 1410.37705,802.817382 1410.29892,803.053711 C1410.2208,803.29004 1410.16806,803.572264 1410.14072,803.900391 L1408.86923,803.900391 C1408.93564,803.009761 1409.12119,802.347658 1409.42587,801.914062 C1409.9376,801.179684 1410.7286,800.8125 1411.79892,800.8125 C1412.63096,800.8125 1413.29501,801.054685 1413.79111,801.539062 C1414.29111,802.019534 1414.54111,802.656246 1414.54111,803.449219 C1414.54111,803.964846 1414.43759,804.414061 1414.23056,804.796875 C1414.129,804.988282 1413.96592,805.222655 1413.7413,805.5 C1413.51669,805.777345 1413.23252,806.105467 1412.88877,806.484375 L1410.79697,808.751953 L1414.0372,808.751953 Z M1423.51247,804.744141 C1423.51247,805.513676 1423.40114,806.292965 1423.17848,807.082031 C1422.95583,807.867191 1422.66872,808.494138 1422.31716,808.962891 C1421.72731,809.740238 1420.97536,810.128906 1420.0613,810.128906 C1419.17457,810.128906 1418.47341,809.773441 1417.95778,809.0625 C1417.44606,808.351559 1417.1902,807.382819 1417.1902,806.15625 C1417.1902,804.652336 1417.53004,803.386724 1418.20973,802.359375 C1418.89724,801.332026 1419.73707,800.818359 1420.72927,800.818359 C1421.57693,800.818359 1422.2527,801.173825 1422.75661,801.884766 C1423.26052,802.595707 1423.51247,803.548822 1423.51247,804.744141 Z M1422.20583,804.679688 C1422.20583,803.843746 1422.07497,803.195315 1421.81325,802.734375 C1421.55153,802.261716 1421.19021,802.025391 1420.72927,802.025391 C1420.10036,802.025391 1419.56911,802.439449 1419.13552,803.267578 C1418.70583,804.095707 1418.49098,805.113275 1418.49098,806.320312 C1418.49098,807.132817 1418.6238,807.771482 1418.88942,808.236328 C1419.15895,808.693362 1419.52809,808.921875 1419.99684,808.921875 C1420.58278,808.921875 1421.07301,808.589847 1421.46755,807.925781 C1421.6863,807.554686 1421.86208,807.066409 1421.99489,806.460938 C1422.13552,805.847653 1422.20583,805.253909 1422.20583,804.679688 Z M1429.44281,800.953125 L1428.32953,810 L1426.98773,810 L1427.95453,802.201172 L1426.17328,802.201172 L1426.78266,800.953125 L1429.44281,800.953125 Z M1435.93566,806.830078 C1435.713,806.888672 1435.49816,806.917969 1435.29112,806.917969 C1434.47081,806.917969 1433.81847,806.671877 1433.33409,806.179688 C1432.84972,805.683591 1432.60753,805.023442 1432.60753,804.199219 C1432.60753,803.249995 1432.92979,802.449222 1433.57433,801.796875 C1434.22668,801.144528 1435.01964,800.818359 1435.95323,800.818359 C1436.78527,800.818359 1437.48058,801.099607 1438.03917,801.662109 C1438.59777,802.232425 1438.87706,802.935543 1438.87706,803.771484 C1438.87706,804.607426 1438.48839,805.548823 1437.71105,806.595703 L1434.89269,810.386719 L1433.88487,809.601562 L1435.93566,806.830078 Z M1437.57628,803.759766 C1437.57628,803.251951 1437.42003,802.835939 1437.10753,802.511719 C1436.79503,802.187498 1436.39464,802.025391 1435.90636,802.025391 C1435.33604,802.025391 1434.86144,802.230467 1434.48253,802.640625 C1434.09972,803.058596 1433.90831,803.566403 1433.90831,804.164062 C1433.90831,804.660159 1434.06065,805.056639 1434.36534,805.353516 C1434.67785,805.654298 1435.08214,805.804688 1435.57823,805.804688 C1436.13683,805.804688 1436.60948,805.607424 1436.9962,805.212891 C1437.38292,804.814451 1437.57628,804.330081 1437.57628,803.759766 Z M1452.74166,803.267578 L1452.60689,804.363281 C1452.57564,804.335937 1452.54927,804.3125 1452.52779,804.292969 C1452.5063,804.273437 1452.48775,804.255859 1452.47213,804.240234 C1451.99947,803.791013 1451.43697,803.566406 1450.78463,803.566406 C1450.22603,803.566406 1449.77486,803.749998 1449.43111,804.117188 C1449.08736,804.484377 1448.91548,804.968747 1448.91548,805.570312 C1448.91548,806.156253 1449.08345,806.605467 1449.41939,806.917969 C1449.75533,807.23047 1450.2397,807.386719 1450.87252,807.386719 C1451.38814,807.386719 1451.83736,807.240236 1452.22017,806.947266 C1452.2397,806.931641 1452.26314,806.913086 1452.29048,806.891602 C1452.31783,806.870117 1452.34908,806.845703 1452.38423,806.818359 L1452.24361,807.996094 L1452.17916,808.019531 C1451.62837,808.203126 1451.13814,808.294922 1450.70845,808.294922 C1449.86861,808.294922 1449.18892,808.042971 1448.66939,807.539062 C1448.15376,807.035154 1447.89595,806.373051 1447.89595,805.552734 C1447.89595,804.716793 1448.16743,804.027346 1448.71041,803.484375 C1449.25338,802.933591 1449.93696,802.658203 1450.76119,802.658203 C1451.41744,802.658203 1452.06392,802.853514 1452.70064,803.244141 L1452.74166,803.267578 Z M1455.3315,805.464844 C1455.3315,806.773444 1454.87447,807.886714 1453.96041,808.804688 C1453.04634,809.722661 1451.94088,810.181641 1450.644,810.181641 C1449.34712,810.181641 1448.23775,809.720708 1447.31588,808.798828 C1446.40181,807.880855 1445.94478,806.765632 1445.94478,805.453125 C1445.94478,804.74609 1446.09322,804.083987 1446.39009,803.466797 C1446.68697,802.833981 1447.10493,802.294924 1447.644,801.849609 C1448.519,801.12695 1449.50142,800.765625 1450.59127,800.765625 C1451.29439,800.765625 1451.94868,800.902342 1452.55416,801.175781 C1453.38619,801.539064 1454.05611,802.11523 1454.56392,802.904297 C1455.07564,803.69727 1455.3315,804.550777 1455.3315,805.464844 Z M1450.60884,801.451172 C1449.53853,801.451172 1448.62057,801.845699 1447.85494,802.634766 C1447.0854,803.427738 1446.70064,804.369135 1446.70064,805.458984 C1446.70064,806.572271 1447.0854,807.525387 1447.85494,808.318359 C1448.62057,809.107426 1449.55024,809.501953 1450.644,809.501953 C1451.72604,809.501953 1452.65181,809.109379 1453.42134,808.324219 C1454.18697,807.535152 1454.56978,806.582037 1454.56978,805.464844 C1454.56978,804.851559 1454.41939,804.234378 1454.11861,803.613281 C1453.81783,803.011716 1453.4233,802.537111 1452.93502,802.189453 C1452.24361,801.697263 1451.46822,801.451172 1450.60884,801.451172 Z M1459.26966,807.873047 L1458.16809,810 L1456.70911,810 L1461.71302,800.308594 L1464.83606,810 L1463.43567,810 L1462.77942,807.873047 L1459.26966,807.873047 Z M1459.84973,806.712891 L1462.40442,806.712891 L1461.43177,803.496094 L1459.84973,806.712891 Z M1469.50664,800.103516 L1468.29375,810 L1466.99883,810 L1468.21758,800.103516 L1469.50664,800.103516 Z M1473.89011,800.103516 L1472.67722,810 L1471.3823,810 L1472.60105,800.103516 L1473.89011,800.103516 Z M1482.7215,804.480469 L1482.66291,804.955078 C1483.10041,804.541014 1483.54181,804.333984 1483.98712,804.333984 C1484.37775,804.333984 1484.73322,804.476561 1485.05353,804.761719 L1484.22736,805.828125 C1483.98908,805.624999 1483.7508,805.523438 1483.51252,805.523438 C1483.34845,805.523438 1483.20392,805.555664 1483.07892,805.620117 C1482.95392,805.684571 1482.84552,805.786132 1482.75373,805.924805 C1482.66193,806.063477 1482.58576,806.242186 1482.52521,806.460938 C1482.46466,806.679689 1482.41681,806.941405 1482.38166,807.246094 L1482.04181,810 L1480.74689,810 L1481.42658,804.480469 L1482.7215,804.480469 Z M1489.10302,801.855469 C1489.10302,802.04297 1489.03466,802.205077 1488.89794,802.341797 C1488.76122,802.478516 1488.59716,802.546875 1488.40575,802.546875 C1488.21434,802.546875 1488.04833,802.476563 1487.9077,802.335938 C1487.77098,802.187499 1487.70262,802.017579 1487.70262,801.826172 C1487.70262,801.634765 1487.76903,801.472657 1487.90184,801.339844 C1488.03856,801.203124 1488.20067,801.134766 1488.38817,801.134766 C1488.57958,801.134766 1488.74559,801.207031 1488.88622,801.351562 C1489.03075,801.492188 1489.10302,801.660155 1489.10302,801.855469 Z M1488.69872,804.480469 L1488.01903,810 L1486.72411,810 L1487.4038,804.480469 L1488.69872,804.480469 Z M1497.33023,804.480469 L1496.65055,810.041016 C1496.60758,810.373049 1496.55973,810.662108 1496.50699,810.908203 C1496.45426,811.154298 1496.39469,811.361327 1496.32828,811.529297 C1496.19156,811.873049 1495.98844,812.167968 1495.71891,812.414062 C1495.19547,812.882815 1494.51579,813.117188 1493.67984,813.117188 C1492.81656,813.117188 1492.11735,812.890627 1491.58219,812.4375 C1491.30875,812.210936 1491.11734,811.953126 1491.00797,811.664062 C1490.89859,811.398436 1490.84391,811.025393 1490.84391,810.544922 L1492.09781,810.544922 C1492.12906,811.064456 1492.26187,811.442382 1492.49625,811.678711 C1492.73063,811.91504 1493.0939,812.033203 1493.58609,812.033203 C1494.11735,812.033203 1494.52164,811.891603 1494.79898,811.608398 C1495.07633,811.325194 1495.25211,810.875003 1495.32633,810.257812 L1495.42008,809.501953 C1494.8732,809.919924 1494.29899,810.128906 1493.69742,810.128906 C1492.94742,810.128906 1492.32828,809.873049 1491.84,809.361328 C1491.35172,808.837888 1491.10758,808.185551 1491.10758,807.404297 C1491.10758,806.525386 1491.39078,805.796878 1491.95719,805.21875 C1492.5275,804.636716 1493.24039,804.345703 1494.09586,804.345703 C1494.50602,804.345703 1494.83805,804.406249 1495.09195,804.527344 C1495.3693,804.644532 1495.6564,804.85742 1495.95328,805.166016 L1496.03531,804.480469 L1497.33023,804.480469 Z M1495.84195,807.099609 C1495.84195,806.599607 1495.68961,806.197267 1495.38492,805.892578 C1495.08023,805.583983 1494.6818,805.429688 1494.18961,805.429688 C1493.67789,805.429688 1493.25211,805.617186 1492.91227,805.992188 C1492.57633,806.363283 1492.40836,806.830075 1492.40836,807.392578 C1492.40836,807.884768 1492.55289,808.287108 1492.84195,808.599609 C1493.13492,808.900392 1493.52164,809.050781 1494.00211,809.050781 C1494.53727,809.050781 1494.97672,808.867189 1495.32047,808.5 C1495.66813,808.128904 1495.84195,807.662112 1495.84195,807.099609 Z M1502.25862,800.103516 L1501.66097,804.949219 C1502.1805,804.546873 1502.70784,804.345703 1503.243,804.345703 C1503.78207,804.345703 1504.21175,804.48828 1504.53206,804.773438 C1504.8641,805.054689 1505.03011,805.423826 1505.03011,805.880859 C1505.03011,805.990235 1505.02425,806.114257 1505.01253,806.25293 C1505.00081,806.391602 1504.98519,806.548827 1504.96566,806.724609 L1504.56136,810 L1503.26644,810 L1503.67659,806.654297 C1503.70003,806.474608 1503.71175,806.312501 1503.71175,806.167969 C1503.71175,805.675779 1503.42269,805.429688 1502.84456,805.429688 C1502.01643,805.429688 1501.53402,805.990229 1501.3973,807.111328 L1501.03987,810 L1499.74495,810 L1500.9637,800.103516 L1502.25862,800.103516 Z M1509.56592,805.681641 L1509.03272,810 L1507.7378,810 L1508.271,805.681641 L1507.53858,805.681641 L1507.68506,804.480469 L1508.41748,804.480469 L1508.73389,801.919922 L1510.02881,801.919922 L1509.71241,804.480469 L1510.90772,804.480469 L1510.76123,805.681641 L1509.56592,805.681641 Z M1516.41619,805.089844 L1515.68377,805.822266 C1515.34001,805.51367 1515.02166,805.359375 1514.72869,805.359375 C1514.52947,805.359375 1514.36443,805.415039 1514.23357,805.526367 C1514.10271,805.637696 1514.03728,805.77539 1514.03728,805.939453 C1514.03728,806.09961 1514.09197,806.234374 1514.20134,806.34375 C1514.31072,806.457032 1514.53923,806.609374 1514.88689,806.800781 C1515.38299,807.078126 1515.71501,807.33203 1515.88298,807.5625 C1516.06267,807.789064 1516.15252,808.083983 1516.15252,808.447266 C1516.15252,808.970706 1515.97088,809.390623 1515.60759,809.707031 C1515.2365,810.019533 1514.75408,810.175781 1514.16033,810.175781 C1513.35173,810.175781 1512.68182,809.810551 1512.15056,809.080078 L1513.00017,808.488281 C1513.34783,808.906252 1513.71892,809.115234 1514.11345,809.115234 C1514.33611,809.115234 1514.51482,809.056641 1514.64959,808.939453 C1514.78435,808.822265 1514.85173,808.669923 1514.85173,808.482422 C1514.85173,808.318359 1514.79509,808.185547 1514.68181,808.083984 C1514.62712,808.033203 1514.53142,807.962891 1514.3947,807.873047 C1514.25798,807.783203 1514.07244,807.675782 1513.83806,807.550781 C1513.424,807.320311 1513.13689,807.095704 1512.97673,806.876953 C1512.81658,806.646483 1512.7365,806.365236 1512.7365,806.033203 C1512.7365,805.533201 1512.92009,805.119142 1513.28728,804.791016 C1513.65447,804.462889 1514.12126,804.298828 1514.68767,804.298828 C1515.31267,804.298828 1515.88884,804.562497 1516.41619,805.089844 Z M1525.52883,804.480469 L1525.47023,804.955078 C1525.90774,804.541014 1526.34914,804.333984 1526.79445,804.333984 C1527.18508,804.333984 1527.54055,804.476561 1527.86086,804.761719 L1527.03469,805.828125 C1526.79641,805.624999 1526.55813,805.523438 1526.31984,805.523438 C1526.15578,805.523438 1526.01125,805.555664 1525.88625,805.620117 C1525.76125,805.684571 1525.65285,805.786132 1525.56105,805.924805 C1525.46926,806.063477 1525.39309,806.242186 1525.33254,806.460938 C1525.27199,806.679689 1525.22414,806.941405 1525.18898,807.246094 L1524.84914,810 L1523.55422,810 L1524.23391,804.480469 L1525.52883,804.480469 Z M1530.67402,807.703125 C1530.67402,808.109377 1530.81464,808.443358 1531.09589,808.705078 C1531.38105,808.966798 1531.74433,809.097656 1532.18573,809.097656 C1532.79121,809.097656 1533.25605,808.871096 1533.58027,808.417969 L1534.54706,808.951172 C1534.21112,809.404299 1533.86542,809.720702 1533.50995,809.900391 C1533.15058,810.083985 1532.70136,810.175781 1532.1623,810.175781 C1531.30682,810.175781 1530.62519,809.923831 1530.11738,809.419922 C1529.60956,808.916013 1529.35566,808.242192 1529.35566,807.398438 C1529.35566,806.515621 1529.63495,805.777347 1530.19355,805.183594 C1530.74824,804.593747 1531.4494,804.298828 1532.29706,804.298828 C1533.11738,804.298828 1533.76386,804.56445 1534.23652,805.095703 C1534.71699,805.630862 1534.95722,806.347652 1534.95722,807.246094 C1534.95722,807.339844 1534.95136,807.492186 1534.93964,807.703125 L1530.67402,807.703125 Z M1533.64472,806.660156 C1533.508,805.808589 1533.0373,805.382812 1532.23261,805.382812 C1531.47089,805.382812 1530.9748,805.808589 1530.74433,806.660156 L1533.64472,806.660156 Z M1541.32702,805.089844 L1540.59459,805.822266 C1540.25084,805.51367 1539.93249,805.359375 1539.63952,805.359375 C1539.4403,805.359375 1539.27526,805.415039 1539.1444,805.526367 C1539.01354,805.637696 1538.94811,805.77539 1538.94811,805.939453 C1538.94811,806.09961 1539.0028,806.234374 1539.11217,806.34375 C1539.22155,806.457032 1539.45006,806.609374 1539.79772,806.800781 C1540.29381,807.078126 1540.62584,807.33203 1540.79381,807.5625 C1540.9735,807.789064 1541.06334,808.083983 1541.06334,808.447266 C1541.06334,808.970706 1540.8817,809.390623 1540.51842,809.707031 C1540.14733,810.019533 1539.66491,810.175781 1539.07116,810.175781 C1538.26256,810.175781 1537.59264,809.810551 1537.06139,809.080078 L1537.911,808.488281 C1538.25866,808.906252 1538.62975,809.115234 1539.02428,809.115234 C1539.24694,809.115234 1539.42565,809.056641 1539.56041,808.939453 C1539.69518,808.822265 1539.76256,808.669923 1539.76256,808.482422 C1539.76256,808.318359 1539.70592,808.185547 1539.59264,808.083984 C1539.53795,808.033203 1539.44225,807.962891 1539.30553,807.873047 C1539.16881,807.783203 1538.98327,807.675782 1538.74889,807.550781 C1538.33483,807.320311 1538.04772,807.095704 1537.88756,806.876953 C1537.72741,806.646483 1537.64733,806.365236 1537.64733,806.033203 C1537.64733,805.533201 1537.83092,805.119142 1538.19811,804.791016 C1538.5653,804.462889 1539.03209,804.298828 1539.5985,804.298828 C1540.2235,804.298828 1540.79967,804.562497 1541.32702,805.089844 Z M1544.80814,807.703125 C1544.80814,808.109377 1544.94876,808.443358 1545.23002,808.705078 C1545.51517,808.966798 1545.87845,809.097656 1546.31986,809.097656 C1546.92533,809.097656 1547.39017,808.871096 1547.71439,808.417969 L1548.68119,808.951172 C1548.34525,809.404299 1547.99955,809.720702 1547.64408,809.900391 C1547.2847,810.083985 1546.83549,810.175781 1546.29642,810.175781 C1545.44095,810.175781 1544.75932,809.923831 1544.2515,809.419922 C1543.74368,808.916013 1543.48978,808.242192 1543.48978,807.398438 C1543.48978,806.515621 1543.76908,805.777347 1544.32767,805.183594 C1544.88236,804.593747 1545.58353,804.298828 1546.43119,804.298828 C1547.2515,804.298828 1547.89798,804.56445 1548.37064,805.095703 C1548.85111,805.630862 1549.09134,806.347652 1549.09134,807.246094 C1549.09134,807.339844 1549.08548,807.492186 1549.07377,807.703125 L1544.80814,807.703125 Z M1547.77884,806.660156 C1547.64212,805.808589 1547.17143,805.382812 1546.36673,805.382812 C1545.60501,805.382812 1545.10892,805.808589 1544.87845,806.660156 L1547.77884,806.660156 Z M1553.46895,804.480469 L1553.41036,804.955078 C1553.84786,804.541014 1554.28926,804.333984 1554.73458,804.333984 C1555.12521,804.333984 1555.48067,804.476561 1555.80098,804.761719 L1554.97481,805.828125 C1554.73653,805.624999 1554.49825,805.523438 1554.25997,805.523438 C1554.09591,805.523438 1553.95138,805.555664 1553.82638,805.620117 C1553.70137,805.684571 1553.59298,805.786132 1553.50118,805.924805 C1553.40938,806.063477 1553.33321,806.242186 1553.27266,806.460938 C1553.21212,806.679689 1553.16427,806.941405 1553.12911,807.246094 L1552.78927,810 L1551.49434,810 L1552.17403,804.480469 L1553.46895,804.480469 Z M1563.40711,804.480469 L1559.61023,810.714844 L1557.64734,804.480469 L1558.995,804.480469 L1559.94422,808.007812 L1561.92469,804.480469 L1563.40711,804.480469 Z M1566.20855,807.703125 C1566.20855,808.109377 1566.34917,808.443358 1566.63042,808.705078 C1566.91558,808.966798 1567.27886,809.097656 1567.72027,809.097656 C1568.32574,809.097656 1568.79058,808.871096 1569.1148,808.417969 L1570.08159,808.951172 C1569.74565,809.404299 1569.39995,809.720702 1569.04448,809.900391 C1568.68511,810.083985 1568.23589,810.175781 1567.69683,810.175781 C1566.84136,810.175781 1566.15972,809.923831 1565.65191,809.419922 C1565.14409,808.916013 1564.89019,808.242192 1564.89019,807.398438 C1564.89019,806.515621 1565.16948,805.777347 1565.72808,805.183594 C1566.28277,804.593747 1566.98393,804.298828 1567.83159,804.298828 C1568.65191,804.298828 1569.29839,804.56445 1569.77105,805.095703 C1570.25152,805.630862 1570.49175,806.347652 1570.49175,807.246094 C1570.49175,807.339844 1570.48589,807.492186 1570.47417,807.703125 L1566.20855,807.703125 Z M1569.17925,806.660156 C1569.04253,805.808589 1568.57183,805.382812 1567.76714,805.382812 C1567.00542,805.382812 1566.50933,805.808589 1566.27886,806.660156 L1569.17925,806.660156 Z M1579.66819,800.103516 L1578.44944,810 L1577.16038,810 L1577.23069,809.408203 C1576.91037,809.693361 1576.63303,809.886718 1576.39866,809.988281 C1576.16819,810.082032 1575.88303,810.128906 1575.54319,810.128906 C1574.76975,810.128906 1574.13694,809.873049 1573.64475,809.361328 C1573.15256,808.845701 1572.90647,808.181645 1572.90647,807.369141 C1572.90647,806.501949 1573.176,805.781253 1573.71506,805.207031 C1574.25413,804.63281 1574.93186,804.345703 1575.74827,804.345703 C1576.16624,804.345703 1576.5178,804.417968 1576.80295,804.5625 C1577.09983,804.710938 1577.41037,804.962889 1577.73459,805.318359 L1578.37327,800.103516 L1579.66819,800.103516 Z M1577.53538,807 C1577.53538,806.531248 1577.39085,806.152345 1577.10178,805.863281 C1576.81272,805.574217 1576.43381,805.429688 1575.96506,805.429688 C1575.45725,805.429688 1575.03733,805.619139 1574.7053,805.998047 C1574.37326,806.376955 1574.20725,806.855466 1574.20725,807.433594 C1574.20725,807.921877 1574.34983,808.314452 1574.63498,808.611328 C1574.92014,808.904298 1575.29904,809.050781 1575.7717,809.050781 C1576.26389,809.050781 1576.6799,808.851564 1577.01975,808.453125 C1577.3635,808.062498 1577.53538,807.578128 1577.53538,807 Z M1583.45986,809.361328 C1583.45986,809.56836 1583.37978,809.748046 1583.21963,809.900391 C1583.05947,810.052735 1582.87392,810.128906 1582.66298,810.128906 C1582.44814,810.128906 1582.26455,810.050782 1582.1122,809.894531 C1581.95986,809.73828 1581.88369,809.546876 1581.88369,809.320312 C1581.88369,809.101561 1581.954,808.917969 1582.09463,808.769531 C1582.24306,808.621093 1582.4208,808.546875 1582.62783,808.546875 C1582.8583,808.546875 1583.05361,808.626952 1583.21377,808.787109 C1583.37783,808.947266 1583.45986,809.138671 1583.45986,809.361328 Z" id="TAKAHIRO-FUKUYAMA-20" transform="translate(1417.563914, 806.607422) rotate(-90.000000) translate(-1417.563914, -806.607422) "></path>
        </g>
    </g>
</svg>