<?xml version="1.0" encoding="UTF-8"?>
<svg width="13px" height="311px" viewBox="0 0 13 311" version="1.1" xmlns="http://www.w3.org/2000/svg" xmlns:xlink="http://www.w3.org/1999/xlink">
    <!-- Generator: Sketch 51.3 (57544) - http://www.bohemiancoding.com/sketch -->
    <title>TAKAHIRO FUKUYAMA ©2</title>
    <desc>Created with Sketch.</desc>
    <defs></defs>
    <g id="Page-1" stroke="none" stroke-width="1" fill="none" fill-rule="evenodd">
        <g id="Desktop-HD" transform="translate(-1374.000000, -661.000000)" fill="#000000">
            <path d="M1225.62,812.06 L1225.62,811.1 L1230.96,811.1 L1230.96,812.06 L1228.8,812.06 L1228.8,819.5 L1227.78,819.5 L1227.78,812.06 L1225.62,812.06 Z M1233.426,816.98 L1232.358,819.5 L1231.218,819.5 L1235.118,810.68 L1239.018,819.5 L1237.878,819.5 L1236.81,816.98 L1233.426,816.98 Z M1233.834,816.02 L1236.402,816.02 L1235.118,812.996 L1233.834,816.02 Z M1245.636,811.1 L1246.896,811.1 L1243.26,815.036 L1247.076,819.5 L1245.816,819.5 L1242.336,815.42 L1242.336,819.5 L1241.316,819.5 L1241.316,811.1 L1242.336,811.1 L1242.336,814.712 L1245.636,811.1 Z M1250.682,816.98 L1249.614,819.5 L1248.474,819.5 L1252.374,810.68 L1256.274,819.5 L1255.134,819.5 L1254.066,816.98 L1250.682,816.98 Z M1251.09,816.02 L1253.658,816.02 L1252.374,812.996 L1251.09,816.02 Z M1258.572,811.1 L1259.592,811.1 L1259.592,814.46 L1264.212,814.46 L1264.212,811.1 L1265.232,811.1 L1265.232,819.5 L1264.212,819.5 L1264.212,815.42 L1259.592,815.42 L1259.592,819.5 L1258.572,819.5 L1258.572,811.1 Z M1268.43,811.1 L1269.45,811.1 L1269.45,819.5 L1268.43,819.5 L1268.43,811.1 Z M1273.668,816.14 L1273.668,819.5 L1272.648,819.5 L1272.648,811.1 L1274.928,811.1 C1275.752,811.1 1276.434,811.329998 1276.974,811.79 C1277.514,812.250002 1277.784,812.859996 1277.784,813.62 C1277.784,814.236003 1277.602,814.757998 1277.238,815.186 C1276.874,815.614002 1276.388,815.899999 1275.78,816.044 L1278.288,819.5 L1277.028,819.5 L1274.688,816.14 L1273.668,816.14 Z M1273.668,815.24 L1274.928,815.24 C1275.48,815.24 1275.924,815.096001 1276.26,814.808 C1276.596,814.519999 1276.764,814.124003 1276.764,813.62 C1276.764,813.115997 1276.596,812.720001 1276.26,812.432 C1275.924,812.143999 1275.48,812 1274.928,812 L1273.668,812 L1273.668,815.24 Z M1281.378,818.384 C1280.57,817.559996 1280.166,816.532006 1280.166,815.3 C1280.166,814.067994 1280.57,813.040004 1281.378,812.216 C1282.186,811.391996 1283.20199,810.98 1284.426,810.98 C1285.65001,810.98 1286.666,811.391996 1287.474,812.216 C1288.282,813.040004 1288.686,814.067994 1288.686,815.3 C1288.686,816.532006 1288.282,817.559996 1287.474,818.384 C1286.666,819.208004 1285.65001,819.62 1284.426,819.62 C1283.20199,819.62 1282.186,819.208004 1281.378,818.384 Z M1282.146,812.936 C1281.546,813.560003 1281.246,814.347995 1281.246,815.3 C1281.246,816.252005 1281.546,817.039997 1282.146,817.664 C1282.746,818.288003 1283.506,818.6 1284.426,818.6 C1285.34601,818.6 1286.106,818.288003 1286.706,817.664 C1287.306,817.039997 1287.606,816.252005 1287.606,815.3 C1287.606,814.347995 1287.306,813.560003 1286.706,812.936 C1286.106,812.311997 1285.34601,812 1284.426,812 C1283.506,812 1282.746,812.311997 1282.146,812.936 Z M1297.302,815.42 L1297.302,819.5 L1296.282,819.5 L1296.282,811.1 L1300.602,811.1 L1300.602,812.06 L1297.302,812.06 L1297.302,814.46 L1300.482,814.46 L1300.482,815.42 L1297.302,815.42 Z M1303.5,811.1 L1304.52,811.1 L1304.52,816.74 C1304.52,817.332003 1304.678,817.799998 1304.994,818.144 C1305.31,818.488002 1305.764,818.66 1306.356,818.66 C1306.948,818.66 1307.402,818.488002 1307.718,818.144 C1308.034,817.799998 1308.192,817.332003 1308.192,816.74 L1308.192,811.1 L1309.212,811.1 L1309.212,816.74 C1309.212,817.588004 1308.95,818.279997 1308.426,818.816 C1307.902,819.352003 1307.21201,819.62 1306.356,819.62 C1305.5,819.62 1304.81,819.352003 1304.286,818.816 C1303.762,818.279997 1303.5,817.588004 1303.5,816.74 L1303.5,811.1 Z M1316.67,811.1 L1317.93,811.1 L1314.294,815.036 L1318.11,819.5 L1316.85,819.5 L1313.37,815.42 L1313.37,819.5 L1312.35,819.5 L1312.35,811.1 L1313.37,811.1 L1313.37,814.712 L1316.67,811.1 Z M1320.348,811.1 L1321.368,811.1 L1321.368,816.74 C1321.368,817.332003 1321.526,817.799998 1321.842,818.144 C1322.158,818.488002 1322.612,818.66 1323.204,818.66 C1323.796,818.66 1324.25,818.488002 1324.566,818.144 C1324.882,817.799998 1325.04,817.332003 1325.04,816.74 L1325.04,811.1 L1326.06,811.1 L1326.06,816.74 C1326.06,817.588004 1325.798,818.279997 1325.274,818.816 C1324.75,819.352003 1324.06001,819.62 1323.204,819.62 C1322.348,819.62 1321.658,819.352003 1321.134,818.816 C1320.61,818.279997 1320.348,817.588004 1320.348,816.74 L1320.348,811.1 Z M1333.77,811.1 L1334.91,811.1 L1332.114,815.876 L1332.114,819.5 L1331.094,819.5 L1331.094,815.888 L1328.298,811.1 L1329.438,811.1 L1331.598,814.988 L1333.77,811.1 Z M1337.316,816.98 L1336.248,819.5 L1335.108,819.5 L1339.008,810.68 L1342.908,819.5 L1341.768,819.5 L1340.7,816.98 L1337.316,816.98 Z M1337.724,816.02 L1340.292,816.02 L1339.008,812.996 L1337.724,816.02 Z M1346.37,813.824 L1345.746,819.5 L1344.726,819.5 L1345.746,810.68 L1349.106,816.764 L1352.466,810.68 L1353.486,819.5 L1352.466,819.5 L1351.842,813.824 L1349.106,818.72 L1346.37,813.824 Z M1357.512,816.98 L1356.444,819.5 L1355.304,819.5 L1359.204,810.68 L1363.104,819.5 L1361.964,819.5 L1360.896,816.98 L1357.512,816.98 Z M1357.92,816.02 L1360.488,816.02 L1359.204,812.996 L1357.92,816.02 Z M1371.036,818.396 C1370.212,817.579996 1369.8,816.548006 1369.8,815.3 C1369.8,814.051994 1370.212,813.020004 1371.036,812.204 C1371.86001,811.387996 1372.888,810.98 1374.12,810.98 C1375.35201,810.98 1376.38,811.387996 1377.204,812.204 C1378.02801,813.020004 1378.44,814.051994 1378.44,815.3 C1378.44,816.548006 1378.02801,817.579996 1377.204,818.396 C1376.38,819.212004 1375.35201,819.62 1374.12,819.62 C1372.888,819.62 1371.86001,819.212004 1371.036,818.396 Z M1371.504,812.648 C1370.808,813.352004 1370.46,814.235995 1370.46,815.3 C1370.46,816.364005 1370.81,817.249996 1371.51,817.958 C1372.21001,818.666004 1373.08,819.02 1374.12,819.02 C1375.16001,819.02 1376.03,818.666004 1376.73,817.958 C1377.43001,817.249996 1377.78,816.364005 1377.78,815.3 C1377.78,814.235995 1377.43001,813.350004 1376.73,812.642 C1376.03,811.933996 1375.16001,811.58 1374.12,811.58 C1373.08,811.58 1372.20801,811.935996 1371.504,812.648 Z M1372.716,813.872 C1372.364,814.240002 1372.188,814.715997 1372.188,815.3 C1372.188,815.884003 1372.366,816.359998 1372.722,816.728 C1373.078,817.096002 1373.524,817.28 1374.06,817.28 C1374.74801,817.28 1375.288,817.032002 1375.68,816.536 L1375.68,817.34 C1375.264,817.708002 1374.72401,817.892 1374.06,817.892 C1373.356,817.892 1372.76,817.646002 1372.272,817.154 C1371.784,816.661998 1371.54,816.044004 1371.54,815.3 C1371.54,814.555996 1371.784,813.938002 1372.272,813.446 C1372.76,812.953998 1373.356,812.708 1374.06,812.708 C1374.72401,812.708 1375.264,812.891998 1375.68,813.26 L1375.68,814.064 C1375.288,813.567998 1374.74801,813.32 1374.06,813.32 C1373.524,813.32 1373.076,813.503998 1372.716,813.872 Z M1380.438,819.5 L1384.41,815.264 C1384.99401,814.639997 1385.286,814.028003 1385.286,813.428 C1385.286,813.027998 1385.152,812.678002 1384.884,812.378 C1384.616,812.077999 1384.242,811.928 1383.762,811.928 C1383.218,811.928 1382.778,812.111998 1382.442,812.48 C1382.106,812.848002 1381.938,813.347997 1381.938,813.98 L1380.918,813.98 C1380.918,813.075995 1381.176,812.348003 1381.692,811.796 C1382.208,811.243997 1382.898,810.968 1383.762,810.968 C1384.202,810.968 1384.594,811.045999 1384.938,811.202 C1385.282,811.358001 1385.552,811.563999 1385.748,811.82 C1385.944,812.076001 1386.09,812.347999 1386.186,812.636 C1386.282,812.924001 1386.33,813.215999 1386.33,813.512 C1386.33,814.288004 1385.95801,815.055996 1385.214,815.816 L1382.538,818.54 L1386.366,818.54 L1386.366,819.5 L1380.438,819.5 Z M1389.648,818.408 C1389.072,817.599996 1388.784,816.564006 1388.784,815.3 C1388.784,814.035994 1389.074,813.000004 1389.654,812.192 C1390.23401,811.383996 1390.984,810.98 1391.904,810.98 C1392.82401,810.98 1393.574,811.383996 1394.154,812.192 C1394.73401,813.000004 1395.024,814.035994 1395.024,815.3 C1395.024,816.564006 1394.73401,817.599996 1394.154,818.408 C1393.574,819.216004 1392.82401,819.62 1391.904,819.62 C1390.984,819.62 1390.23201,819.216004 1389.648,818.408 Z M1390.368,812.876 C1389.992,813.500003 1389.804,814.307995 1389.804,815.3 C1389.804,816.292005 1389.994,817.099997 1390.374,817.724 C1390.754,818.348003 1391.264,818.66 1391.904,818.66 C1392.54401,818.66 1393.054,818.348003 1393.434,817.724 C1393.814,817.099997 1394.004,816.292005 1394.004,815.3 C1394.004,814.307995 1393.814,813.500003 1393.434,812.876 C1393.054,812.251997 1392.54401,811.94 1391.904,811.94 C1391.264,811.94 1390.752,812.251997 1390.368,812.876 Z M1397.742,812.756 L1397.742,811.7 L1400.622,810.98 L1400.622,819.5 L1399.602,819.5 L1399.602,812.204 L1397.742,812.756 Z M1406.412,819.5 L1405.128,819.5 L1407.492,816.392 C1407.276,816.520001 1406.96,816.584 1406.544,816.584 C1405.856,816.584 1405.27,816.322003 1404.786,815.798 C1404.302,815.273997 1404.06,814.628004 1404.06,813.86 C1404.06,813.003996 1404.33,812.310003 1404.87,811.778 C1405.41001,811.245997 1406.092,810.98 1406.916,810.98 C1407.74001,810.98 1408.422,811.245997 1408.962,811.778 C1409.50201,812.310003 1409.772,813.003996 1409.772,813.86 C1409.772,814.540003 1409.596,815.119998 1409.244,815.6 L1406.412,819.5 Z M1408.26,815.288 C1408.62,814.911998 1408.8,814.436003 1408.8,813.86 C1408.8,813.283997 1408.622,812.814002 1408.266,812.45 C1407.91,812.085998 1407.46001,811.904 1406.916,811.904 C1406.372,811.904 1405.922,812.085998 1405.566,812.45 C1405.21,812.814002 1405.032,813.283997 1405.032,813.86 C1405.032,814.436003 1405.21,814.909998 1405.566,815.282 C1405.922,815.654002 1406.372,815.84 1406.916,815.84 C1407.46001,815.84 1407.908,815.656002 1408.26,815.288 Z M1418.796,816.98 L1417.728,819.5 L1416.588,819.5 L1420.488,810.68 L1424.388,819.5 L1423.248,819.5 L1422.18,816.98 L1418.796,816.98 Z M1419.204,816.02 L1421.772,816.02 L1420.488,812.996 L1419.204,816.02 Z M1426.626,810.14 L1427.586,810.14 L1427.586,819.5 L1426.626,819.5 L1426.626,810.14 Z M1430.664,810.14 L1431.624,810.14 L1431.624,819.5 L1430.664,819.5 L1430.664,810.14 Z M1442.208,815.036 C1441.952,814.851999 1441.704,814.76 1441.464,814.76 C1440.848,814.76 1440.54,815.219995 1440.54,816.14 L1440.54,819.5 L1439.58,819.5 L1439.58,813.98 L1440.54,813.98 L1440.54,814.616 C1440.876,814.111997 1441.264,813.86 1441.704,813.86 C1442.14401,813.86 1442.488,813.987999 1442.736,814.244 L1442.208,815.036 Z M1445.154,813.98 L1446.114,813.98 L1446.114,819.5 L1445.154,819.5 L1445.154,813.98 Z M1445.166,812.168 C1445.038,812.031999 1444.974,811.876001 1444.974,811.7 C1444.974,811.523999 1445.04,811.370001 1445.172,811.238 C1445.304,811.105999 1445.458,811.04 1445.634,811.04 C1445.81,811.04 1445.964,811.105999 1446.096,811.238 C1446.228,811.370001 1446.294,811.523999 1446.294,811.7 C1446.294,811.876001 1446.228,812.029999 1446.096,812.162 C1445.964,812.294001 1445.81,812.36 1445.634,812.36 C1445.458,812.36 1445.302,812.296001 1445.166,812.168 Z M1450.404,815.288 C1450.044,815.640002 1449.864,816.123997 1449.864,816.74 C1449.864,817.356003 1450.044,817.839998 1450.404,818.192 C1450.76401,818.544002 1451.212,818.72 1451.748,818.72 C1452.20401,818.72 1452.612,818.540002 1452.972,818.18 C1453.33201,817.819998 1453.512,817.340003 1453.512,816.74 C1453.512,816.139997 1453.33201,815.660002 1452.972,815.3 C1452.612,814.939998 1452.20401,814.76 1451.748,814.76 C1451.212,814.76 1450.76401,814.935998 1450.404,815.288 Z M1449.672,818.84 C1449.152,818.311997 1448.892,817.612004 1448.892,816.74 C1448.892,815.867996 1449.154,815.170003 1449.678,814.646 C1450.20201,814.121997 1450.852,813.86 1451.628,813.86 C1452.46001,813.86 1453.088,814.215996 1453.512,814.928 L1453.512,813.98 L1454.472,813.98 L1454.472,819.38 C1454.472,820.284005 1454.20201,820.989997 1453.662,821.498 C1453.122,822.006003 1452.48001,822.26 1451.736,822.26 C1450.928,822.26 1450.27001,822.038002 1449.762,821.594 C1449.254,821.149998 1449,820.572004 1449,819.86 L1449.972,819.86 C1449.972,820.268002 1450.136,820.619999 1450.464,820.916 C1450.79201,821.212001 1451.216,821.36 1451.736,821.36 C1452.20801,821.36 1452.622,821.192002 1452.978,820.856 C1453.33401,820.519998 1453.512,820.028003 1453.512,819.38 L1453.512,818.552 C1453.088,819.264004 1452.46001,819.62 1451.628,819.62 C1450.852,819.62 1450.20001,819.360003 1449.672,818.84 Z M1461.03,816.14 C1461.03,815.219995 1460.63801,814.76 1459.854,814.76 C1459.438,814.76 1459.1,814.889999 1458.84,815.15 C1458.58,815.410001 1458.45,815.739998 1458.45,816.14 L1458.45,819.5 L1457.49,819.5 L1457.49,810.14 L1458.45,810.14 L1458.45,814.856 C1458.81801,814.191997 1459.366,813.86 1460.094,813.86 C1460.67801,813.86 1461.14,814.045998 1461.48,814.418 C1461.82001,814.790002 1461.99,815.323997 1461.99,816.02 L1461.99,819.5 L1461.03,819.5 L1461.03,816.14 Z M1465.128,812.06 L1466.088,812.06 L1466.088,813.98 L1466.988,813.98 L1466.988,814.88 L1466.088,814.88 L1466.088,819.5 L1465.128,819.5 L1465.128,814.88 L1464.228,814.88 L1464.228,813.98 L1465.128,813.98 L1465.128,812.06 Z M1469.418,817.568 C1469.49,817.904002 1469.66,818.179999 1469.928,818.396 C1470.19601,818.612001 1470.502,818.72 1470.846,818.72 C1471.48601,818.72 1471.806,818.488002 1471.806,818.024 C1471.806,817.879999 1471.774,817.752001 1471.71,817.64 C1471.646,817.527999 1471.544,817.426 1471.404,817.334 C1471.264,817.242 1471.14,817.17 1471.032,817.118 C1470.924,817.066 1470.766,817 1470.558,816.92 C1470.326,816.824 1470.134,816.738 1469.982,816.662 C1469.83,816.586 1469.668,816.484001 1469.496,816.356 C1469.324,816.227999 1469.194,816.076001 1469.106,815.9 C1469.018,815.723999 1468.974,815.528001 1468.974,815.312 C1468.974,814.879998 1469.154,814.530001 1469.514,814.262 C1469.87401,813.993999 1470.29,813.86 1470.762,813.86 C1471.20201,813.86 1471.618,813.963999 1472.01,814.172 C1472.40201,814.380001 1472.65,814.635998 1472.754,814.94 L1471.986,815.432 C1471.85,815.239999 1471.668,815.082001 1471.44,814.958 C1471.212,814.833999 1470.99,814.772 1470.774,814.772 C1470.214,814.772 1469.934,814.971998 1469.934,815.372 C1469.934,815.42 1469.942,815.466 1469.958,815.51 C1469.974,815.554 1470,815.596 1470.036,815.636 C1470.072,815.676 1470.108,815.714 1470.144,815.75 C1470.18,815.786 1470.232,815.824 1470.3,815.864 C1470.368,815.904 1470.422,815.936 1470.462,815.96 C1470.502,815.984 1470.568,816.014 1470.66,816.05 C1470.752,816.086 1470.818,816.114 1470.858,816.134 C1470.898,816.154 1470.97,816.184 1471.074,816.224 C1471.178,816.264 1471.246,816.292 1471.278,816.308 C1472.29401,816.732002 1472.802,817.275997 1472.802,817.94 C1472.802,818.508003 1472.62201,818.929999 1472.262,819.206 C1471.902,819.482001 1471.41001,819.62 1470.786,819.62 C1470.274,819.62 1469.80601,819.466002 1469.382,819.158 C1468.958,818.849998 1468.706,818.472002 1468.626,818.024 L1469.418,817.568 Z M1482.846,815.036 C1482.59,814.851999 1482.34201,814.76 1482.102,814.76 C1481.486,814.76 1481.178,815.219995 1481.178,816.14 L1481.178,819.5 L1480.218,819.5 L1480.218,813.98 L1481.178,813.98 L1481.178,814.616 C1481.51401,814.111997 1481.902,813.86 1482.342,813.86 C1482.78201,813.86 1483.126,813.987999 1483.374,814.244 L1482.846,815.036 Z M1484.952,816.74 C1484.952,815.883996 1485.208,815.190003 1485.72,814.658 C1486.23201,814.125997 1486.888,813.86 1487.688,813.86 C1488.47201,813.86 1489.102,814.115997 1489.578,814.628 C1490.05401,815.140003 1490.292,815.827996 1490.292,816.692 C1490.292,816.820001 1490.288,816.916 1490.28,816.98 L1485.936,816.98 C1485.976,817.532003 1486.152,817.959998 1486.464,818.264 C1486.77601,818.568002 1487.184,818.72 1487.688,818.72 C1488.43201,818.72 1489.008,818.388003 1489.416,817.724 L1490.196,818.216 C1489.892,818.688002 1489.54401,819.039999 1489.152,819.272 C1488.76,819.504001 1488.23201,819.62 1487.568,819.62 C1486.816,819.62 1486.19201,819.348003 1485.696,818.804 C1485.2,818.259997 1484.952,817.572004 1484.952,816.74 Z M1489.248,816.164 C1489.2,815.715998 1489.04401,815.360001 1488.78,815.096 C1488.516,814.831999 1488.15201,814.7 1487.688,814.7 C1487.232,814.7 1486.84201,814.833999 1486.518,815.102 C1486.194,815.370001 1486.008,815.723998 1485.96,816.164 L1489.248,816.164 Z M1493.082,817.568 C1493.154,817.904002 1493.324,818.179999 1493.592,818.396 C1493.86001,818.612001 1494.166,818.72 1494.51,818.72 C1495.15001,818.72 1495.47,818.488002 1495.47,818.024 C1495.47,817.879999 1495.438,817.752001 1495.374,817.64 C1495.31,817.527999 1495.20801,817.426 1495.068,817.334 C1494.928,817.242 1494.804,817.17 1494.696,817.118 C1494.588,817.066 1494.43001,817 1494.222,816.92 C1493.99,816.824 1493.79801,816.738 1493.646,816.662 C1493.494,816.586 1493.33201,816.484001 1493.16,816.356 C1492.988,816.227999 1492.858,816.076001 1492.77,815.9 C1492.682,815.723999 1492.638,815.528001 1492.638,815.312 C1492.638,814.879998 1492.818,814.530001 1493.178,814.262 C1493.53801,813.993999 1493.954,813.86 1494.426,813.86 C1494.86601,813.86 1495.282,813.963999 1495.674,814.172 C1496.06601,814.380001 1496.314,814.635998 1496.418,814.94 L1495.65,815.432 C1495.514,815.239999 1495.33201,815.082001 1495.104,814.958 C1494.876,814.833999 1494.65401,814.772 1494.438,814.772 C1493.878,814.772 1493.598,814.971998 1493.598,815.372 C1493.598,815.42 1493.606,815.466 1493.622,815.51 C1493.638,815.554 1493.664,815.596 1493.7,815.636 C1493.736,815.676 1493.772,815.714 1493.808,815.75 C1493.844,815.786 1493.896,815.824 1493.964,815.864 C1494.032,815.904 1494.086,815.936 1494.126,815.96 C1494.166,815.984 1494.232,816.014 1494.324,816.05 C1494.416,816.086 1494.482,816.114 1494.522,816.134 C1494.562,816.154 1494.634,816.184 1494.738,816.224 C1494.842,816.264 1494.91,816.292 1494.942,816.308 C1495.95801,816.732002 1496.466,817.275997 1496.466,817.94 C1496.466,818.508003 1496.28601,818.929999 1495.926,819.206 C1495.566,819.482001 1495.07401,819.62 1494.45,819.62 C1493.938,819.62 1493.47001,819.466002 1493.046,819.158 C1492.622,818.849998 1492.37,818.472002 1492.29,818.024 L1493.082,817.568 Z M1498.524,816.74 C1498.524,815.883996 1498.78,815.190003 1499.292,814.658 C1499.80401,814.125997 1500.46,813.86 1501.26,813.86 C1502.04401,813.86 1502.674,814.115997 1503.15,814.628 C1503.62601,815.140003 1503.864,815.827996 1503.864,816.692 C1503.864,816.820001 1503.86,816.916 1503.852,816.98 L1499.508,816.98 C1499.548,817.532003 1499.724,817.959998 1500.036,818.264 C1500.34801,818.568002 1500.756,818.72 1501.26,818.72 C1502.00401,818.72 1502.58,818.388003 1502.988,817.724 L1503.768,818.216 C1503.464,818.688002 1503.11601,819.039999 1502.724,819.272 C1502.332,819.504001 1501.80401,819.62 1501.14,819.62 C1500.388,819.62 1499.76401,819.348003 1499.268,818.804 C1498.772,818.259997 1498.524,817.572004 1498.524,816.74 Z M1502.82,816.164 C1502.772,815.715998 1502.61601,815.360001 1502.352,815.096 C1502.088,814.831999 1501.72401,814.7 1501.26,814.7 C1500.804,814.7 1500.41401,814.833999 1500.09,815.102 C1499.766,815.370001 1499.58,815.723998 1499.532,816.164 L1502.82,816.164 Z M1509.09,815.036 C1508.834,814.851999 1508.58601,814.76 1508.346,814.76 C1507.73,814.76 1507.422,815.219995 1507.422,816.14 L1507.422,819.5 L1506.462,819.5 L1506.462,813.98 L1507.422,813.98 L1507.422,814.616 C1507.75801,814.111997 1508.146,813.86 1508.586,813.86 C1509.02601,813.86 1509.37,813.987999 1509.618,814.244 L1509.09,815.036 Z M1511.316,813.98 L1512.396,813.98 L1513.956,817.88 L1515.516,813.98 L1516.596,813.98 L1513.956,819.92 L1511.316,813.98 Z M1518.114,816.74 C1518.114,815.883996 1518.37,815.190003 1518.882,814.658 C1519.39401,814.125997 1520.05,813.86 1520.85,813.86 C1521.63401,813.86 1522.264,814.115997 1522.74,814.628 C1523.21601,815.140003 1523.454,815.827996 1523.454,816.692 C1523.454,816.820001 1523.45,816.916 1523.442,816.98 L1519.098,816.98 C1519.138,817.532003 1519.314,817.959998 1519.626,818.264 C1519.93801,818.568002 1520.346,818.72 1520.85,818.72 C1521.59401,818.72 1522.17,818.388003 1522.578,817.724 L1523.358,818.216 C1523.054,818.688002 1522.70601,819.039999 1522.314,819.272 C1521.922,819.504001 1521.39401,819.62 1520.73,819.62 C1519.978,819.62 1519.35401,819.348003 1518.858,818.804 C1518.362,818.259997 1518.114,817.572004 1518.114,816.74 Z M1522.41,816.164 C1522.362,815.715998 1522.20601,815.360001 1521.942,815.096 C1521.678,814.831999 1521.31401,814.7 1520.85,814.7 C1520.394,814.7 1520.00401,814.833999 1519.68,815.102 C1519.356,815.370001 1519.17001,815.723998 1519.122,816.164 L1522.41,816.164 Z M1527.084,815.288 C1526.724,815.640002 1526.544,816.123997 1526.544,816.74 C1526.544,817.356003 1526.724,817.839998 1527.084,818.192 C1527.44401,818.544002 1527.892,818.72 1528.428,818.72 C1528.88401,818.72 1529.292,818.540002 1529.652,818.18 C1530.01201,817.819998 1530.192,817.340003 1530.192,816.74 C1530.192,816.139997 1530.01201,815.660002 1529.652,815.3 C1529.292,814.939998 1528.88401,814.76 1528.428,814.76 C1527.892,814.76 1527.44401,814.935998 1527.084,815.288 Z M1526.352,818.84 C1525.832,818.311997 1525.572,817.612004 1525.572,816.74 C1525.572,815.867996 1525.834,815.170003 1526.358,814.646 C1526.88201,814.121997 1527.532,813.86 1528.308,813.86 C1529.14001,813.86 1529.768,814.215996 1530.192,814.928 L1530.192,810.14 L1531.152,810.14 L1531.152,819.5 L1530.192,819.5 L1530.192,818.552 C1529.768,819.264004 1529.14001,819.62 1528.308,819.62 C1527.532,819.62 1526.88001,819.360003 1526.352,818.84 Z M1534.60201,819.488 C1534.474,819.351999 1534.41001,819.196001 1534.41001,819.02 C1534.41001,818.843999 1534.476,818.690001 1534.60801,818.558 C1534.74001,818.425999 1534.894,818.36 1535.07001,818.36 C1535.24601,818.36 1535.4,818.425999 1535.53201,818.558 C1535.66401,818.690001 1535.73001,818.843999 1535.73001,819.02 C1535.73001,819.196001 1535.66401,819.349999 1535.53201,819.482 C1535.4,819.614001 1535.24601,819.68 1535.07001,819.68 C1534.894,819.68 1534.73801,819.616001 1534.60201,819.488 Z" id="TAKAHIRO-FUKUYAMA-©2" transform="translate(1380.675003, 816.200000) rotate(-90.000000) translate(-1380.675003, -816.200000) "></path>
        </g>
    </g>
</svg>