<svg xmlns="http://www.w3.org/2000/svg" viewBox="0 0 372.27 42.16"><defs><style>.cls-1{fill:#fff;}</style></defs><title>アセット 2</title><g id="レイヤー_2" data-name="レイヤー 2"><g id="レイヤー_1-2" data-name="レイヤー 1"><path class="cls-1" d="M36.19,1.94l-1,1.88a1.64,1.64,0,0,1-1.52,1h-8c-2.63,5-6.87,13-7.89,14.79-5.08,9-9.83,10.7-14.25,10.7-7,0-3.77-11.92,10.76-13.66,1.58-2.87,4.39-8.15,6.33-11.83H11.84a.64.64,0,0,1-.57-.33.65.65,0,0,1,0-.66l1.13-2.27A1.26,1.26,0,0,1,13.51.81h22a.79.79,0,0,1,.66.38A.75.75,0,0,1,36.19,1.94ZM12.88,19.18C5.17,20.62,1.41,27,4.1,27,6,27,9.24,25.16,12.88,19.18Z"/><path class="cls-1" d="M48.47,14c-.84.87-10.7,10.79-13.09,13.06-2.57,2.45-4.21,3.17-5.47,3.17-1.67,0-2.57-1-1.76-3.23-1.77,1.77-3.89,3.23-5.95,3.23-4.06,0-5.29-4.78-1.05-11.24s8.07-8.6,10.7-8.6c1.71,0,3,1.58,3.32,3.34,1-1.94,1.76-3.31,1.76-3.31l4.75,0s-4.27,8-5.55,10.37c-.45.8-1.26,2.45-1,2.69s1-.39,1.73-1c1.17-1,10.19-9.56,11.3-10.73C48.73,11.12,48.76,13.71,48.47,14ZM31.79,19.69c1.94-3.23,2.24-5.86.72-5.86s-4.36,2.63-6.31,5.86-2.21,5.86-.68,5.86S29.88,22.92,31.79,19.69Z"/><path class="cls-1" d="M58.92,14c-.84.87-10.7,10.79-13.09,13.06-2.6,2.45-4.21,3.17-5.47,3.17-2,0-2.86-1.44-1.16-4.54,1.22-2.24,8.19-15.27,8.19-15.27l4.75,0s-4.28,8-5.56,10.37c-.45.8-1.26,2.45-1,2.69s1-.39,1.74-1c1.13-1,10.19-9.56,11.29-10.73C59.16,11.12,59.22,13.71,58.92,14ZM49.54,3.32A5.84,5.84,0,0,1,54.32,0C56.17,0,57,1.49,56.17,3.32A5.79,5.79,0,0,1,51.39,6.6C49.57,6.6,48.73,5.14,49.54,3.32Z"/><path class="cls-1" d="M80.28,14c-.83.87-10.67,10.79-13.09,13.06-2.57,2.45-4.24,3.17-5.46,3.17-2,0-2.84-1.44-1.17-4.54,1.23-2.24,3.2-5.83.48-5.83-1.73,0-6.1,3.2-10,10.37H46.34L62.14.81h4.73l-8.07,15,7.74-5.38,6.21,0-9,5.68h.48c2.84,0,5,3.1,2.69,7.38.23.27,1-.39,1.7-1,1.16-1,10.19-9.56,11.29-10.73C80.55,11.12,80.58,13.71,80.28,14Z"/><path class="cls-1" d="M72.18,30.27c-2,0-2.87-1.44-1.17-4.54,1.23-2.24,8.19-15.27,8.19-15.27l4.75,0s-4.27,8-5.56,10.37C76,25.13,76,27.49,77.65,27.1,75.05,29.55,73.44,30.27,72.18,30.27ZM81.35,3.32A5.86,5.86,0,0,1,86.13,0C88,0,88.79,1.49,88,3.32A5.79,5.79,0,0,1,83.21,6.6C81.38,6.6,80.55,5.14,81.35,3.32Z"/><path class="cls-1" d="M134.45,14c-.84.87-10.7,10.79-13.09,13.06-2.57,2.45-4.21,3.17-5.47,3.17-2,0-2.87-1.44-1.16-4.54.38-.69,1.76-3.26,3.49-6.49-2-.09-5.11-.18-7.56-.27-.12.24-.24.45-.33.6-5.08,9-9.53,10.67-14,10.67-7,0-3.77-11.92,10.76-13.63,2.54-4.69,8.42-15.8,8.42-15.8h4.72S115,10.94,112,16.43h7.68L128.05.81h4.72s-9.38,17.57-10.66,20c-.45.8-1.26,2.45-1,2.69s1-.39,1.73-1c1.17-1,10.19-9.56,11.3-10.73C134.72,11.12,134.75,13.71,134.45,14ZM105.7,19.15C98,20.62,94.23,27,96.92,27,98.77,27,102.06,25.16,105.7,19.15Z"/><path class="cls-1" d="M154.22,14c-.84.87-10.7,10.79-13.09,13.06-2.57,2.45-4.21,3.17-5.47,3.17-1.67,0-2.56-1-1.76-3.23-1.76,1.77-3.88,3.23-5.94,3.23-4.07,0-5.29-4.78-1-11.24s8.07-8.6,10.7-8.6c1.7,0,3,1.58,3.31,3.34,1.05-1.94,1.77-3.31,1.77-3.31l4.75,0s-4.28,8-5.56,10.37c-.45.8-1.25,2.45-1,2.69s1-.39,1.74-1c1.16-1,10.19-9.56,11.29-10.73C154.49,11.12,154.52,13.71,154.22,14Zm-16.67,5.65c1.94-3.23,2.24-5.86.71-5.86s-4.36,2.63-6.3,5.86-2.21,5.86-.69,5.86S135.64,22.92,137.55,19.69Z"/><path class="cls-1" d="M175.61,14c-.84.87-10.67,10.79-13.06,13.06-2.6,2.45-4.24,3.17-5.47,3.17-2,0-2.86-1.44-1.16-4.54,1.22-2.24,2.09-4,3.47-6.49,1.22-2.3,1.61-3.61.59-3.61-1.73,0-9.71,7.47-13.59,14.64l.06-.09-.06.09h-4.72L152.3,10.46H157l-4.87,9.08c6-7.83,10.33-9.11,11.74-9.11,2.33,0,4.15,1.31,1.88,5.65-.72,1.4-1.2,2.3-2.51,4.72-.42.8-1.22,2.45-1,2.69s1-.39,1.71-1c1.16-1,10.22-9.56,11.32-10.73C175.88,11.12,175.94,13.71,175.61,14Z"/><path class="cls-1" d="M195.39,14c-.84.87-10.7,10.79-13.09,13.06-2.57,2.45-4.21,3.17-5.47,3.17-1.67,0-2.57-1-1.76-3.23-1.76,1.77-3.89,3.23-5.95,3.23-4.06,0-5.29-4.78-1-11.24s8.06-8.6,10.69-8.6c1.71,0,3,1.58,3.32,3.34,1-1.94,1.76-3.31,1.76-3.31l4.75,0s-4.27,8-5.55,10.37c-.45.8-1.26,2.45-1,2.69s1-.39,1.73-1c1.17-1,10.19-9.56,11.3-10.73C195.66,11.12,195.69,13.71,195.39,14Zm-16.68,5.65c1.95-3.23,2.25-5.86.72-5.86s-4.36,2.63-6.3,5.86-2.22,5.86-.69,5.86S176.8,22.92,178.71,19.69Z"/><path class="cls-1" d="M212.59,14c-.26.3-6.66,8.13-11.29,7.38-.3.54-.63,1.08-1,1.65-3.25,4.87-6.78,7.2-10.07,7.2-4.06,0-6.18-4.6-2.24-11.24s8.07-8.6,10.73-8.6c.54,0,.72.63.78,1.34a3.24,3.24,0,0,1,2.27-1.19c1.64,0,2,2.51,1.7,4.57a14.83,14.83,0,0,1-.72,3c2.78.51,7.71-4.63,8.4-5.53S212.89,13.71,212.59,14ZM198.4,19.3a5.75,5.75,0,0,1-.39-5,16.2,16.2,0,0,0-4.93,5.41c-1.91,3.23-2.24,5.86-.68,5.86C194.43,25.55,196.85,22.2,198.4,19.3Z"/><path class="cls-1" d="M234.31,14c-.83.87-10.66,10.79-13.08,13.06-2.57,2.45-4.25,3.17-5.47,3.17-2,0-2.84-1.44-1.17-4.54,1.23-2.24,3.2-5.83.48-5.83-1.73,0-6.09,3.2-10,10.37h-4.72L216.18.81h4.72l-8.07,15,7.74-5.38,6.21,0-9,5.68h.48c2.84,0,5,3.1,2.69,7.38.24.27.95-.39,1.7-1,1.17-1,10.19-9.56,11.3-10.73C234.58,11.12,234.61,13.71,234.31,14Z"/><path class="cls-1" d="M235.53,30.27c-1.67,0-2.57-1-1.76-3.23-1.76,1.77-3.88,3.23-6,3.23-4.06,0-5.28-4.78-1-11.24s8.07-8.6,10.7-8.6c1.7,0,3,1.58,3.31,3.34,1.05-1.94,1.77-3.31,1.77-3.31l4.75,0s-4.28,8-5.56,10.37c-2.42,4.33-2.3,6.57-.75,6.3C238.43,29.55,236.79,30.27,235.53,30.27Zm1.89-10.58c1.94-3.23,2.24-5.86.71-5.86s-4.36,2.63-6.3,5.86-2.21,5.86-.69,5.86S235.5,22.92,237.42,19.69Z"/><path class="cls-1" d="M291.58,18.08c-5.08,9.8-11.44,12.19-15.27,12.19-4.87,0-6.45-2.3-6.78-4.75-3.46,3.85-6.66,4.75-9.86,4.75-7,0-4.36-11.92,10.16-13.66C272.37,12,278.26.81,278.26.81h5.31s-.5,1-1.31,2.51c1.7-1.26,3.89-2.51,6-2.51C294.45.81,296.66,8.28,291.58,18.08Zm-23.18,1.1c-7.71,1.44-10.88,7.77-8.19,7.77C262.06,27,264.75,25.16,268.4,19.18ZM286,3.82c-2.34,0-5,2.63-6,3.77-2.51,4.75-5.56,10.52-6.39,12-.27.51-.57,1-.84,1.44-1.26,3,.6,5,2.87,5,3.4,0,7.08-3.23,11-10.37S289.55,3.82,286,3.82Z"/><path class="cls-1" d="M317.66,13.92c-4.39,7.15-11.92,16.35-19.3,16.35s-8.82-5.65-4.72-12.19c3.34-5.32,7.44-7.65,10.07-7.65,4.33,0,7,4.12,2.75,9.47-2.57,3.2-5.53,4.6-8.13,3.8a3.65,3.65,0,0,1-1.58-.9c-.51,2.39.53,3.91,3.1,3.91,5.14,0,11.57-7,17.3-15C317.63,11.06,317.9,13.54,317.66,13.92Zm-19.6,5.77a3,3,0,0,1-.24.42c1.47,1.13,3.14,0,4.54-1.17,1.92-1.61,3.53-5.11,2-5.11S300,16.43,298.06,19.69Z"/><path class="cls-1" d="M330.48,13.74c-2.69,4-8.58,8.43-12.46,10.31-2,5.23-5.08,6.22-8.13,6.22-1.85,0-4.48-.6-4-3.2.36-2.06,3.89-2.75,7.71-3.76a27.37,27.37,0,0,0,.81-3.38c.84-4.69,1.14-10.52,6.37-10.88s-.27,4.34-.27,4.34l-1.2,6a19.54,19.54,0,0,1-.48,2.12c3.14-1.4,7-4.09,11.39-9.77C330.93,11.12,330.72,13.36,330.48,13.74ZM311.23,27.55c.36-.48.75-.9,1.14-1.49-1.73.53-3.05,1-3.17,1.64C309,28.81,310.49,28.57,311.23,27.55Z"/><path class="cls-1" d="M340.63,14c-.83.87-10.69,10.79-13.08,13.06-2.6,2.45-4.22,3.17-5.47,3.17-2,0-2.87-1.44-1.17-4.54,1.23-2.24,8.19-15.27,8.19-15.27l4.75,0s-4.27,8-5.56,10.37c-.45.8-1.25,2.45-1,2.69s1-.39,1.73-1c1.14-1,10.19-9.56,11.29-10.73C340.87,11.12,340.93,13.71,340.63,14ZM331.25,3.32A5.86,5.86,0,0,1,336,0c1.85,0,2.66,1.49,1.85,3.32A5.76,5.76,0,0,1,333.1,6.6C331.28,6.6,330.45,5.14,331.25,3.32Z"/><path class="cls-1" d="M359.67,14a113.17,113.17,0,0,1-16.11,13.87c-2,3.7-3.61,6.78-4.12,7.65-2.48,4.21-4,6.6-7.83,6.6-1.85,0-4.6-1.31-4.6-3.94,0-3.41,4.93-4.75,11-8.34l1.62-3.08c-1.83,1.89-4,3.47-6.22,3.47-4.06,0-5.29-4.78-1-11.24s8.06-8.6,10.72-8.6c1.74,0,3,1.61,3.32,3.4l1.76-3.4h4.72s-3.82,7.29-7.44,14c4.72-4,10.34-9.29,13.93-12.76C359.94,11.15,360,13.71,359.67,14Zm-23.4,19.07c-3.56,2.54-5.8,4.39-5.8,5.76,0,1,.54,1.29,1.17,1.29,1.22,0,2.06-2.18,3.61-5.08ZM343,19.69c1.94-3.23,2.24-5.86.69-5.86s-4.33,2.63-6.28,5.86-2.24,5.86-.68,5.86S341.08,22.92,343,19.69Z"/><path class="cls-1" d="M362.53,30.27c-2,0-2.87-1.44-1.16-4.54,1.22-2.24,2.09-4,3.46-6.49,1.23-2.3,1.61-3.61.6-3.61-1.73,0-9.71,7.47-13.6,14.64l.06-.09-.06.09h-4.72l10.64-19.81h4.72l-4.87,9.08c6-7.83,10.34-9.11,11.74-9.11,2.33,0,4.16,1.31,1.89,5.65-.72,1.4-1.2,2.3-2.51,4.72-2.28,4.39-2.22,5.76-.72,6.3C365.4,29.55,363.76,30.27,362.53,30.27Z"/></g></g></svg>