<?xml version="1.0" encoding="UTF-8"?>
<svg width="572px" height="40px" viewBox="0 0 572 40" version="1.1" xmlns="http://www.w3.org/2000/svg" xmlns:xlink="http://www.w3.org/1999/xlink">
    <!-- Generator: Sketch 51.3 (57544) - http://www.bohemiancoding.com/sketch -->
    <title>アセット 7 copy</title>
    <desc>Created with Sketch.</desc>
    <defs></defs>
    <g id="Symbols" stroke="none" stroke-width="1" fill="none" fill-rule="evenodd">
        <g id="アセット-7-copy" fill-rule="nonzero">
            <polygon id="Shape" fill="#000000" points="25.8285714 0.501587302 25.8285714 3.04126984 14.1269841 3.04126984 14.1269841 39.4793651 11.6952381 39.4793651 11.6952381 3.01587302 0 3.01587302 0 0.476190476"></polygon>
            <path d="M48.8,0.222222222 L63.2190476,39.4793651 L60.6793651,39.4793651 L55.7587302,26.031746 L40.5206349,26.031746 L35.5936508,39.4793651 L33.0539683,39.4793651 L47.4793651,0.222222222 L48.8,0.222222222 Z M54.8380952,23.4920635 L48.1206349,5.13650794 L41.4222222,23.4920635 L54.8380952,23.4920635 Z" id="Shape" fill="#000000"></path>
            <polygon id="Shape" fill="#000000" points="94.0952381 0.501587302 79.1619048 19.9746032 95.5238095 39.4793651 92.4571429 39.4793651 76.1269841 20.0063492 76.1269841 39.4793651 73.7142857 39.4793651 73.7142857 0.501587302 76.1269841 0.501587302 76.1269841 19.8920635 91.0857143 0.501587302"></polygon>
            <path d="M117.269841,0.222222222 L131.688889,39.4793651 L129.149206,39.4793651 L124.228571,26.031746 L108.990476,26.031746 L104.063492,39.4793651 L101.52381,39.4793651 L115.949206,0.222222222 L117.269841,0.222222222 Z M123.307937,23.4920635 L116.584127,5.13650794 L109.892063,23.4920635 L123.307937,23.4920635 Z" id="Shape" fill="#000000"></path>
            <polygon id="Shape" fill="#000000" points="167.961905 0.501587302 167.961905 39.4793651 165.530159 39.4793651 165.530159 21.0095238 144.761905 21.0095238 144.761905 39.4793651 142.349206 39.4793651 142.349206 0.501587302 144.761905 0.501587302 144.761905 18.5015873 165.561905 18.5015873 165.561905 0.501587302"></polygon>
            <polygon id="Shape" fill="#000000" points="184.419048 0.501587302 184.419048 39.4793651 182.006349 39.4793651 182.006349 0.501587302"></polygon>
            <path d="M198.419048,0.501587302 L206.412698,0.501587302 C209.756614,0.501587302 212.315344,1.40952381 214.088889,3.22539683 C215.862434,5.04126984 216.74709,7.49206349 216.742857,10.5777778 C216.742857,15.0814815 214.764021,18.2433862 210.806349,20.0634921 C211.834921,20.6560847 213.219048,22.6455026 214.95873,26.031746 L222.012698,39.5047619 L219.161905,39.5047619 L213.726984,28.8253968 C211.911111,25.2486772 210.497354,23.0201058 209.485714,22.1396825 C208.474074,21.2592593 206.992593,20.8169312 205.04127,20.8126984 L200.825397,20.8126984 L200.825397,39.4793651 L198.412698,39.4793651 L198.419048,0.501587302 Z M200.831746,3.04126984 L200.831746,18.2793651 L206.006349,18.2793651 C208.643386,18.2793651 210.656085,17.6148148 212.044444,16.2857143 C213.432804,14.9566138 214.129101,13.0730159 214.133333,10.6349206 C214.133333,8.23492063 213.426455,6.36613757 212.012698,5.02857143 C210.596825,3.68888889 208.571429,3.02222222 205.91746,3.02222222 L200.831746,3.04126984 Z" id="Shape" fill="#000000"></path>
            <path d="M246.660317,0 C251.278307,0 255.195767,1.93862434 258.412698,5.81587302 C261.62963,9.69312169 263.233862,14.4232804 263.225397,20.0063492 C263.225397,25.568254 261.621164,30.2878307 258.412698,34.1650794 C255.204233,38.042328 251.286772,39.9873016 246.660317,40 C242.063492,40 238.169312,38.0613757 234.977778,34.184127 C231.786243,30.3068783 230.18836,25.5873016 230.184127,20.0253968 C230.184127,14.442328 231.782011,9.71216931 234.977778,5.83492063 C238.173545,1.95767196 242.067725,0.0126984127 246.660317,0 Z M246.749206,37.1936508 C250.634921,37.1936508 253.913228,35.5343915 256.584127,32.215873 C259.255026,28.8973545 260.590476,24.8275132 260.590476,20.0063492 C260.590476,15.168254 259.255026,11.0899471 256.584127,7.77142857 C253.913228,4.45291005 250.634921,2.79153439 246.749206,2.78730159 C242.850794,2.78730159 239.551323,4.44867725 236.850794,7.77142857 C234.150265,11.0941799 232.8,15.1724868 232.8,20.0063492 C232.8,24.8275132 234.150265,28.8973545 236.850794,32.215873 C239.551323,35.5343915 242.850794,37.1936508 246.749206,37.1936508 Z" id="Shape" fill="#000000"></path>
            <polygon id="Shape" fill="#000000" points="311.536508 0.501587302 311.536508 3.04126984 297.898413 3.04126984 297.898413 17.8285714 310.196825 17.8285714 310.196825 20.368254 297.898413 20.368254 297.898413 39.4793651 295.485714 39.4793651 295.485714 0.501587302"></polygon>
            <path d="M345.396825,0.501587302 L347.803175,0.501587302 L347.803175,21.7650794 C347.803175,27.589418 346.590476,32.0804233 344.165079,35.2380952 C341.958026,38.212437 338.47679,39.9708391 334.773053,39.9820891 C331.069316,39.9933391 327.577463,38.2561174 325.352381,35.2952381 C322.926984,32.1714286 321.714286,27.8941799 321.714286,22.4634921 L321.714286,0.501587302 L324.146032,0.501587302 L324.146032,22.3492063 C324.146032,27.005291 325.132275,30.6412698 327.104762,33.2571429 C328.876206,35.7335927 331.73646,37.1998074 334.781253,37.1922427 C337.826045,37.184678 340.678978,35.7042691 342.438095,33.2190476 C344.410582,30.5650794 345.396825,26.8021164 345.396825,21.9301587 L345.396825,0.501587302 Z" id="Shape" fill="#000000"></path>
            <polygon id="Shape" fill="#000000" points="381.434921 0.501587302 366.501587 19.9746032 382.857143 39.4793651 379.784127 39.4793651 363.466667 20.0063492 363.466667 39.4793651 361.053968 39.4793651 361.053968 0.501587302 363.466667 0.501587302 363.466667 19.8920635 378.412698 0.501587302"></polygon>
            <path d="M415.301587,0.501587302 L417.707937,0.501587302 L417.707937,21.7650794 C417.707937,27.589418 416.495238,32.0804233 414.069841,35.2380952 C411.862787,38.212437 408.381552,39.9708391 404.677815,39.9820891 C400.974078,39.9933391 397.482225,38.2561174 395.257143,35.2952381 C392.831746,32.1714286 391.616931,27.8941799 391.612698,22.4634921 L391.612698,0.501587302 L394.050794,0.501587302 L394.050794,22.3492063 C394.050794,27.005291 395.037037,30.6412698 397.009524,33.2571429 C398.780968,35.7335927 401.641222,37.1998074 404.686014,37.1922427 C407.730807,37.184678 410.58374,35.7042691 412.342857,33.2190476 C414.311111,30.5650794 415.297354,26.8021164 415.301587,21.9301587 L415.301587,0.501587302 Z" id="Shape" fill="#000000"></path>
            <polygon id="Shape" fill="#000000" points="454.120635 0.501587302 442 18.552381 442 39.5047619 439.587302 39.5047619 439.587302 18.552381 427.466667 0.501587302 430.380952 0.501587302 440.812698 15.9428571 451.180952 0.501587302"></polygon>
            <path d="M476.895238,0.222222222 L491.314286,39.4793651 L488.774603,39.4793651 L483.847619,26.031746 L468.609524,26.031746 L463.68254,39.4793651 L461.142857,39.4793651 L475.555556,0.222222222 L476.895238,0.222222222 Z M482.933333,23.4920635 L476.190476,5.13650794 L469.51746,23.4920635 L482.933333,23.4920635 Z" id="Shape" fill="#AA0805"></path>
            <polygon id="Shape" fill="#000000" points="516.190476 18.6031746 528.031746 0.501587302 530.469841 0.501587302 530.469841 39.4793651 528.038095 39.4793651 528.038095 4.90793651 516.190476 23.1301587 504.260317 4.90793651 504.260317 39.4793651 501.853968 39.4793651 501.853968 0.501587302 504.266667 0.501587302"></polygon>
            <path d="M556.825397,0.222222222 L571.244444,39.4793651 L568.704762,39.4793651 L563.746032,26.031746 L548.507937,26.031746 L543.593651,39.5047619 L541.053968,39.5047619 L555.466667,0.222222222 L556.825397,0.222222222 Z M562.831746,23.4920635 L556.107937,5.13650794 L549.415873,23.4920635 L562.831746,23.4920635 Z" id="Shape" fill="#000000"></path>
        </g>
    </g>
</svg>