<svg xmlns="http://www.w3.org/2000/svg" viewBox="0 0 100 100"><defs><style>.cls-1{fill:#aa0805;}.cls-2{fill:#c04644;}.cls-3{fill:#eac2c1;}.cls-4{fill:#d58482;}</style></defs><title>アセット 5</title><g id="レイヤー_2" data-name="レイヤー 2"><g id="レイヤー_1-2" data-name="レイヤー 1"><rect class="cls-1" x="77.78" y="66.67" width="11.11" height="11.11"/><rect class="cls-1" x="77.78" y="88.89" width="11.11" height="11.11"/><rect class="cls-1" x="88.89" y="77.78" width="11.11" height="11.11"/><rect class="cls-2" x="66.67" y="55.56" width="11.11" height="11.11"/><rect class="cls-3" x="55.56" y="44.44" width="11.11" height="11.11"/><rect class="cls-2" x="66.67" y="66.67" width="11.11" height="11.11"/><rect class="cls-2" x="77.78" y="55.56" width="11.11" height="11.11"/><rect class="cls-1" x="66.67" y="88.89" width="11.11" height="11.11"/><rect class="cls-1" x="88.89" y="66.67" width="11.11" height="11.11"/><rect class="cls-1" x="88.89" y="88.89" width="11.11" height="11.11"/><rect class="cls-1" x="55.56" y="77.78" width="11.11" height="11.11"/><rect class="cls-2" x="33.33" y="77.78" width="11.11" height="11.11"/><rect class="cls-1" x="77.78" y="44.44" width="11.11" height="11.11"/><rect class="cls-2" x="77.78" y="33.33" width="11.11" height="11.11"/><rect class="cls-1" x="88.89" y="44.44" width="11.11" height="11.11"/><rect class="cls-2" x="66.67" y="33.33" width="11.11" height="11.11"/><rect class="cls-2" x="66.67" y="44.44" width="11.11" height="11.11"/><rect class="cls-4" x="33.33" y="55.56" width="11.11" height="11.11"/><rect class="cls-4" x="44.44" y="33.33" width="11.11" height="11.11"/><rect class="cls-4" x="22.22" y="88.89" width="11.11" height="11.11"/><rect class="cls-3" x="11.11" y="88.89" width="11.11" height="11.11"/><rect class="cls-3" x="77.78" y="22.22" width="11.11" height="11.11"/><rect class="cls-3" x="88.89" y="11.11" width="11.11" height="11.11"/><rect class="cls-3" x="22.22" y="77.78" width="11.11" height="11.11"/><rect class="cls-1" x="77.78" y="77.78" width="11.11" height="11.11"/><rect class="cls-4" x="33.33" y="33.33" width="11.11" height="11.11"/><rect class="cls-4" x="66.67" y="22.22" width="11.11" height="11.11"/><rect class="cls-4" x="33.33" y="44.44" width="11.11" height="11.11"/><rect class="cls-4" x="33.33" y="66.67" width="11.11" height="11.11"/><rect class="cls-2" x="44.44" y="66.67" width="11.11" height="11.11"/><rect class="cls-3" x="55.56" y="22.22" width="11.11" height="11.11"/><rect class="cls-3" x="22.22" y="11.11" width="11.11" height="11.11"/><rect class="cls-1" x="33.33" y="88.89" width="11.11" height="11.11"/><rect class="cls-4" x="66.67" y="77.78" width="11.11" height="11.11"/><rect class="cls-1" x="44.44" y="77.78" width="11.11" height="11.11"/><rect class="cls-4" x="22.22" y="33.33" width="11.11" height="11.11"/><rect class="cls-2" x="55.56" y="11.11" width="11.11" height="11.11"/><rect class="cls-1" x="55.56" y="33.33" width="11.11" height="11.11"/><rect class="cls-1" x="77.78" width="11.11" height="11.11"/><rect class="cls-1" x="55.56" y="88.89" width="11.11" height="11.11"/><rect class="cls-1" x="44.44" y="88.89" width="11.11" height="11.11"/><rect class="cls-2" x="44.44" y="44.44" width="11.11" height="11.11"/><rect class="cls-4" x="88.89" y="55.56" width="11.11" height="11.11"/><rect class="cls-2" x="88.89" y="33.33" width="11.11" height="11.11"/><rect class="cls-1" x="11.11" y="22.22" width="11.11" height="11.11"/><rect class="cls-1" x="11.11" width="11.11" height="11.11"/><rect class="cls-4" x="55.56" y="55.56" width="11.11" height="11.11"/><rect class="cls-1" x="55.56" y="66.67" width="11.11" height="11.11"/><rect class="cls-4" y="77.78" width="11.11" height="11.11"/></g></g></svg>