<svg xmlns="http://www.w3.org/2000/svg" viewBox="0 0 8.5 54.32"><defs><style>.cls-1{fill:#fff;}</style></defs><title>アセット 3</title><g id="レイヤー_2" data-name="レイヤー 2"><g id="レイヤー_1-2" data-name="レイヤー 1"><path class="cls-1" d="M0,33.24l3.62-1.39,3.08.91V33l-3.26.26L0,33.83V47.68l3.46-.19V52L0,48.32v6H8.5V51.69l-3.75.65V47.58L8.5,51.11V43.94L6,44.38V41.33L8.5,43.19V35.55L4.25,37.08l-2.9-1.16v-.2l3.33-.33,3.82-.57v-6L6.05,29v-3.1L8.5,28v-4.3H0ZM5,41.1v2.77L1.16,41ZM5,25.52v2.93L1,25.52Z"/><polygon class="cls-1" points="1.16 20.05 6.45 21.72 6.45 18.25 1.16 17.43 1.16 20.05"/><polygon class="cls-1" points="0 14.12 8.5 16.11 8.5 14.12 5.82 12.51 4.48 10.8 8.5 13.71 8.5 9.37 3.14 8.81 0 4.15 0 8.81 3.93 11.63 0 9.64 0 14.12"/><path class="cls-1" d="M0,4.38,8.5,9.57V5.08L6,5.21v-3L8.5,4.51V0H0ZM4.94,1.86V4.79L1.15,1.86Z"/></g></g></svg>