<svg xmlns="http://www.w3.org/2000/svg" viewBox="0 0 899.66 62.97"><title>アセット 7</title><g id="レイヤー_2" data-name="レイヤー 2"><g id="レイヤー_1-2" data-name="レイヤー 1"><path d="M40.68.79v4H22.25V62.18H18.42V4.75H0v-4Z"/><path d="M76.86.35,99.57,62.18h-4L87.82,41h-24L56.06,62.18h-4L74.78.35ZM86.37,37,75.79,8.09,65.24,37Z"/><path d="M148.2.79,124.68,31.46l25.77,30.72h-4.83L119.9,31.51V62.18h-3.8V.79h3.8V31.33L143.46.79Z"/><path d="M184.7.35l22.71,61.83h-4L195.66,41h-24L163.9,62.18h-4L182.62.35ZM194.21,37,183.62,8.09,173.08,37Z"/><path d="M264.54.79V62.18h-3.83V33.09H228V62.18h-3.8V.79H228V29.14h32.76V.79Z"/><path d="M290.46.79V62.18h-3.8V.79Z"/><path d="M312.51.79H325.1q7.9,0,12.09,4.29t4.18,11.58q0,10.64-9.35,14.94Q334.45,33,338.56,41l11.11,21.22h-4.49l-8.56-16.82q-4.29-8.45-6.68-10.53t-7-2.09h-6.64V62.18h-3.8Zm3.8,4v24h8.15q6.23,0,9.51-3.14t3.29-8.9q0-5.67-3.34-8.83c-2.23-2.11-5.42-3.16-9.6-3.16Z"/><path d="M388.49,0Q399.4,0,407,9.16t7.58,22.35q0,13.14-7.58,22.3T388.49,63q-10.86,0-18.4-9.16t-7.55-22.3q0-13.19,7.55-22.35T388.49,0Zm.14,58.58q9.18,0,15.49-7.84t6.31-19.23q0-11.43-6.31-19.27T388.63,4.39q-9.21,0-15.59,7.85t-6.38,19.27q0,11.39,6.38,19.23T388.63,58.58Z"/><path d="M490.67.79v4H469.19V28.08h19.37v4H469.19V62.18h-3.8V.79Z"/><path d="M544,.79h3.79V34.28q0,13.76-5.73,21.22a18.49,18.49,0,0,1-29.63.09q-5.73-7.38-5.73-20.21V.79h3.83V35.2q0,11,4.66,17.18a14.82,14.82,0,0,0,24.15-.06Q544,46.05,544,34.54Z"/><path d="M600.76.79,577.24,31.46,603,62.18h-4.84L572.46,31.51V62.18h-3.8V.79h3.8V31.33L596,.79Z"/><path d="M654.1.79h3.79V34.28q0,13.76-5.73,21.22a18.49,18.49,0,0,1-29.63.09q-5.73-7.38-5.74-20.21V.79h3.84V35.2q0,11,4.66,17.18a14.82,14.82,0,0,0,24.15-.06q4.65-6.27,4.66-17.78Z"/><path d="M715.24.79,696.15,29.22v33h-3.8v-33L673.26.79h4.59l16.43,24.32L710.61.79Z"/><path d="M751.11.35l22.71,61.83h-4L762.06,41h-24L730.3,62.18h-4L749,.35ZM760.62,37,750,8.09,739.49,37Z"/><path d="M813,29.3,831.65.79h3.84V62.18h-3.83V7.73L813,36.43,794.21,7.73V62.18h-3.79V.79h3.8Z"/><path d="M877,.35l22.71,61.83h-4L887.9,41h-24l-7.74,21.22h-4L874.86.35ZM886.46,37,875.87,8.09,865.33,37Z"/></g></g></svg>