<?xml version="1.0" encoding="UTF-8"?>
<svg width="106px" height="37px" viewBox="0 0 106 37" version="1.1" xmlns="http://www.w3.org/2000/svg" xmlns:xlink="http://www.w3.org/1999/xlink">
    <!-- Generator: Sketch 51.3 (57544) - http://www.bohemiancoding.com/sketch -->
    <title>Group 6</title>
    <desc>Created with Sketch.</desc>
    <defs></defs>
    <g id="Page-1" stroke="none" stroke-width="1" fill="none" fill-rule="evenodd">
        <g id="Desktop-HD" transform="translate(-845.000000, -939.000000)">
            <g id="Group-6" transform="translate(845.000000, 939.000000)">
                <path d="M64,31 L63,32 L63,31 L64,31 Z M63,13 L64,12 L64,32 L44,32 L45,31 L63,31 L63,13 Z M64,31 L63,32 L63,31 L64,31 Z M63,13 L64,12 L64,32 L44,32 L45,31 L63,31 L63,13 Z" id="Rectangle-5" fill="#212020" fill-rule="nonzero" transform="translate(54.000000, 22.000000) rotate(-315.000000) translate(-54.000000, -22.000000) "></path>
                <path d="M1.568,7.836 C1.87600154,8.54533688 2.23533128,9.0866648 2.646,9.46 C3.05666872,9.8333352 3.55133044,10.02 4.13,10.02 C4.68066942,10.02 5.09833191,9.8800014 5.383,9.6 C5.66766809,9.3199986 5.81,8.93266914 5.81,8.438 C5.81,8.13933184 5.74933394,7.87100119 5.628,7.633 C5.50666606,7.39499881 5.32000126,7.19200084 5.068,7.024 C4.81599874,6.85599916 4.58033443,6.71833387 4.361,6.611 C4.14166557,6.50366613 3.85933506,6.38933394 3.514,6.268 C1.87132512,5.67999706 1.05,4.76067292 1.05,3.51 C1.05,2.78199636 1.32066396,2.19166893 1.862,1.739 C2.40333604,1.28633107 3.07999594,1.06 3.892,1.06 C4.62000364,1.06 5.24999734,1.2699979 5.782,1.69 C6.31400266,2.1100021 6.69199888,2.5999972 6.916,3.16 L5.95,3.804 C5.68866536,3.30933086 5.40400154,2.91733478 5.096,2.628 C4.78799846,2.33866522 4.39133576,2.194 3.906,2.194 C3.41133086,2.194 3.01933478,2.31999874 2.73,2.572 C2.44066522,2.82400126 2.296,3.16466452 2.296,3.594 C2.296,4.02333548 2.48733142,4.37099867 2.87,4.637 C3.25266858,4.90300133 3.8173296,5.1759986 4.564,5.456 C6.21600826,6.0626697 7.042,7.02399342 7.042,8.34 C7.042,9.18933758 6.78300259,9.86833079 6.265,10.377 C5.74699741,10.8856692 5.01200476,11.14 4.06,11.14 C3.27599608,11.14 2.57600308,10.8950024 1.96,10.405 C1.34399692,9.91499755 0.87733492,9.25933744 0.56,8.438 L1.568,7.836 Z M13.4319999,6.128 C13.0213312,6.55733548 12.8159999,7.10799664 12.8159999,7.78 C12.8159999,8.45200336 13.0236645,9.00499783 13.4389999,9.439 C13.8543353,9.87300217 14.3793301,10.09 15.0139999,10.09 C15.5180024,10.09 15.9799978,9.97566781 16.3999999,9.747 C16.820002,9.51833219 17.1046658,9.2406683 17.2539999,8.914 L17.2539999,10.314 C17.0393322,10.5753346 16.7266686,10.7783326 16.3159999,10.923 C15.9053312,11.0676674 15.4713355,11.14 15.0139999,11.14 C14.0619952,11.14 13.2686698,10.8226698 12.6339999,10.188 C11.9993301,9.55333016 11.6819999,8.75067152 11.6819999,7.78 C11.6819999,6.80932848 11.9993301,6.00666984 12.6339999,5.372 C13.2686698,4.73733016 14.0619952,4.42 15.0139999,4.42 C15.4620022,4.42 15.8913312,4.49466592 16.3019999,4.644 C16.7126686,4.79333408 17.0299988,4.99399874 17.2539999,5.246 L17.2539999,6.646 C17.1046658,6.3193317 16.820002,6.04166781 16.3999999,5.813 C15.9799978,5.58433219 15.5180024,5.47 15.0139999,5.47 C14.3793301,5.47 13.852002,5.68933114 13.4319999,6.128 Z M25.6599998,5.792 C25.3613317,5.57733226 25.0720012,5.47 24.7919998,5.47 C24.0733296,5.47 23.7139998,6.0066613 23.7139998,7.08 L23.7139998,11 L22.5939998,11 L22.5939998,4.56 L23.7139998,4.56 L23.7139998,5.302 C24.1060018,4.71399706 24.5586639,4.42 25.0719998,4.42 C25.5853357,4.42 25.986665,4.56933184 26.2759998,4.868 L25.6599998,5.792 Z M31.9659997,6.128 C31.555331,6.55733548 31.3499997,7.10799664 31.3499997,7.78 C31.3499997,8.45200336 31.5576643,9.00499783 31.9729997,9.439 C32.3883352,9.87300217 32.9133299,10.09 33.5479997,10.09 C34.1826696,10.09 34.7076643,9.87300217 35.1229997,9.439 C35.5383352,9.00499783 35.7459997,8.45200336 35.7459997,7.78 C35.7459997,7.10799664 35.5383352,6.55500217 35.1229997,6.121 C34.7076643,5.68699783 34.1826696,5.47 33.5479997,5.47 C32.9133299,5.47 32.3860018,5.68933114 31.9659997,6.128 Z M31.1679997,10.188 C30.5333299,9.55333016 30.2159997,8.75067152 30.2159997,7.78 C30.2159997,6.80932848 30.5333299,6.00666984 31.1679997,5.372 C31.8026696,4.73733016 32.595995,4.42 33.5479997,4.42 C34.5000045,4.42 35.2933299,4.73733016 35.9279997,5.372 C36.5626696,6.00666984 36.8799997,6.80932848 36.8799997,7.78 C36.8799997,8.75067152 36.5626696,9.55333016 35.9279997,10.188 C35.2933299,10.8226698 34.5000045,11.14 33.5479997,11.14 C32.595995,11.14 31.8026696,10.8226698 31.1679997,10.188 Z M42.0099997,0.08 L43.1299997,0.08 L43.1299997,11 L42.0099997,11 L42.0099997,0.08 Z M48.8199996,0.08 L49.9399996,0.08 L49.9399996,11 L48.8199996,11 L48.8199996,0.08 Z M64.6799994,9.81 L66.4299994,9.81 C67.5406716,9.81 68.4366627,9.47400336 69.1179994,8.802 C69.7993361,8.12999664 70.1399994,7.22933898 70.1399994,6.1 C70.1399994,4.97066102 69.7993361,4.07000336 69.1179994,3.398 C68.4366627,2.72599664 67.5406716,2.39 66.4299994,2.39 L64.6799994,2.39 L64.6799994,9.81 Z M66.4299994,11 L63.4899994,11 L63.4899994,1.2 L66.4299994,1.2 C67.8673399,1.2 69.0433282,1.65266214 69.9579994,2.558 C70.8726706,3.46333786 71.3299994,4.64399272 71.3299994,6.1 C71.3299994,7.55600728 70.8726706,8.73666214 69.9579994,9.642 C69.0433282,10.5473379 67.8673399,11 66.4299994,11 Z M77.7199993,6.128 C77.3093306,6.55733548 77.1039993,7.10799664 77.1039993,7.78 C77.1039993,8.45200336 77.3116639,9.00499783 77.7269993,9.439 C78.1423347,9.87300217 78.6673295,10.09 79.3019993,10.09 C79.9366692,10.09 80.4616639,9.87300217 80.8769993,9.439 C81.2923347,9.00499783 81.4999993,8.45200336 81.4999993,7.78 C81.4999993,7.10799664 81.2923347,6.55500217 80.8769993,6.121 C80.4616639,5.68699783 79.9366692,5.47 79.3019993,5.47 C78.6673295,5.47 78.1400014,5.68933114 77.7199993,6.128 Z M76.9219993,10.188 C76.2873295,9.55333016 75.9699993,8.75067152 75.9699993,7.78 C75.9699993,6.80932848 76.2873295,6.00666984 76.9219993,5.372 C77.5566692,4.73733016 78.3499946,4.42 79.3019993,4.42 C80.2540041,4.42 81.0473295,4.73733016 81.6819993,5.372 C82.3166692,6.00666984 82.6339993,6.80932848 82.6339993,7.78 C82.6339993,8.75067152 82.3166692,9.55333016 81.6819993,10.188 C81.0473295,10.8226698 80.2540041,11.14 79.3019993,11.14 C78.3499946,11.14 77.5566692,10.8226698 76.9219993,10.188 Z M86.5739992,4.56 L87.8339992,4.56 L89.4439992,8.746 L91.1939992,4.07 L93.0699992,8.774 L94.6939992,4.56 L95.9539992,4.56 L93.1539992,11.49 L91.2079992,6.8 L89.3739992,11.49 L86.5739992,4.56 Z M104.793999,7.08 C104.793999,6.0066613 104.33667,5.47 103.421999,5.47 C102.936663,5.47 102.542334,5.62166515 102.238999,5.925 C101.935664,6.22833485 101.783999,6.613331 101.783999,7.08 L101.783999,11 L100.663999,11 L100.663999,4.56 L101.783999,4.56 L101.783999,5.582 C102.213335,4.80732946 102.852662,4.42 103.701999,4.42 C104.383336,4.42 104.92233,4.63699783 105.318999,5.071 C105.715668,5.50500217 105.913999,6.12799594 105.913999,6.94 L105.913999,11 L104.793999,11 L104.793999,7.08 Z" id="Scroll-Down" fill="#000000"></path>
            </g>
        </g>
    </g>
</svg>