<?xml version="1.0" encoding="UTF-8"?>
<svg width="105px" height="38px" viewBox="0 0 105 38" version="1.1" xmlns="http://www.w3.org/2000/svg" xmlns:xlink="http://www.w3.org/1999/xlink">
    <!-- Generator: Sketch 51.3 (57544) - http://www.bohemiancoding.com/sketch -->
    <title>Group 8</title>
    <desc>Created with Sketch.</desc>
    <defs></defs>
    <g id="Page-1" stroke="none" stroke-width="1" fill="none" fill-rule="evenodd">
        <g id="Desktop-HD" transform="translate(-666.000000, -934.000000)" fill="#212020">
            <g id="Group-8" transform="translate(666.000000, 934.000000)">
                <path d="M7.66308594,2.79199219 L6.6171875,3.79003906 C6.12044022,3.06086875 5.55078446,2.69628906 4.90820312,2.69628906 C4.44335705,2.69628906 4.05826976,2.83984231 3.75292969,3.12695312 C3.44758962,3.41406394 3.29492188,3.77408638 3.29492188,4.20703125 C3.29492188,4.55338715 3.39973854,4.85188677 3.609375,5.10253906 C3.71419323,5.22102924 3.86800029,5.355468 4.07080078,5.50585938 C4.27360127,5.65625075 4.52766774,5.82259023 4.83300781,6.00488281 C5.73991339,6.53353129 6.34602712,7.01204213 6.65136719,7.44042969 C6.96126457,7.87337456 7.11621094,8.4407517 7.11621094,9.14257812 C7.11621094,10.054041 6.8154327,10.7923149 6.21386719,11.3574219 C5.62141631,11.9225289 4.8398486,12.2050781 3.86914062,12.2050781 C3.08528254,12.2050781 2.42220323,12.03646 1.87988281,11.6992188 C1.60644395,11.5305981 1.35123816,11.310711 1.11425781,11.0395508 C0.877277461,10.7683906 0.649415156,10.4391295 0.430664062,10.0517578 L1.62011719,9.24511719 C1.94368651,9.81478149 2.26041512,10.2067047 2.5703125,10.4208984 C2.88020988,10.6350922 3.28352616,10.7421875 3.78027344,10.7421875 C4.33170849,10.7421875 4.76350755,10.5963556 5.07568359,10.3046875 C5.38785963,10.0130194 5.54394531,9.59830998 5.54394531,9.06054688 C5.54394531,8.6914044 5.43001416,8.37923305 5.20214844,8.12402344 C5.08821558,7.99186132 4.91845816,7.84375082 4.69287109,7.6796875 C4.46728403,7.51562418 4.18131684,7.33105571 3.83496094,7.12597656 C3.04198822,6.65657317 2.48828282,6.20996306 2.17382812,5.78613281 C1.87304537,5.36230257 1.72265625,4.8313834 1.72265625,4.19335938 C1.72265625,3.34114157 2.01887725,2.63476843 2.61132812,2.07421875 C3.203779,1.50911176 3.95116736,1.2265625 4.85351562,1.2265625 C5.44140919,1.2265625 5.94270626,1.3450509 6.35742188,1.58203125 C6.78125212,1.8190116 7.21646912,2.22232788 7.66308594,2.79199219 Z M16.9429641,6.18261719 L16.7515578,7.72070312 C16.4416604,7.32421677 16.1454394,7.03938889 15.862886,6.86621094 C15.5848898,6.6975903 15.2567681,6.61328125 14.878511,6.61328125 C14.3042893,6.61328125 13.8326144,6.82519319 13.4634719,7.24902344 C13.0943294,7.67285368 12.909761,8.21744459 12.909761,8.8828125 C12.909761,9.50716458 13.0829363,10.006183 13.4292922,10.3798828 C13.7802054,10.7581399 14.2336514,10.9472656 14.7896438,10.9472656 C15.3228496,10.9472656 15.8742763,10.7171247 16.4439406,10.2568359 L16.2456985,11.8496094 C15.6623622,12.0865897 15.1063782,12.2050781 14.5777297,12.2050781 C13.6343656,12.2050781 12.8664696,11.897464 12.2740188,11.2822266 C11.6861252,10.6669891 11.3921828,9.86947104 11.3921828,8.88964844 C11.3921828,7.88248194 11.7089114,7.04167004 12.3423781,6.3671875 C12.9804022,5.68814765 13.773363,5.34863281 14.7212844,5.34863281 C15.4960278,5.34863281 16.2365803,5.62662482 16.9429641,6.18261719 Z M23.0646391,5.56054688 L22.9962797,6.11425781 C23.5066989,5.63118248 24.0216677,5.38964844 24.5412016,5.38964844 C24.996933,5.38964844 25.4116424,5.55598792 25.7853422,5.88867188 L24.821475,7.1328125 C24.5434788,6.89583215 24.2654868,6.77734375 23.9874907,6.77734375 C23.7960834,6.77734375 23.6274653,6.81494103 23.4816313,6.89013672 C23.3357972,6.96533241 23.2093336,7.08382081 23.1022367,7.24560547 C22.9951399,7.40739013 22.9062736,7.61588414 22.8356352,7.87109375 C22.7649968,8.12630336 22.7091705,8.43163885 22.6681547,8.78710938 L22.2716703,12 L20.7609282,12 L21.5538969,5.56054688 L23.0646391,5.56054688 Z M36.0769391,8.71875 C36.0769391,9.70312992 35.7351456,10.5302701 35.0515485,11.2001953 C34.3725086,11.8701205 33.5339753,12.2050781 32.5359235,12.2050781 C31.4922985,12.2050781 30.6400935,11.8883495 29.9792829,11.2548828 C29.3139149,10.6168588 28.981236,9.81022623 28.981236,8.83496094 C28.981236,7.83690907 29.3253081,7.00749028 30.0134625,6.34667969 C30.7061743,5.68131178 31.5720511,5.34863281 32.6111188,5.34863281 C33.6319572,5.34863281 34.4636546,5.66308279 35.106236,6.29199219 C35.7533746,6.91178695 36.0769391,7.72069813 36.0769391,8.71875 Z M34.552525,8.64355469 C34.552525,8.02375992 34.3725138,7.53385597 34.012486,7.17382812 C33.6524581,6.80012834 33.1807832,6.61328125 32.5974469,6.61328125 C31.9913241,6.61328125 31.490027,6.82063595 31.0935407,7.23535156 C30.6970543,7.65462449 30.4988141,8.18098642 30.4988141,8.81445312 C30.4988141,9.45247715 30.6856612,9.96516733 31.059361,10.3525391 C31.4330608,10.7490254 31.9161289,10.9472656 32.5085797,10.9472656 C33.1010306,10.9472656 33.5886559,10.7307964 33.9714704,10.2978516 C34.3588421,9.869464 34.552525,9.31803723 34.552525,8.64355469 Z M43.2650204,0.454101562 L41.8499813,12 L40.3392391,12 L41.7611141,0.454101562 L43.2650204,0.454101562 Z M49.8378673,0.454101562 L48.4228282,12 L46.912086,12 L48.333961,0.454101562 L49.8378673,0.454101562 Z M62.2589517,1.4453125 L64.3917642,1.4453125 C65.1984088,1.4453125 65.8181943,1.48632771 66.2511392,1.56835938 C66.6931987,1.64583372 67.1010722,1.79394422 67.474772,2.01269531 C68.1629265,2.40918167 68.7052387,3.00390229 69.1017251,3.796875 C69.4982115,4.58984771 69.6964517,5.47623208 69.6964517,6.45605469 C69.6964517,7.49512238 69.4731466,8.45670131 69.0265298,9.34082031 C68.8032214,9.7783225 68.5434584,10.1622705 68.2472329,10.4926758 C67.9510075,10.8230811 67.6114926,11.104491 67.2286782,11.3369141 C66.7820614,11.5921237 66.3149437,11.7675776 65.827311,11.8632812 C65.5675441,11.9088544 65.2576514,11.9430337 64.8976235,11.9658203 C64.5375957,11.9886069 64.1160504,12 63.6329751,12 L60.9601235,12 L62.2589517,1.4453125 Z M63.639811,2.90136719 L62.7032876,10.5439453 L63.8927407,10.5439453 C64.7677451,10.5439453 65.451332,10.4573576 65.943522,10.2841797 C66.42204,10.1155591 66.839028,9.80110907 67.1944985,9.34082031 C67.8142933,8.55696223 68.124186,7.57487569 68.124186,6.39453125 C68.124186,5.66080362 67.98519,5.01823192 67.7071939,4.46679688 C67.4246404,3.9062472 67.0418317,3.50065229 66.5587564,3.25 C66.0984676,3.01757696 65.4171593,2.90136719 64.514811,2.90136719 L63.639811,2.90136719 Z M80.8357048,8.71875 C80.8357048,9.70312992 80.4939113,10.5302701 79.8103142,11.2001953 C79.1312743,11.8701205 78.292741,12.2050781 77.2946892,12.2050781 C76.2510642,12.2050781 75.3988591,11.8883495 74.7380486,11.2548828 C74.0726806,10.6168588 73.7400017,9.81022623 73.7400017,8.83496094 C73.7400017,7.83690907 74.0840738,7.00749028 74.7722282,6.34667969 C75.46494,5.68131178 76.3308168,5.34863281 77.3698845,5.34863281 C78.3907229,5.34863281 79.2224203,5.66308279 79.8650017,6.29199219 C80.5121403,6.91178695 80.8357048,7.72069813 80.8357048,8.71875 Z M79.3112907,8.64355469 C79.3112907,8.02375992 79.1312795,7.53385597 78.7712517,7.17382812 C78.4112238,6.80012834 77.9395489,6.61328125 77.3562126,6.61328125 C76.7500898,6.61328125 76.2487927,6.82063595 75.8523064,7.23535156 C75.45582,7.65462449 75.2575798,8.18098642 75.2575798,8.81445312 C75.2575798,9.45247715 75.4444269,9.96516733 75.8181267,10.3525391 C76.1918265,10.7490254 76.6748945,10.9472656 77.2673454,10.9472656 C77.8597963,10.9472656 78.3474216,10.7307964 78.7302361,10.2978516 C79.1176078,9.869464 79.3112907,9.31803723 79.3112907,8.64355469 Z M94.7435126,5.56054688 L90.6009345,12.6767578 L89.3021064,8.52050781 L86.9983954,12.6767578 L84.6605048,5.56054688 L86.2532783,5.56054688 L87.3880439,9.49121094 L89.6849189,5.3828125 L90.9153876,9.49121094 L93.0276923,5.56054688 L94.7435126,5.56054688 Z M100.359328,5.56054688 L100.290969,6.15527344 C100.887977,5.65396885 101.491812,5.40332031 102.102492,5.40332031 C102.731402,5.40332031 103.234977,5.57877429 103.613235,5.9296875 C103.982377,6.28060071 104.166945,6.75911155 104.166945,7.36523438 C104.166945,7.69336102 104.139602,8.08528418 104.084914,8.54101562 L103.65425,12 L102.150344,12 L102.615188,8.21289062 C102.633417,8.07161388 102.645949,7.94628961 102.652785,7.83691406 C102.659621,7.72753852 102.663039,7.62955772 102.663039,7.54296875 C102.663039,6.9596325 102.348589,6.66796875 101.71968,6.66796875 C101.332308,6.66796875 100.999629,6.78645715 100.721633,7.0234375 C100.493767,7.21028739 100.325149,7.4381497 100.215774,7.70703125 C100.156528,7.84375068 100.106399,8.01122948 100.065383,8.20947266 C100.024367,8.40771583 99.9879092,8.63671745 99.956008,8.89648438 L99.5731955,12 L98.0624533,12 L98.855422,5.56054688 L100.359328,5.56054688 Z" id="Scroll-Down"></path>
                <path d="M65,32 L64,33 L64,32 L65,32 Z M64,14 L65,13 L65,33 L45,33 L46,32 L64,32 L64,14 Z M65,32 L64,33 L64,32 L65,32 Z M64,14 L65,13 L65,33 L45,33 L46,32 L64,32 L64,14 Z" id="Rectangle-5" fill-rule="nonzero" transform="translate(55.000000, 23.000000) rotate(-315.000000) translate(-55.000000, -23.000000) "></path>
            </g>
        </g>
    </g>
</svg>