<?xml version="1.0" encoding="UTF-8"?>
<svg width="587px" height="400px" viewBox="0 0 587 400" version="1.1" xmlns="http://www.w3.org/2000/svg" xmlns:xlink="http://www.w3.org/1999/xlink">
    <!-- Generator: Sketch 51.3 (57544) - http://www.bohemiancoding.com/sketch -->
    <title>Group 7</title>
    <desc>Created with Sketch.</desc>
    <defs></defs>
    <g id="Page-1" stroke="none" stroke-width="1" fill="none" fill-rule="evenodd">
        <g id="Desktop-HD" transform="translate(-427.000000, -312.000000)">
            <g id="Group-7" transform="translate(427.000000, 312.000000)">
                <g id="Group-2" transform="translate(117.000000, 112.000000)" fill="#212020">
                    <path d="M50.6,70 L50.6,86.5 L33.8,86.5 L33.8,175 L17.3,175 L17.3,86.5 L0.5,86.5 L0.5,70 L50.6,70 Z M94.349998,175 L91.349998,158.35 L72.449998,158.35 L69.449998,175 L52.649998,175 L73.649998,70 L90.149998,70 L111.149998,175 L94.349998,175 Z M75.299998,141.85 L88.499998,141.85 L81.899998,104.2 L75.299998,141.85 Z M155.499996,119.8 L176.649996,175 L158.949996,175 L146.199996,141.4 L140.499996,154.45 L140.499996,175 L123.999996,175 L123.999996,70 L140.499996,70 L140.499996,112.6 L158.799996,70 L176.649996,70 L155.499996,119.8 Z M227.749994,175 L224.749994,158.35 L205.849994,158.35 L202.849994,175 L186.049994,175 L207.049994,70 L223.549994,70 L244.549994,175 L227.749994,175 Z M208.699994,141.85 L221.899994,141.85 L215.299994,104.2 L208.699994,141.85 Z M290.699992,70 L307.199992,70 L307.199992,175 L290.699992,175 L290.699992,129.4 L273.899992,129.4 L273.899992,175 L257.399992,175 L257.399992,70 L273.899992,70 L273.899992,112.9 L290.699992,112.9 L290.699992,70 Z M340.44999,175 L323.94999,175 L323.94999,70 L340.44999,70 L340.44999,175 Z M406.549988,175 L389.749988,175 L381.199988,132.85 L373.699988,132.85 L373.699988,175 L357.199988,175 L357.199988,70 L382.099988,70 C389.200024,70 394.999966,72.099979 399.499988,76.3 C404.500013,80.900023 406.999988,87.399958 406.999988,95.8 L406.999988,107.05 C406.999988,115.550043 404.500013,122.099977 399.499988,126.7 C398.799985,127.400004 397.999992,128.049997 397.099988,128.65 L406.549988,175 Z M390.499988,95.8 C390.499988,92.2999825 389.749996,89.8000075 388.249988,88.3 C386.949982,87.099994 384.900002,86.5 382.099988,86.5 L373.699988,86.5 L373.699988,116.35 L382.099988,116.35 C384.900002,116.35 386.949982,115.750006 388.249988,114.55 C389.749996,113.149993 390.499988,110.650018 390.499988,107.05 L390.499988,95.8 Z M445.049986,176.2 C437.84995,176.2 432.050008,174.150021 427.649986,170.05 C422.649961,165.249976 420.149986,158.700042 420.149986,150.4 L420.149986,94.6 C420.149986,86.2999585 422.649961,79.750024 427.649986,74.95 C432.050008,70.8499795 437.84995,68.8 445.049986,68.8 C452.250022,68.8 458.049964,70.8499795 462.449986,74.95 C467.450011,79.750024 469.949986,86.2999585 469.949986,94.6 L469.949986,150.4 C469.949986,158.700042 467.450011,165.249976 462.449986,170.05 C458.049964,174.150021 452.250022,176.2 445.049986,176.2 Z M445.049986,85.3 C442.249972,85.3 440.199993,85.899994 438.899986,87.1 C437.399979,88.500007 436.649986,90.999982 436.649986,94.6 L436.649986,150.4 C436.649986,154.000018 437.399979,156.499993 438.899986,157.9 C440.199993,159.100006 442.249972,159.7 445.049986,159.7 C447.95,159.7 449.99998,159.100006 451.199986,157.9 C452.699994,156.599994 453.449986,154.100019 453.449986,150.4 L453.449986,94.6 C453.449986,90.8999815 452.699994,88.4000065 451.199986,87.1 C449.99998,85.899994 447.95,85.3 445.049986,85.3 Z" id="TAKAHIRO"></path>
                    <path d="M32,11 L14,11 L14,28.6 L26.5,28.6 L26.5,39.6 L14,39.6 L14,70 L3,70 L3,0 L32,0 L32,11 Z M56.666665,70.8 C51.866641,70.8 48.000013,69.433347 45.066665,66.7 C41.733315,63.499984 40.066665,59.133361 40.066665,53.6 L40.066665,0 L51.066665,0 L51.066665,53.6 C51.066665,56.066679 51.533327,57.733329 52.466665,58.6 C53.333336,59.400004 54.733322,59.8 56.666665,59.8 C58.533341,59.8 59.899994,59.400004 60.766665,58.6 C61.76667,57.666662 62.266665,56.000012 62.266665,53.6 L62.266665,0 L73.266665,0 L73.266665,53.6 C73.266665,59.000027 71.600015,63.36665 68.266665,66.7 C65.199983,69.433347 61.333355,70.8 56.666665,70.8 Z M104.93333,33.2 L119.03333,70 L107.23333,70 L98.73333,47.6 L94.93333,56.3 L94.93333,70 L83.93333,70 L83.93333,0 L94.93333,0 L94.93333,28.4 L107.13333,0 L119.03333,0 L104.93333,33.2 Z M143.099995,70.8 C138.299971,70.8 134.433343,69.433347 131.499995,66.7 C128.166645,63.499984 126.499995,59.133361 126.499995,53.6 L126.499995,0 L137.499995,0 L137.499995,53.6 C137.499995,56.066679 137.966657,57.733329 138.899995,58.6 C139.766666,59.400004 141.166652,59.8 143.099995,59.8 C144.966671,59.8 146.333324,59.400004 147.199995,58.6 C148.2,57.666662 148.699995,56.000012 148.699995,53.6 L148.699995,0 L159.699995,0 L159.699995,53.6 C159.699995,59.000027 158.033345,63.36665 154.699995,66.7 C151.633313,69.433347 147.766685,70.8 143.099995,70.8 Z M205.06666,0 L191.46666,45.4 L191.46666,70 L180.36666,70 L180.36666,45.4 L166.86666,0 L178.46666,0 L185.86666,25.1 L193.46666,0 L205.06666,0 Z M232.333325,70 L230.333325,58.9 L217.733325,58.9 L215.733325,70 L204.533325,70 L218.533325,0 L229.533325,0 L243.533325,70 L232.333325,70 Z M219.633325,47.9 L228.433325,47.9 L224.033325,22.8 L219.633325,47.9 Z M291.99999,0 L298.29999,0 L298.29999,70 L287.29999,70 L287.29999,35.1 L278.39999,59 L271.99999,59 L263.09999,35.1 L263.09999,70 L252.09999,70 L252.09999,0 L258.39999,0 L275.19999,38.8 L291.99999,0 Z M334.566655,70 L332.566655,58.9 L319.966655,58.9 L317.966655,70 L306.766655,70 L320.766655,0 L331.766655,0 L345.766655,70 L334.566655,70 Z M321.866655,47.9 L330.666655,47.9 L326.266655,22.8 L321.866655,47.9 Z" id="FUKUYAMA"></path>
                </g>
                <polygon id="Rectangle-4" fill="#000000" fill-rule="nonzero" points="285 5 285 86.8848818 290 86.8848818 290 0 0 0 0 400 290 400 290 313.828393 285 313.828393 285 395 5 395 5 5"></polygon>
            </g>
        </g>
    </g>
</svg>