<?xml version="1.0" encoding="UTF-8"?>
<svg width="299px" height="220px" viewBox="0 0 299 220" version="1.1" xmlns="http://www.w3.org/2000/svg" xmlns:xlink="http://www.w3.org/1999/xlink">
    <!-- Generator: Sketch 51.3 (57544) - http://www.bohemiancoding.com/sketch -->
    <title>Group 6</title>
    <desc>Created with Sketch.</desc>
    <defs></defs>
    <g id="Symbols" stroke="none" stroke-width="1" fill="none" fill-rule="evenodd">
        <g id="Group-6" fill="#000000">
            <g id="Group-5" transform="translate(101.000000, 0.000000)">
                <polygon id="tf" points="44.7692308 102 32.2925599 102 32.2925599 24.806867 0 24.806867 0 0 44.7692308 0"></polygon>
                <path d="M96,101 L96,1 L53.2307692,1 L53.2307692,23.806867 L85.5233291,23.806867 L85.5233291,101 L96,101 Z" id="tf" stroke="#000000" stroke-width="2" transform="translate(74.615385, 51.000000) scale(-1, -1) translate(-74.615385, -51.000000) "></path>
            </g>
            <path d="M31.8863636,183.51676 L31.8863636,192.301676 L20.3863636,192.301676 L20.3863636,219.638268 L11.5,219.638268 L11.5,192.301676 L0,192.301676 L0,183.51676 L31.8863636,183.51676 Z M62.9886364,219.638268 L61.2636364,215.194134 L46.3659091,215.194134 L44.6409091,219.638268 L35.0227273,219.638268 L49.0840909,183.51676 L58.4931818,183.51676 L72.6068182,219.638268 L62.9886364,219.638268 Z M49.7636364,206.409218 L57.8659091,206.409218 L53.7886364,195.97067 L49.7636364,206.409218 Z M109.302273,183.465084 L96.6522727,198.296089 L110.765909,219.638268 L100.154545,219.638268 L90.6409091,205.272346 L88.1318182,208.166201 L88.1318182,219.638268 L79.2454545,219.638268 L79.2454545,183.620112 L88.1318182,183.620112 L88.1318182,194.575419 L97.6454545,183.465084 L109.302273,183.465084 Z M143.959091,219.638268 L142.234091,215.194134 L127.336364,215.194134 L125.611364,219.638268 L115.993182,219.638268 L130.054545,183.51676 L139.463636,183.51676 L153.577273,219.638268 L143.959091,219.638268 Z M130.734091,206.409218 L138.836364,206.409218 L134.759091,195.97067 L130.734091,206.409218 Z M183.059091,198.451117 L183.059091,183.620112 L191.945455,183.620112 L191.945455,219.638268 L183.059091,219.638268 L183.059091,207.236034 L169.102273,207.236034 L169.102273,219.638268 L160.215909,219.638268 L160.215909,183.620112 L169.102273,183.620112 L169.102273,198.451117 L183.059091,198.451117 Z M202.922727,219.534916 L202.922727,183.51676 L211.809091,183.51676 L211.809091,219.534916 L202.922727,219.534916 Z M254.986364,194.678771 C254.986364,198.709497 252.790909,202.27514 249.55,204.238827 L255.822727,219.638268 L246.047727,219.638268 L240.611364,205.892458 L231.672727,205.892458 L231.672727,219.638268 L222.786364,219.638268 L222.786364,183.51676 L243.643182,183.51676 C249.863636,183.51676 254.986364,188.52933 254.986364,194.678771 Z M243.643182,197.107542 C244.95,197.107542 246.047727,196.022346 246.047727,194.678771 C246.047727,193.386872 244.95,192.301676 243.643182,192.301676 L231.672727,192.301676 L231.672727,197.107542 L243.643182,197.107542 Z M280.286364,183 C290.636364,183 299,191.319832 299,201.5 C299,211.731844 290.636364,220 280.286364,220 C269.988636,220 261.572727,211.731844 261.572727,201.5 C261.572727,191.319832 269.988636,183 280.286364,183 Z M280.286364,211.215084 C285.722727,211.215084 290.113636,206.874302 290.113636,201.5 C290.113636,196.125698 285.722727,191.784916 280.286364,191.784916 C274.902273,191.784916 270.459091,196.125698 270.459091,201.5 C270.459091,206.874302 274.902273,211.215084 280.286364,211.215084 Z" id="TAKAHIRO"></path>
            <path d="M58,160.762712 L58,140.029661 L74.3217023,140.029661 L74.3217023,145.101695 L63.0725583,145.101695 L63.0725583,147.860169 L71.8749389,147.860169 L71.8749389,152.902542 L63.0725583,152.902542 L63.0725583,160.762712 L58,160.762712 Z M92.165172,151.834746 L92.165172,140 L97.2675689,140 L97.2675689,151.834746 C97.2675689,156.877119 93.1200065,161 88.0176097,161 C82.9450514,161 78.797489,156.877119 78.797489,151.834746 L78.797489,140 L83.8700473,140 L83.8700473,151.834746 C83.8700473,154.088983 85.7498777,155.927966 88.0176097,155.927966 C90.3151802,155.927966 92.165172,154.088983 92.165172,151.834746 Z M119.795695,140 L112.574759,148.512712 L120.631176,160.762712 L114.573944,160.762712 L109.143323,152.516949 L107.711071,154.177966 L107.711071,160.762712 L102.638513,160.762712 L102.638513,140.088983 L107.711071,140.088983 L107.711071,146.377119 L113.141692,140 L119.795695,140 Z M138.474645,151.834746 L138.474645,140 L143.577042,140 L143.577042,151.834746 C143.577042,156.877119 139.42948,161 134.327083,161 C129.254525,161 125.106962,156.877119 125.106962,151.834746 L125.106962,140 L130.179521,140 L130.179521,151.834746 C130.179521,154.088983 132.059351,155.927966 134.327083,155.927966 C136.624654,155.927966 138.474645,154.088983 138.474645,151.834746 Z M169.536605,140 L161.360835,154.385593 L161.360835,160.762712 L156.288277,160.762712 L156.288277,154.385593 L148.052829,140 L153.90119,140 L158.824556,148.601695 L163.747921,140 L169.536605,140 Z M184.605087,160.762712 L183.620414,158.211864 L175.116419,158.211864 L174.131746,160.762712 L168.641448,160.762712 L176.668025,140.029661 L182.03897,140.029661 L190.095386,160.762712 L184.605087,160.762712 Z M177.055927,153.169492 L181.680907,153.169492 L179.353497,147.177966 L177.055927,153.169492 Z M207.64047,160.762712 L202.209848,160.762712 L199.255829,153.317797 L199.255829,160.70339 L194.183271,160.70339 L194.183271,140 L199.464699,140 L204.925159,153.822034 L210.415457,140 L215.667047,140 L215.667047,160.70339 L210.594489,160.70339 L210.594489,153.317797 L207.64047,160.762712 Z M235.509702,160.762712 L234.525029,158.211864 L226.021034,158.211864 L225.036361,160.762712 L219.546062,160.762712 L227.57264,140.029661 L232.943584,140.029661 L241,160.762712 L235.509702,160.762712 Z M227.960541,153.169492 L232.585521,153.169492 L230.258112,147.177966 L227.960541,153.169492 Z" id="FUKUYAMA"></path>
        </g>
    </g>
</svg>