<?xml version="1.0" encoding="UTF-8"?>
<svg width="82px" height="448px" viewBox="0 0 82 448" version="1.1" xmlns="http://www.w3.org/2000/svg" xmlns:xlink="http://www.w3.org/1999/xlink">
    <!-- Generator: Sketch 51.3 (57544) - http://www.bohemiancoding.com/sketch -->
    <title>WORKS</title>
    <desc>Created with Sketch.</desc>
    <defs></defs>
    <g id="Page-1" stroke="none" stroke-width="1" fill="none" fill-rule="evenodd">
        <g id="Desktop-HD" transform="translate(0.000000, -2838.000000)" fill="#FFFFFF">
            <path d="M-79.1425781,3023.58789 L-118.595703,3102.20117 L-133.537109,3049.4668 L-159.855469,3103.08008 L-183,3023.58789 L-171.574219,3023.58789 L-157.462891,3075.10156 L-130.949219,3021 L-115.763672,3073.73438 L-91.1054688,3023.58789 L-79.1425781,3023.58789 Z M19.5641403,3059.81836 C19.5641403,3068.41215 17.2855173,3076.2083 12.7282028,3083.20703 C9.1149035,3088.70836 4.39489862,3092.95637 -1.43195343,3095.95117 C-7.25880548,3098.94598 -13.7040535,3100.44336 -20.7678909,3100.44336 C-32.0635203,3100.44336 -41.2756678,3096.84639 -48.4046097,3089.65234 C-55.5335516,3082.42575 -59.0979691,3073.08339 -59.0979691,3061.625 C-59.0979691,3050.19916 -55.3219651,3040.75915 -47.7698441,3033.30469 C-40.1851707,3025.81767 -30.6149539,3022.07422 -19.0589066,3022.07422 C-7.50285919,3022.07422 1.82321942,3025.54098 8.91960907,3032.47461 C16.0159987,3039.37569 19.5641403,3048.49018 19.5641403,3059.81836 Z M8.33367157,3059.7207 C8.33367157,3051.48498 5.89228973,3044.89325 1.00945282,3039.94531 C-3.87338409,3035.02992 -10.4325633,3032.57227 -18.6682816,3032.57227 C-26.9365521,3032.57227 -33.8863524,3035.33917 -39.5178909,3040.87305 C-45.084325,3046.40693 -47.8675003,3053.32418 -47.8675003,3061.625 C-47.8675003,3069.82817 -45.2796356,3076.61521 -40.1038284,3081.98633 C-34.9280213,3087.3249 -28.385118,3089.99414 -20.4749222,3089.99414 C-12.2392039,3089.99414 -5.3870589,3087.11331 0.0817184448,3081.35156 C5.58304803,3075.65492 8.33367157,3068.44471 8.33367157,3059.7207 Z M79.69664,3067.19141 L98.6419525,3098.97852 L86.8255463,3098.97852 L68.9544525,3067.97266 L64.9017181,3067.97266 L61.0931244,3098.97852 L49.9114838,3098.97852 L59.1888275,3023.58789 L73.9837494,3023.58789 C78.8014818,3023.58789 82.6263134,3024.02734 85.4583588,3024.90625 C88.2578519,3025.72006 90.6992338,3027.21744 92.7825775,3029.39844 C96.7213993,3033.43492 98.6907806,3038.6432 98.6907806,3045.02344 C98.6907806,3056.70969 92.3594637,3064.09894 79.69664,3067.19141 Z M69.0521088,3033.98828 L66.1224213,3058.20703 L71.2493744,3058.20703 C75.0254349,3058.20703 77.841162,3057.84896 79.69664,3057.13281 C81.682327,3056.41666 83.3424667,3055.19597 84.6771088,3053.4707 C86.5000345,3051.06184 87.4114838,3048.22983 87.4114838,3044.97461 C87.4114838,3041.166 86.3128619,3038.38282 84.1155853,3036.625 C81.9183087,3034.86718 78.4596844,3033.98828 73.7396088,3033.98828 L69.0521088,3033.98828 Z M150.961952,3023.58789 L147.055702,3055.61914 L177.524452,3023.58789 L191.63578,3023.58789 L156.47953,3058.64648 L188.120155,3098.97852 L174.643593,3098.97852 L146.225624,3062.21094 L141.733437,3098.97852 L130.551796,3098.97852 L139.82914,3023.58789 L150.961952,3023.58789 Z M264.658905,3033.20703 L257.188202,3040.33594 C253.640007,3035.12758 249.571037,3032.52344 244.981171,3032.52344 C241.660842,3032.52344 238.910218,3033.54882 236.729218,3035.59961 C234.548217,3037.6504 233.457733,3040.22199 233.457733,3043.31445 C233.457733,3045.78842 234.206424,3047.92056 235.703827,3049.71094 C236.452529,3050.5573 237.55115,3051.51757 238.999725,3052.5918 C240.4483,3053.66602 242.263061,3054.85416 244.444061,3056.15625 C250.921958,3059.93231 255.251342,3063.35025 257.432343,3066.41016 C259.645895,3069.50262 260.752655,3073.55531 260.752655,3078.56836 C260.752655,3085.07881 258.604239,3090.35219 254.307343,3094.38867 C250.075551,3098.42515 244.492924,3100.44336 237.559296,3100.44336 C231.960309,3100.44336 227.224029,3099.23894 223.350311,3096.83008 C221.397177,3095.62565 219.574278,3094.05502 217.881561,3092.11816 C216.188844,3090.18131 214.561257,3087.82944 212.998749,3085.0625 L221.494843,3079.30078 C223.806052,3083.36981 226.068399,3086.16926 228.281952,3087.69922 C230.495505,3089.22917 233.376335,3089.99414 236.92453,3089.99414 C240.863352,3089.99414 243.947631,3088.95248 246.17746,3086.86914 C248.407289,3084.7858 249.522186,3081.82359 249.522186,3077.98242 C249.522186,3075.34569 248.708392,3073.11589 247.08078,3071.29297 C246.266974,3070.34895 245.054421,3069.29102 243.443085,3068.11914 C241.831749,3066.94726 239.789126,3065.62891 237.315155,3064.16406 C231.651064,3060.81118 227.696026,3057.62111 225.449921,3054.59375 C223.301472,3051.56639 222.227264,3047.77411 222.227264,3043.2168 C222.227264,3037.12953 224.343129,3032.084 228.574921,3028.08008 C232.806713,3024.0436 238.145201,3022.02539 244.590546,3022.02539 C248.789785,3022.02539 252.370479,3022.87174 255.332733,3024.56445 C258.360092,3026.25717 261.468785,3029.138 264.658905,3033.20703 Z" id="WORKS" transform="translate(40.829453, 3062.040039) rotate(90.000000) translate(-40.829453, -3062.040039) "></path>
        </g>
    </g>
</svg>