<svg xmlns="http://www.w3.org/2000/svg" viewBox="0 0 365.02 67.82"><defs><style>.cls-1{fill:#e3752f;}</style></defs><title>tritty</title><g id="レイヤー_2" data-name="レイヤー 2"><g id="レイヤー_2-2" data-name="レイヤー 2"><path class="cls-1" d="M99.54,57.65V15.2H86.69V29.65H79V8.12h50.45V29.65h-7.7V15.2h-12.8V57.65H117v7.08H91.57V57.65Z"/><path class="cls-1" d="M138.39,57.65V15.2h-7.77V8.12h23a46.4,46.4,0,0,1,11.44,1.12,12.69,12.69,0,0,1,7,4.72,14.31,14.31,0,0,1,2.76,9q0,11.24-11.67,14.12l10,20.6h6.92v7.08H167.8L154.91,38.27h-8V57.65h7.25v7.08H130.62V57.65Zm8.54-26.46h6.68a29.37,29.37,0,0,0,7.14-.63A6.92,6.92,0,0,0,164.52,28,8.43,8.43,0,0,0,166,22.81a7.38,7.38,0,0,0-1.48-4.68,6.4,6.4,0,0,0-3.67-2.42,31.68,31.68,0,0,0-6.65-.51h-7.25Z"/><path class="cls-1" d="M187.82,57.65V15.2h-6.11V8.12h20.76V15.2h-6.11V57.65h6.11v7.08H181.71V57.65Z"/><path class="cls-1" d="M225,57.65V15.2H212.1V29.65h-7.7V8.12h50.45V29.65h-7.7V15.2h-12.8V57.65h8.1v7.08H217V57.65Z"/><path class="cls-1" d="M277.5,57.65V15.2H264.65V29.65H257V8.12h50.46V29.65h-7.7V15.2H286.9V57.65H295v7.08H269.53V57.65Z"/><path class="cls-1" d="M333.28,57.65V39L316.43,15.2h-6.92V8.12h23.28V15.2h-7.13l12.5,17.5,11.42-17.5h-7.11V8.12H365V15.2h-7.49L341.82,39V57.65h7.73v7.08H325.67V57.65Z"/><path class="cls-1" d="M0,23.16c.42.59,6.44-3.9,21.15-9.38,7.54-2.8,12.22-3.95,16.56-2,3.76,1.69,4.13,4.31,6.65,5.75,4,2.29,12.14.77,29.84-14.93C69.65,5.15,62.44,8.21,54.36,6.84,47.58,5.69,45.63,2.35,40.71.78,23.16-4.85-.9,21.9,0,23.16Z"/><path class="cls-1" d="M27.83,29.31a70.72,70.72,0,0,0-7.4,6.27C14,41.73,8.73,46.8,6.36,54.24c-.59,1.85-2.43,7.61-.33,11.1,1.93,3.23,6,2.49,7.25,2.19,3.7-.91,6.68-4,8.79-6.52C32.13,49.14,43.81,26.38,40.52,23.09,38.82,21.39,33.47,25.25,27.83,29.31Z"/></g></g></svg>