<?xml version="1.0" encoding="UTF-8"?>
<svg width="367px" height="68px" viewBox="0 0 367 68" version="1.1" xmlns="http://www.w3.org/2000/svg" xmlns:xlink="http://www.w3.org/1999/xlink">
    <!-- Generator: Sketch 51.3 (57544) - http://www.bohemiancoding.com/sketch -->
    <title>element/tritty/logo/bl</title>
    <desc>Created with Sketch.</desc>
    <defs></defs>
    <g id="element/tritty/logo/bl" stroke="none" stroke-width="1" fill="none" fill-rule="evenodd">
        <polygon id="Shape" fill="#180505" fill-rule="nonzero" points="100.54 57.65 100.54 15.2 87.69 15.2 87.69 29.65 80 29.65 80 8.12 130.45 8.12 130.45 29.65 122.75 29.65 122.75 15.2 109.95 15.2 109.95 57.65 118 57.65 118 64.73 92.57 64.73 92.57 57.65"></polygon>
        <path d="M139.39,57.65 L139.39,15.2 L131.62,15.2 L131.62,8.12 L154.62,8.12 C158.465015,8.01772505 162.307828,8.39394452 166.06,9.24 C168.863654,9.96828745 171.333764,11.6338476 173.06,13.96 C174.968671,16.5628819 175.941326,19.7345856 175.82,22.96 C175.82,30.4533333 171.93,35.16 164.15,37.08 L174.15,57.68 L181.07,57.68 L181.07,64.76 L168.8,64.76 L155.91,38.27 L147.91,38.27 L147.91,57.65 L155.16,57.65 L155.16,64.73 L131.62,64.73 L131.62,57.65 L139.39,57.65 Z M147.93,31.19 L154.61,31.19 C157.006795,31.272296 159.404647,31.0607208 161.75,30.56 C163.259656,30.1567848 164.588407,29.2545028 165.52,28 C166.568741,26.478926 167.088733,24.6554401 167,22.81 C167.055091,21.1268301 166.532857,19.4754429 165.52,18.13 C164.620772,16.9153136 163.320694,16.0580415 161.85,15.71 C159.657453,15.3064884 157.428437,15.1355413 155.2,15.2 L147.95,15.2 L147.93,31.19 Z" id="Shape" fill="#180505" fill-rule="nonzero"></path>
        <polygon id="Shape" fill="#180505" fill-rule="nonzero" points="188.82 57.65 188.82 15.2 182.71 15.2 182.71 8.12 203.47 8.12 203.47 15.2 197.36 15.2 197.36 57.65 203.47 57.65 203.47 64.73 182.71 64.73 182.71 57.65"></polygon>
        <polygon id="Shape" fill="#180505" fill-rule="nonzero" points="226 57.65 226 15.2 213.1 15.2 213.1 29.65 205.4 29.65 205.4 8.12 255.85 8.12 255.85 29.65 248.15 29.65 248.15 15.2 235.35 15.2 235.35 57.65 243.45 57.65 243.45 64.73 218 64.73 218 57.65"></polygon>
        <polygon id="Shape" fill="#180505" fill-rule="nonzero" points="278.5 57.65 278.5 15.2 265.65 15.2 265.65 29.65 258 29.65 258 8.12 308.46 8.12 308.46 29.65 300.76 29.65 300.76 15.2 287.9 15.2 287.9 57.65 296 57.65 296 64.73 270.53 64.73 270.53 57.65"></polygon>
        <polygon id="Shape" fill="#180505" fill-rule="nonzero" points="334.28 57.65 334.28 39 317.43 15.2 310.51 15.2 310.51 8.12 333.79 8.12 333.79 15.2 326.66 15.2 339.16 32.7 350.58 15.2 343.47 15.2 343.47 8.12 366 8.12 366 15.2 358.51 15.2 342.82 39 342.82 57.65 350.55 57.65 350.55 64.73 326.67 64.73 326.67 57.65"></polygon>
        <path d="M1,23.16 C1.42,23.75 7.44,19.26 22.15,13.78 C29.69,10.98 34.37,9.83 38.71,11.78 C42.47,13.47 42.84,16.09 45.36,17.53 C49.36,19.82 57.5,18.3 75.2,2.6 C70.65,5.15 63.44,8.21 55.36,6.84 C48.58,5.69 46.63,2.35 41.71,0.78 C24.16,-4.85 0.1,21.9 1,23.16 Z" id="Shape" fill="#180505" fill-rule="nonzero"></path>
        <path d="M28.83,29.31 C26.2227513,31.2281885 23.7502713,33.3231141 21.43,35.58 C15,41.73 9.73,46.8 7.36,54.24 C6.77,56.09 4.93,61.85 7.03,65.34 C8.96,68.57 13.03,67.83 14.28,67.53 C17.98,66.62 20.96,63.53 23.07,61.01 C33.13,49.14 44.81,26.38 41.52,23.09 C39.82,21.39 34.47,25.25 28.83,29.31 Z" id="Shape" fill="#180505" fill-rule="nonzero"></path>
    </g>
</svg>