<?xml version="1.0" encoding="UTF-8"?>
<svg width="99px" height="509px" viewBox="0 0 99 509" version="1.1" xmlns="http://www.w3.org/2000/svg" xmlns:xlink="http://www.w3.org/1999/xlink">
    <!-- Generator: Sketch 51.3 (57544) - http://www.bohemiancoding.com/sketch -->
    <title>TRITTY Copy</title>
    <desc>Created with Sketch.</desc>
    <defs></defs>
    <g id="Symbols" stroke="none" stroke-width="1" fill="none" fill-rule="evenodd">
        <path d="M-204.539062,205.632812 L-122.484375,205.632812 L-122.484375,218.148438 L-156.726562,218.148438 L-156.726562,304 L-170.859375,304 L-170.859375,218.148438 L-204.539062,218.148438 L-204.539062,205.632812 Z M-100.773438,304 L-100.773438,205.773438 L-76.1640625,205.773438 C-66.2265128,205.773438 -58.3398729,208.23435 -52.5039062,213.15625 C-46.6679396,218.07815 -43.75,224.734333 -43.75,233.125 C-43.75,238.843779 -45.1796732,243.789042 -48.0390625,247.960938 C-50.8984518,252.132833 -54.9999733,255.24999 -60.34375,257.3125 C-57.2031093,259.37501 -54.1328275,262.187482 -51.1328125,265.75 C-48.1327975,269.312518 -43.9140897,275.523393 -38.4765625,284.382812 C-35.0546704,289.960965 -32.3125103,294.156236 -30.25,296.96875 L-25.046875,304 L-41.78125,304 L-46.0703125,297.53125 C-46.2109382,297.296874 -46.4921854,296.89844 -46.9140625,296.335938 L-49.65625,292.46875 L-54.015625,285.296875 L-58.7265625,277.632812 C-61.632827,273.601542 -64.2929567,270.390637 -66.7070312,268 C-69.1211058,265.609363 -71.3007715,263.886724 -73.2460938,262.832031 C-75.191416,261.777338 -78.4609145,261.25 -83.0546875,261.25 L-86.7109375,261.25 L-86.7109375,304 L-100.773438,304 Z M-82.4921875,217.726562 L-86.7109375,217.726562 L-86.7109375,248.734375 L-81.3671875,248.734375 C-74.2421519,248.734375 -69.355482,248.125006 -66.7070312,246.90625 C-64.0585805,245.687494 -61.9961011,243.847669 -60.5195312,241.386719 C-59.0429614,238.925769 -58.3046875,236.125016 -58.3046875,232.984375 C-58.3046875,229.89061 -59.1249918,227.089856 -60.765625,224.582031 C-62.4062582,222.074206 -64.7148289,220.304693 -67.6914062,219.273438 C-70.6679836,218.242182 -75.601528,217.726562 -82.4921875,217.726562 Z M-6.078125,205.773438 L7.984375,205.773438 L7.984375,304 L-6.078125,304 L-6.078125,205.773438 Z M29.4140625,205.632812 L111.46875,205.632812 L111.46875,218.148438 L77.2265625,218.148438 L77.2265625,304 L63.09375,304 L63.09375,218.148438 L29.4140625,218.148438 L29.4140625,205.632812 Z M124.390625,205.632812 L206.445312,205.632812 L206.445312,218.148438 L172.203125,218.148438 L172.203125,304 L158.070312,304 L158.070312,218.148438 L124.390625,218.148438 L124.390625,205.632812 Z M286.867188,205.773438 L303.882812,205.773438 L267.601562,252.039062 L267.601562,304 L253.1875,304 L253.1875,252.039062 L216.90625,205.773438 L233.921875,205.773438 L260.21875,239.664062 L286.867188,205.773438 Z" id="TRITTY-Copy" fill="#000000" transform="translate(49.671875, 254.816406) rotate(90.000000) translate(-49.671875, -254.816406) "></path>
    </g>
</svg>