<svg xmlns="http://www.w3.org/2000/svg" viewBox="0 0 656.34 165.61"><defs><style>.cls-1{fill:#1a1a1a;}</style></defs><title>fondilogo-logo</title><g id="レイヤー_2" data-name="レイヤー 2"><g id="レイヤー_1-2" data-name="レイヤー 1"><path class="cls-1" d="M277.59,19.55a34.66,34.66,0,0,1,12.92,2.88,3.48,3.48,0,0,0,4.92-2.74l1.82-12.14a3.48,3.48,0,0,0-2.41-4,77.76,77.76,0,0,0-8.73-2.4A52.1,52.1,0,0,0,274.83,0a39.73,39.73,0,0,0-31.41,13.25C235.6,22.15,231,33.48,229.49,49.06H207.08a3.49,3.49,0,0,0-3.49,3.09l-1.51,11.57a3.51,3.51,0,0,0,.79,2.85,3.55,3.55,0,0,0,2.71,1.22H227L212.4,161.58a3.47,3.47,0,0,0,3.49,4H230.8a3.48,3.48,0,0,0,3.49-3.09l15-94.67h23.07a3.47,3.47,0,0,0,3.49-3.09l1.51-11.63a3.47,3.47,0,0,0-.78-2.84,3.44,3.44,0,0,0-2.68-1.23H252.12a37.56,37.56,0,0,1,7.6-21.9A22.19,22.19,0,0,1,277.59,19.55Z"/><path class="cls-1" d="M358,55.4a41.3,41.3,0,0,0-20.81-5.2,45.09,45.09,0,0,0-24.51,7.12,49.71,49.71,0,0,0-17.9,19.8,59.59,59.59,0,0,0-6.55,27.64,47.88,47.88,0,0,0,5.06,22.16,36.58,36.58,0,0,0,14.43,15.28,40.44,40.44,0,0,0,18.62,5.34,45.67,45.67,0,0,0,26.77-6.85A49.39,49.39,0,0,0,371,120.45a63.15,63.15,0,0,0,6.27-28.09,46.69,46.69,0,0,0-5.06-22A35.83,35.83,0,0,0,358,55.4ZM354.57,91a53.42,53.42,0,0,1-3.47,19.28v-.1a33,33,0,0,1-9.29,13.7,19.73,19.73,0,0,1-13.11,5,14.6,14.6,0,0,1-8.77-2.85,19.28,19.28,0,0,1-6.35-8.11,28.44,28.44,0,0,1-2.32-11.75,54.18,54.18,0,0,1,3.47-18.67,35.28,35.28,0,0,1,9.15-14.42,18.84,18.84,0,0,1,16.16-5,13.69,13.69,0,0,1,7.6,3.87A25.87,25.87,0,0,1,354.57,91Z"/><path class="cls-1" d="M478.19,62.55a22.68,22.68,0,0,0-8.3-10A24.87,24.87,0,0,0,456.28,49a34.36,34.36,0,0,0-16.46,4.36,72.29,72.29,0,0,0-16.59,12.81l1.58-11.3a3.58,3.58,0,0,0-3.6-4.19H405.55A3.58,3.58,0,0,0,402,53.85l-12.54,89.47a3.55,3.55,0,0,0,.81,2.93,3.61,3.61,0,0,0,2.78,1.26h15.67a3.6,3.6,0,0,0,3.59-3.15l8.3-58.76a70.7,70.7,0,0,1,15.52-14.07,23.9,23.9,0,0,1,11.67-4.36A8.66,8.66,0,0,1,455,70.74a13.8,13.8,0,0,1,2.66,8.77,55.25,55.25,0,0,1-.26,5.76c-.17,1.76-.53,4.62-1.11,8.59l-6.86,49.57a3.58,3.58,0,0,0,3.59,4.18h15.56a3.58,3.58,0,0,0,3.59-3.15L479.63,94c.29-2.36.54-4.33.75-5.94s.36-3,.47-4.29.18-2.44.22-3.58,0-2.33,0-3.58A33.23,33.23,0,0,0,478.19,62.55Z"/><path class="cls-1" d="M593.85,0H578.27a3.51,3.51,0,0,0-3.53,3.07l-6.81,46.09h-7.06a79.72,79.72,0,0,0-33.68,6.73,51.45,51.45,0,0,0-22.72,19.45,54.92,54.92,0,0,0-8.06,30,41.08,41.08,0,0,0,6.11,22.28A39.12,39.12,0,0,0,520,142.51a62.58,62.58,0,0,0,26.15,5.09A144.9,144.9,0,0,0,574.4,145a3.5,3.5,0,0,0,2.83-3L597.46,4.08a3.45,3.45,0,0,0-.82-2.88A3.55,3.55,0,0,0,593.85,0ZM557,126.05a3.51,3.51,0,0,1-3.11,3.07,59.39,59.39,0,0,1-7.06.34,27.8,27.8,0,0,1-19.76-7,23.88,23.88,0,0,1-7.31-18.34,36.76,36.76,0,0,1,5-19.25,32.35,32.35,0,0,1,14.13-12.69,50,50,0,0,1,22.09-4.43h4.24Z"/><path class="cls-1" d="M624.77,34.77a11.52,11.52,0,0,0,5.94,1.63,12.16,12.16,0,0,0,10.42-6,11.19,11.19,0,0,0,1.59-5.81,11.7,11.7,0,0,0-1.56-5.94,11.31,11.31,0,0,0-4.34-4.42,12,12,0,0,0-6.11-1.63,11.52,11.52,0,0,0-6,1.63,11.79,11.79,0,0,0-4.28,4.42,12.08,12.08,0,0,0-1.53,5.94A11.78,11.78,0,0,0,624.77,34.77Z"/><path class="cls-1" d="M652.76,124.75a55,55,0,0,0-6.06,1.36,18.19,18.19,0,0,1-5.81,1,9.1,9.1,0,0,1-6.55-2.38,7.39,7.39,0,0,1-2.45-5.6,45.56,45.56,0,0,1,.49-6.06l.52-3.5a2.73,2.73,0,0,1,.25-1.37l6.68-55a3.49,3.49,0,0,0-3.5-4.13H620.88a3.49,3.49,0,0,0-3.5,3.08L610,113.23a87.42,87.42,0,0,0-1.33,12.6,19.8,19.8,0,0,0,3.29,11.1,22,22,0,0,0,9.14,7.88,35.73,35.73,0,0,0,23.3,1.54,33.54,33.54,0,0,0,7.53-2.59,4,4,0,0,0,2-3.11L656.34,128C656.34,125.17,655.78,124.64,652.76,124.75Z"/><path class="cls-1" d="M82.67,0a82.66,82.66,0,1,0,58.45,24.21A82.67,82.67,0,0,0,82.67,0ZM54.11,58.08a7.22,7.22,0,0,1,4.48-3.82,6,6,0,0,1,5.71,1.65,13.22,13.22,0,0,1,2.58,3.28,17,17,0,0,1,1.84,13.56l-.24.78a17.17,17.17,0,0,0,8.86,20.08,1.55,1.55,0,0,1,.93,1.27,1.59,1.59,0,0,1-.65,1.43,1.45,1.45,0,0,1-1.09.27,27.65,27.65,0,0,1-19.84-12l-.81-1.23A27.73,27.73,0,0,1,54.11,58.08Zm-4.9,45.48c0-3.88,3.18-9,11-8.39A18.05,18.05,0,0,1,70,99.53c4.84,3,9.26,1.38,9,3.37-.57,5-12,9-18.19,9S49.21,108.7,49.21,103.56Zm50,14.94,0,.09a18.53,18.53,0,0,1-1.59,1.08,35.67,35.67,0,0,1-29.55,4.18,2,2,0,0,1-1.15-.84,2.06,2.06,0,0,1,.64-2.8,2.13,2.13,0,0,1,1-.33,21.63,21.63,0,0,0,11.6-4.12,21.93,21.93,0,0,0,9-15.21v-1a21.87,21.87,0,0,1,9-15.18A16.58,16.58,0,0,1,103,81.73a7.82,7.82,0,0,1,7.6.91,9.33,9.33,0,0,1,3.64,6.67A35.57,35.57,0,0,1,99.2,118.5Zm16.77-69v.09a17.13,17.13,0,0,1-1.74,5A21.64,21.64,0,0,1,101,66.13l-1,.3A22,22,0,0,0,84.71,89.94,1.91,1.91,0,0,1,81.07,91a35.36,35.36,0,0,1-1-29.58c.24-.6.48-1.17.75-1.74a35.45,35.45,0,0,1,25.94-19.6,9.25,9.25,0,0,1,7.19,2.13A7.76,7.76,0,0,1,116,49.54Z"/></g></g></svg>