<?xml version="1.0" encoding="UTF-8"?>
<svg width="102px" height="535px" viewBox="0 0 102 535" version="1.1" xmlns="http://www.w3.org/2000/svg" xmlns:xlink="http://www.w3.org/1999/xlink">
    <!-- Generator: Sketch 51.3 (57544) - http://www.bohemiancoding.com/sketch -->
    <title>POSTER</title>
    <desc>Created with Sketch.</desc>
    <defs></defs>
    <g id="Symbols" stroke="none" stroke-width="1" fill="none" fill-rule="evenodd">
        <path d="M-215.945312,317 L-215.945312,218.632812 L-184.796875,218.632812 C-175.421828,218.632812 -167.94534,221.164037 -162.367188,226.226562 C-156.789035,231.289088 -154,238.085895 -154,246.617188 C-154,252.335966 -155.429673,257.398415 -158.289062,261.804688 C-161.148452,266.21096 -165.062475,269.410146 -170.03125,271.402344 C-175.000025,273.394541 -182.124954,274.390625 -191.40625,274.390625 L-201.8125,274.390625 L-201.8125,317 L-215.945312,317 Z M-187.257812,231.148438 L-201.8125,231.148438 L-201.8125,261.875 L-186.414062,261.875 C-180.695284,261.875 -176.289078,260.527357 -173.195312,257.832031 C-170.101547,255.136705 -168.554688,251.281275 -168.554688,246.265625 C-168.554688,236.18745 -174.789,231.148438 -187.257812,231.148438 Z M-85.53125,217.367188 C-70.3436741,217.367188 -57.6992693,222.171827 -47.5976562,231.78125 C-37.4960432,241.390673 -32.4453125,253.437428 -32.4453125,267.921875 C-32.4453125,282.406322 -37.5429178,294.394484 -47.7382812,303.886719 C-57.9336447,313.378954 -70.7889849,318.125 -86.3046875,318.125 C-101.117262,318.125 -113.456982,313.378954 -123.324219,303.886719 C-133.191456,294.394484 -138.125,282.500071 -138.125,268.203125 C-138.125,253.531177 -133.1563,241.390673 -123.21875,231.78125 C-113.2812,222.171827 -100.718826,217.367188 -85.53125,217.367188 Z M-84.96875,230.726562 C-96.2188062,230.726562 -105.464808,234.242152 -112.707031,241.273438 C-119.949255,248.304723 -123.570312,257.281195 -123.570312,268.203125 C-123.570312,278.796928 -119.937536,287.60934 -112.671875,294.640625 C-105.406214,301.67191 -96.3125546,305.1875 -85.390625,305.1875 C-74.4218202,305.1875 -65.2695679,301.601598 -57.9335938,294.429688 C-50.5976196,287.257777 -46.9296875,278.328178 -46.9296875,267.640625 C-46.9296875,257.234323 -50.5976196,248.480504 -57.9335938,241.378906 C-65.2695679,234.277308 -74.2811966,230.726562 -84.96875,230.726562 Z M17.109375,275.796875 L6.421875,269.328125 C-0.281283516,265.24998 -5.05076707,261.230489 -7.88671875,257.269531 C-10.7226704,253.308574 -12.140625,248.750026 -12.140625,243.59375 C-12.140625,235.859336 -9.45705809,229.578149 -4.08984375,224.75 C1.27737059,219.921851 8.24995711,217.507812 16.828125,217.507812 C25.031291,217.507812 32.5546533,219.804665 39.3984375,224.398438 L39.3984375,240.359375 C32.3202771,233.562466 24.7031658,230.164062 16.546875,230.164062 C11.953102,230.164062 8.17970227,231.230458 5.2265625,233.363281 C2.27342273,235.496104 0.796875,238.226546 0.796875,241.554688 C0.796875,244.507827 1.87498922,247.273425 4.03125,249.851562 C6.18751078,252.4297 9.67966336,255.124986 14.5078125,257.9375 L25.265625,264.265625 C37.265685,271.390661 43.265625,280.48432 43.265625,291.546875 C43.265625,299.421914 40.6289326,305.820288 35.3554688,310.742188 C30.0820049,315.664087 23.2266047,318.125 14.7890625,318.125 C5.08588898,318.125 -3.74996016,315.148467 -11.71875,309.195312 L-11.71875,291.335938 C-4.12496203,300.945361 4.66401258,305.75 14.6484375,305.75 C19.0547095,305.75 22.7226416,304.519544 25.6523438,302.058594 C28.5820459,299.597644 30.046875,296.515644 30.046875,292.8125 C30.046875,286.81247 25.7344181,281.140652 17.109375,275.796875 Z M58.3671875,218.632812 L140.421875,218.632812 L140.421875,231.148438 L106.179688,231.148438 L106.179688,317 L92.046875,317 L92.046875,231.148438 L58.3671875,231.148438 L58.3671875,218.632812 Z M161.710938,218.773438 L217.398438,218.773438 L217.398438,231.289062 L175.773438,231.289062 L175.773438,261.242188 L215.992188,261.242188 L215.992188,273.828125 L175.773438,273.828125 L175.773438,304.34375 L218.734375,304.34375 L218.734375,316.859375 L161.710938,316.859375 L161.710938,218.773438 Z M242.132812,317 L242.132812,218.773438 L266.742188,218.773438 C276.679737,218.773438 284.566377,221.23435 290.402344,226.15625 C296.23831,231.07815 299.15625,237.734333 299.15625,246.125 C299.15625,251.843779 297.726577,256.789042 294.867188,260.960938 C292.007798,265.132833 287.906277,268.24999 282.5625,270.3125 C285.703141,272.37501 288.773422,275.187482 291.773438,278.75 C294.773453,282.312518 298.99216,288.523393 304.429688,297.382812 C307.85158,302.960965 310.59374,307.156236 312.65625,309.96875 L317.859375,317 L301.125,317 L296.835938,310.53125 C296.695312,310.296874 296.414065,309.89844 295.992188,309.335938 L293.25,305.46875 L288.890625,298.296875 L284.179688,290.632812 C281.273423,286.601542 278.613293,283.390637 276.199219,281 C273.785144,278.609363 271.605478,276.886724 269.660156,275.832031 C267.714834,274.777338 264.445335,274.25 259.851562,274.25 L256.195312,274.25 L256.195312,317 L242.132812,317 Z M260.414062,230.726562 L256.195312,230.726562 L256.195312,261.734375 L261.539062,261.734375 C268.664098,261.734375 273.550768,261.125006 276.199219,259.90625 C278.847669,258.687494 280.910149,256.847669 282.386719,254.386719 C283.863289,251.925769 284.601562,249.125016 284.601562,245.984375 C284.601562,242.89061 283.781258,240.089856 282.140625,237.582031 C280.499992,235.074206 278.191421,233.304693 275.214844,232.273438 C272.238266,231.242182 267.304722,230.726562 260.414062,230.726562 Z" id="POSTER" fill="#000000" transform="translate(50.957031, 267.746094) rotate(90.000000) translate(-50.957031, -267.746094) "></path>
    </g>
</svg>