<?xml version="1.0" encoding="utf-8"?>
<!-- Generator: Adobe Illustrator 23.0.1, SVG Export Plug-In . SVG Version: 6.00 Build 0)  -->
<svg version="1.1" id="レイヤー_1" xmlns="http://www.w3.org/2000/svg" xmlns:xlink="http://www.w3.org/1999/xlink" x="0px"
	 y="0px" viewBox="0 0 200 39.4" style="enable-background:new 0 0 200 39.4;" xml:space="preserve">
<g transform="translate(-0.001 -0.001)">
	<path id="パス_121" d="M113.7,11.5c1.4,0,2.8,0.7,3.7,1.7c1,1,1.7,2.3,2.1,3.6c0.4,1.3,0.6,2.8,0.6,4.2c0,1.4-0.2,2.8-0.6,4.2
		c-0.4,1.4-1.1,2.6-2.1,3.6c-1,1.1-2.3,1.7-3.7,1.7h-11.9c-1.1,0-2.1-1-2.1-2.1c0-0.6,0.2-1.1,0.6-1.5c0.4-0.4,0.9-0.7,1.5-0.7h10.8
		c0.8,0,1.5-0.4,2-0.9c0.5-0.6,0.9-1.2,1.2-2c0.5-1.5,0.5-3.1,0-4.5c-0.2-0.7-0.6-1.4-1.2-2c-0.5-0.6-1.3-0.9-2-0.9h-10.8
		c-1.1,0-2.1-0.9-2.1-2c0,0,0,0,0,0c0-0.6,0.2-1.1,0.6-1.6c0.4-0.4,0.9-0.7,1.5-0.7L113.7,11.5L113.7,11.5z"/>
	<path id="パス_122" d="M124.7,13.7c0-1.2,0.9-2.2,2.1-2.2c0,0,0,0,0,0h8.3c1.2,0,2.1,0.9,2.2,2c0,0,0,0.1,0,0.1
		c0,1.2-0.9,2.2-2.1,2.2c0,0,0,0,0,0h-8.3C125.7,15.8,124.8,14.8,124.7,13.7z M146.3,13.8l-3,9.2c-0.6,2.1-1.7,4-3.2,5.5
		c-1.1,1.2-2.6,1.9-4.3,2h-6c-1.2,0-2.1-0.9-2.1-2.1c0-0.6,0.2-1.1,0.6-1.5c0.4-0.4,0.9-0.7,1.5-0.7h5c0.9-0.1,1.7-0.4,2.3-0.9
		c0.7-0.5,1.2-1.2,1.6-2c0.4-0.8,0.7-1.6,0.9-2.4l2.6-8.5c0.1-0.4,0.4-0.8,0.7-1.1c0.4-0.3,0.9-0.5,1.3-0.4c0.6,0,1.1,0.2,1.5,0.6
		c0.4,0.4,0.6,1,0.6,1.5C146.5,13.3,146.4,13.6,146.3,13.8L146.3,13.8z"/>
	<path id="パス_123" d="M157.9,11c0.6,0,1.1,0.2,1.5,0.6c0.4,0.4,0.6,0.9,0.6,1.5v8.2c0,1.5-0.2,2.9-0.6,4.3
		c-0.4,1.3-1.1,2.5-2.1,3.4c-1,1-2.3,1.5-3.7,1.5h-2.1c-1.1,0-2.1-1-2.1-2.1c0-0.6,0.2-1.1,0.6-1.5c0.4-0.4,0.9-0.7,1.5-0.7h0.9
		c0.8,0,1.5-0.4,2-0.9c0.5-0.6,0.9-1.2,1-2c0.1-0.8,0.2-1.6,0.2-2.4v-7.8c0-0.6,0.3-1.1,0.7-1.5C156.7,11.2,157.3,11,157.9,11z
		 M165.8,10.8c0-1,0.4-1.9,1-2.5c1.4-1.4,3.7-1.4,5.1,0c0.7,0.7,1.1,1.6,1,2.5c0,2-1.6,3.6-3.6,3.6c-0.4,0-0.8-0.1-1.2-0.2v6.6
		c0,0.8,0,1.6,0.2,2.4c0.1,0.7,0.5,1.4,1,2c0.5,0.6,1.3,0.9,2,0.9h1c0.6,0,1.1,0.3,1.5,0.7c0.4,0.4,0.6,1,0.6,1.5
		c0,1.1-1,2.1-2.1,2.1h-2.1c-1.4,0-2.7-0.6-3.7-1.5c-1-1-1.7-2.1-2.1-3.5c-0.4-1.4-0.6-2.9-0.6-4.3v-8.2c0-0.6,0.2-1.1,0.6-1.5
		c0.4-0.3,0.8-0.5,1.3-0.6L165.8,10.8z M167.5,10.8c0,1,0.8,1.9,1.9,1.9l0,0c0.5,0,1-0.2,1.3-0.6c0.4-0.3,0.6-0.8,0.5-1.3
		c0-1-0.8-1.8-1.8-1.8c-0.5,0-1,0.2-1.3,0.5C167.7,9.9,167.5,10.3,167.5,10.8L167.5,10.8z"/>
	<path id="パス_124" d="M177.9,13.7c0-1.2,0.9-2.2,2.1-2.2c0,0,0,0,0,0h16.2c1.2,0,2.1,0.9,2.2,2c0,0,0,0.1,0,0.1
		c0,0.4-0.1,0.7-0.3,1.1l-4.5,7.3l5.6,5.3c0.8,0.8,0.9,2.1,0.1,2.9c0,0,0,0,0,0c-0.4,0.4-0.9,0.7-1.5,0.7c-0.6,0.1-1.1-0.1-1.5-0.5
		l-5.1-4.8c-0.8,1.1-1.8,2-2.8,2.8c-1.4,1.1-3,1.8-4.8,2h-3.4c-1.1,0-2.1-1-2.1-2.1c0-0.6,0.2-1.1,0.6-1.5c0.4-0.4,0.9-0.7,1.5-0.7
		h3c0.9-0.1,1.8-0.4,2.5-0.9c0.8-0.5,1.6-1.2,2.2-2c0.6-0.8,1.2-1.6,1.6-2.4l3-5h-12.6C178.9,15.8,177.9,14.8,177.9,13.7L177.9,13.7
		z"/>
	<path id="パス_125" d="M65,7.6h0.2c0.5,0,0.9,0.2,1.2,0.5c0.3,0.3,0.5,0.7,0.5,1.2c0,2.1-0.2,4.2-0.4,6.2
		c-0.1,0.9-0.3,1.8-0.8,2.5c-0.5,0.6-1.3,1-2.1,1.1c-0.4,0-1,0.1-1.7,0.1c-0.4,0-0.8-0.1-1.1-0.4c-0.3-0.3-0.6-0.7-0.7-1.1
		c0-0.1-0.1-0.2-0.1-0.3c0-0.2,0.1-0.4,0.2-0.6c0.2-0.2,0.4-0.4,0.7-0.4h1c0.3,0,0.7-0.1,0.9-0.3c0.3-0.4,0.6-2.2,0.8-5.5
		c0-0.1,0-0.1-0.1-0.2c-0.1-0.1-0.1-0.1-0.2-0.1H61c-0.2,0-0.3,0.1-0.3,0.2c0,0,0,0,0,0c-0.2,1.6-0.5,3.2-1.1,4.8
		c-0.6,1.3-1.5,2.5-2.6,3.4c-0.3,0.2-0.7,0.4-1.2,0.4c-0.2,0-0.4,0-0.5-0.1c-0.6-0.2-1.2-0.5-1.6-0.9c0,0-0.1-0.1-0.1-0.1
		c-0.1-0.1-0.1-0.1-0.2,0c-0.3,0.1-0.6,0.1-0.8,0c-0.3-0.1-0.5-0.3-0.6-0.6c0-0.1-0.1-0.1-0.2-0.1c-1.9,0.5-4.5,1.2-7.7,2.1
		c-0.1,0-0.3,0.1-0.4,0.1c-0.3,0-0.6-0.1-0.8-0.2c-0.4-0.2-0.6-0.6-0.7-1c0-0.1-0.1-0.3-0.1-0.4c0-0.3,0.1-0.6,0.2-0.8
		c0.2-0.4,0.6-0.6,1-0.7l0.5-0.1c0.1,0,0.2-0.1,0.2-0.3c0,0,0,0,0,0L43.6,10c0-0.6,0.2-1.1,0.6-1.5c0.3-0.3,0.7-0.4,1.1-0.4
		c0.2,0,0.3,0,0.5,0.1L46,8.3c0.2,0,0.4,0,0.5,0c1.5-0.5,2.8-0.9,3.9-1.4c0.3-0.1,0.6-0.2,0.9-0.2c0.2,0,0.3,0,0.5,0.1
		c0.5,0.1,0.9,0.3,1.2,0.7c0.2,0.2,0.3,0.4,0.3,0.7c0,0.1,0,0.2,0,0.3c-0.1,0.4-0.4,0.7-0.7,0.8c-1.5,0.5-3.3,1-5.4,1.5
		c-0.2,0-0.3,0.2-0.3,0.4c0,0,0,0,0,0l0.2,4c0,0.1,0.1,0.2,0.2,0.2c0,0,0,0,0.1,0l2.7-0.6c0.1,0,0.1-0.1,0.1-0.1c0-0.1,0-0.1,0-0.2
		c-0.2-0.2-0.3-0.5-0.5-0.7c-0.2-0.2-0.2-0.5-0.2-0.7c0-0.1,0-0.2,0.1-0.3c0.1-0.4,0.3-0.7,0.7-0.8c0.2-0.1,0.5-0.2,0.8-0.2
		c0.1,0,0.3,0,0.4,0c0.4,0.1,0.8,0.3,1,0.7c0.9,1.2,1.6,2.5,2.3,3.8c0,0.1,0.1,0.1,0.2,0.1c0.1,0,0.1,0,0.2,0
		c0.7-0.6,1.3-1.5,1.7-2.4c0.4-1,0.6-2.1,0.7-3.2c0-0.1,0-0.1-0.1-0.2c0-0.1-0.1-0.1-0.2-0.1h-1c-0.8,0-1.4-0.6-1.4-1.4
		c0-0.4,0.1-0.7,0.4-1c0.3-0.3,0.6-0.4,1-0.4L65,7.6C65,7.6,65,7.6,65,7.6L65,7.6z M47.2,32.8c-0.9,0-1.6-0.7-1.6-1.6v-8.4
		c0-1.3,1.1-2.4,2.4-2.4h14.3c1.3,0,2.4,1.1,2.4,2.4V31c0,0.4-0.2,0.9-0.5,1.2c-0.3,0.3-0.8,0.5-1.2,0.5h-0.8
		c-0.2,0-0.5-0.1-0.6-0.2c-0.2-0.2-0.3-0.4-0.3-0.6c0-0.1,0-0.1-0.1-0.1H48.9c-0.1,0-0.1,0-0.1,0.1c0,0.3-0.1,0.5-0.3,0.7
		c-0.2,0.2-0.4,0.3-0.7,0.3L47.2,32.8z M53.3,23.3c0-0.1-0.1-0.3-0.2-0.3c0,0,0,0-0.1,0h-4c-0.1,0-0.3,0.1-0.3,0.2c0,0,0,0,0,0.1
		v1.2c0,0.1,0.1,0.3,0.2,0.3c0,0,0,0,0.1,0h4c0.1,0,0.3-0.1,0.3-0.2c0,0,0,0,0-0.1L53.3,23.3z M48.8,28.8c0,0.1,0.1,0.3,0.2,0.3
		c0,0,0,0,0.1,0h4c0.1,0,0.3-0.1,0.3-0.2c0,0,0,0,0-0.1v-1.2c0-0.1-0.1-0.3-0.2-0.3c0,0,0,0-0.1,0h-4c-0.1,0-0.3,0.1-0.3,0.2
		c0,0,0,0,0,0.1L48.8,28.8z M61,24.8c0.1,0,0.3-0.1,0.3-0.2c0,0,0,0,0-0.1v-1.2c0-0.1-0.1-0.3-0.2-0.3c0,0,0,0-0.1,0h-4.3
		c-0.1,0-0.3,0.1-0.3,0.2c0,0,0,0,0,0.1v1.2c0,0.1,0.1,0.3,0.2,0.3c0,0,0,0,0.1,0H61z M56.4,28.8c0,0.1,0.1,0.3,0.2,0.3
		c0,0,0,0,0.1,0H61c0.1,0,0.3-0.1,0.3-0.2c0,0,0,0,0-0.1v-1.2c0-0.1-0.1-0.3-0.2-0.3c0,0,0,0-0.1,0h-4.3c-0.1,0-0.3,0.1-0.3,0.2
		c0,0,0,0,0,0.1V28.8z"/>
	<path id="パス_126" d="M94.3,22.1c0.9,0,1.5,0.8,1.5,1.6c0,0.8-0.7,1.4-1.5,1.5h-9.1c-0.1,0-0.3,0.1-0.3,0.2c0,0,0,0,0,0.1V29
		c0,0.7-0.1,1.4-0.4,2.1c-0.3,0.5-0.8,0.9-1.3,1.1c-1.2,0.4-2.5,0.5-3.7,0.5h-0.1c-0.5,0-0.9-0.2-1.3-0.4c-0.4-0.3-0.8-0.7-0.9-1.2
		c-0.1-0.1-0.1-0.3-0.1-0.4c0-0.2,0.1-0.4,0.2-0.6c0.2-0.3,0.5-0.5,0.9-0.5h2.7c0.2,0,0.4,0,0.6-0.1c0.1-0.1,0.2-0.3,0.2-0.4v-3.5
		c0-0.1-0.1-0.3-0.2-0.3c0,0,0,0-0.1,0h-9c-0.9,0-1.6-0.6-1.6-1.5c0-0.9,0.6-1.6,1.5-1.6c0.1,0,0.1,0,0.2,0h9.1
		c0.1,0,0.2-0.1,0.2-0.2c0,0,0,0,0,0v-0.1c0-0.8,0.7-1.5,1.5-1.5c0,0,0,0,0,0c0.1,0,0.2,0,0.3-0.1c0.6-0.4,1.2-0.8,1.8-1.3
		c0,0,0-0.1,0-0.1c0,0,0-0.1-0.1-0.1h-8c-0.8,0-1.4-0.6-1.4-1.4s0.6-1.4,1.4-1.4c0,0,0,0,0,0h11.2c0,0,0.1,0,0.1,0
		c0.1,0,0.2,0,0.3,0c0.3,0,0.6,0.1,0.8,0.3l0.6,0.4c0.3,0.2,0.5,0.6,0.5,1c0,0.3-0.1,0.6-0.4,0.8c-1.4,1.4-3,2.6-4.7,3.6
		c0,0,0,0.1,0,0.1c0,0,0,0.1,0.1,0.1L94.3,22.1z M74.4,13.6c-0.1,0-0.3,0.1-0.3,0.2c0,0,0,0,0,0.1v2.2c0,0.4-0.2,0.8-0.5,1.1
		c-0.6,0.6-1.6,0.6-2.2,0c-0.3-0.3-0.5-0.7-0.5-1.1v-3c0-1.3,1.1-2.4,2.4-2.4h1.2c0.1,0,0.1,0,0.1-0.1c0,0,0-0.1,0-0.2
		c-0.3-0.5-0.6-1-0.9-1.4c-0.2-0.2-0.2-0.5-0.2-0.7c0-0.1,0-0.2,0-0.4c0.1-0.4,0.4-0.7,0.7-0.9c0.3-0.1,0.6-0.2,0.9-0.2
		c0.2,0,0.3,0,0.5,0.1c0.4,0.1,0.8,0.3,1.1,0.7c0.4,0.6,0.8,1.1,1.2,1.7c0.1,0.2,0.2,0.5,0.1,0.7c-0.1,0.2-0.2,0.4-0.5,0.6v0h4
		c0.1,0,0.1,0,0.2-0.1c0-0.1,0-0.1,0-0.2c-0.2-0.6-0.5-1.2-0.9-1.9c-0.1-0.2-0.2-0.4-0.2-0.7c0-0.1,0-0.3,0.1-0.4
		c0.1-0.4,0.4-0.7,0.7-0.8c0.2-0.1,0.5-0.1,0.7-0.1c0.2,0,0.4,0,0.6,0.1c0.4,0.1,0.8,0.4,1,0.8c0.3,0.5,0.6,1,0.9,1.5
		c0.1,0.2,0.1,0.3,0.1,0.5c0,0.2,0,0.3-0.1,0.5c-0.1,0.3-0.4,0.6-0.7,0.7c0,0,0,0,0,0s0,0,0,0h3.9c0.2,0,0.3-0.1,0.4-0.2
		c0.5-0.8,1-1.6,1.4-2.4c0.3-0.5,0.7-0.8,1.1-1C91,7,91.3,6.9,91.6,6.9c0.2,0,0.5,0.1,0.7,0.1c0.4,0.1,0.7,0.5,0.9,0.9
		c0,0.1,0.1,0.3,0.1,0.4c0,0.3-0.1,0.6-0.3,0.8c-0.4,0.5-0.7,0.9-1,1.3c0,0,0,0.1,0,0.1c0,0,0.1,0.1,0.1,0.1h1.1
		c1.3,0,2.4,1.1,2.4,2.4V16c0,0.4-0.2,0.9-0.5,1.2c-0.6,0.6-1.7,0.6-2.3,0c0,0,0,0,0,0c-0.3-0.3-0.5-0.7-0.5-1.2v-2.1
		c0-0.1-0.1-0.3-0.2-0.3c0,0,0,0-0.1,0L74.4,13.6z"/>
	<g>
		<g id="レイヤー_1-2">
			<path id="パス_127" d="M34.7,7c1.2-1.9,1.8-3.2,1.3-3.7s-1.9,0.1-3.7,1.3C24-2.4,11.6-1.3,4.6,7S-1.3,27.8,7,34.8
				s20.7,5.9,27.7-2.4C40.9,25,40.9,14.3,34.7,7L34.7,7z M22.6,31.7c-8.2,0-14.9-6.7-14.9-14.9c0-8.2,6.7-14.9,14.9-14.9
				c3.3,0,6.5,1.1,9.1,3.1c-2.2,1.6-4.2,3.4-6.1,5.3c-1.2,1.2-2.2,2.3-3.1,3.4h-4.2c-0.8,0-1.4,0.6-1.4,1.4l0,0v0.2
				c0,0.8,0.6,1.4,1.4,1.4l0,0h1.8c-1.4,2-2,3.5-1.5,4s2-0.1,4.1-1.5v1.8c0,0.8,0.6,1.4,1.4,1.4c0,0,0,0,0,0h0.2
				c0.8,0,1.4-0.6,1.4-1.4c0,0,0,0,0,0v-4.2c1.1-0.9,2.2-2,3.4-3.1c1.9-1.9,3.7-3.9,5.3-6.1c5.1,6.5,4,15.8-2.5,20.9
				C29.2,30.6,26,31.7,22.6,31.7z"/>
		</g>
	</g>
</g>
</svg>
