<?xml version="1.0" encoding="UTF-8"?>
<svg width="102px" height="1372px" viewBox="0 0 102 1372" version="1.1" xmlns="http://www.w3.org/2000/svg" xmlns:xlink="http://www.w3.org/1999/xlink">
    <!-- Generator: Sketch 51.3 (57544) - http://www.bohemiancoding.com/sketch -->
    <title>RYUGAKUCOMPASS</title>
    <desc>Created with Sketch.</desc>
    <defs></defs>
    <g id="Symbols" stroke="none" stroke-width="1" fill="none" fill-rule="evenodd">
        <g id="body/ryuugakucompas" transform="translate(-799.000000, -63.000000)" fill="#000000">
            <path d="M164.25,798 L164.25,699.773438 L188.859375,699.773438 C198.796925,699.773438 206.683565,702.23435 212.519531,707.15625 C218.355498,712.07815 221.273438,718.734333 221.273438,727.125 C221.273438,732.843779 219.843764,737.789042 216.984375,741.960938 C214.124986,746.132833 210.023464,749.24999 204.679688,751.3125 C207.820328,753.37501 210.89061,756.187482 213.890625,759.75 C216.89064,763.312518 221.109348,769.523393 226.546875,778.382812 C229.968767,783.960965 232.710927,788.156236 234.773438,790.96875 L239.976562,798 L223.242188,798 L218.953125,791.53125 C218.812499,791.296874 218.531252,790.89844 218.109375,790.335938 L215.367188,786.46875 L211.007812,779.296875 L206.296875,771.632812 C203.39061,767.601542 200.730481,764.390637 198.316406,762 C195.902332,759.609363 193.722666,757.886724 191.777344,756.832031 C189.832022,755.777338 186.562523,755.25 181.96875,755.25 L178.3125,755.25 L178.3125,798 L164.25,798 Z M182.53125,711.726562 L178.3125,711.726562 L178.3125,742.734375 L183.65625,742.734375 C190.781286,742.734375 195.667956,742.125006 198.316406,740.90625 C200.964857,739.687494 203.027336,737.847669 204.503906,735.386719 C205.980476,732.925769 206.71875,730.125016 206.71875,726.984375 C206.71875,723.89061 205.898446,721.089856 204.257812,718.582031 C202.617179,716.074206 200.308609,714.304693 197.332031,713.273438 C194.355454,712.242182 189.421909,711.726562 182.53125,711.726562 Z M303.523438,699.773438 L320.539062,699.773438 L284.257812,746.039062 L284.257812,798 L269.84375,798 L269.84375,746.039062 L233.5625,699.773438 L250.578125,699.773438 L276.875,733.664062 L303.523438,699.773438 Z M407.710938,699.773438 L421.84375,699.773438 L421.84375,755.53125 C421.84375,763.078163 421.292974,768.773418 420.191406,772.617188 C419.089838,776.460957 417.730477,779.660143 416.113281,782.214844 C414.496086,784.769544 412.515637,787.054677 410.171875,789.070312 C402.390586,795.773471 392.218813,799.125 379.65625,799.125 C366.859311,799.125 356.593789,795.796908 348.859375,789.140625 C346.515613,787.078115 344.535164,784.769544 342.917969,782.214844 C341.300773,779.660143 339.964849,776.531269 338.910156,772.828125 C337.855463,769.124981 337.328125,763.31254 337.328125,755.390625 L337.328125,699.773438 L351.460938,699.773438 L351.460938,755.53125 C351.460938,764.765671 352.515614,771.187482 354.625,774.796875 C356.734386,778.406268 359.945291,781.30077 364.257812,783.480469 C368.570334,785.660167 373.656221,786.75 379.515625,786.75 C387.859417,786.75 394.656224,784.570334 399.90625,780.210938 C402.671889,777.867176 404.664056,775.101578 405.882812,771.914062 C407.101569,768.726547 407.710938,763.265664 407.710938,755.53125 L407.710938,699.773438 Z M502.40625,749.625 L535.382812,749.625 L535.382812,791.25 C523.289002,796.500026 511.289122,799.125 499.382812,799.125 C483.117106,799.125 470.121142,794.378954 460.394531,784.886719 C450.66792,775.394484 445.804688,763.68757 445.804688,749.765625 C445.804688,735.093677 450.8437,722.882861 460.921875,713.132812 C471.00005,703.382764 483.632737,698.507812 498.820312,698.507812 C504.35159,698.507812 509.601538,699.105463 514.570312,700.300781 C519.539087,701.4961 525.820275,703.687484 533.414062,706.875 L533.414062,721.21875 C521.695254,714.421841 510.07037,711.023438 498.539062,711.023438 C487.804634,711.023438 478.757849,714.679651 471.398438,721.992188 C464.039026,729.304724 460.359375,738.281197 460.359375,748.921875 C460.359375,760.078181 464.039026,769.195277 471.398438,776.273438 C478.757849,783.351598 488.226505,786.890625 499.804688,786.890625 C505.429716,786.890625 512.156211,785.601575 519.984375,783.023438 L521.320312,782.601562 L521.320312,762.140625 L502.40625,762.140625 L502.40625,749.625 Z M595.273438,699.210938 L605.1875,699.210938 L649.132812,798 L634.71875,798 L621.640625,768.890625 L579.875,768.890625 L567.5,798 L553.085938,798 L595.273438,699.210938 Z M615.875,756.375 L600.054688,720.796875 L585.359375,756.375 L615.875,756.375 Z M723.507812,699.773438 L741.085938,699.773438 L698.476562,746.320312 L751.5625,798 L732.296875,798 L682.164062,749.484375 L682.164062,798 L668.101562,798 L668.101562,699.773438 L682.164062,699.773438 L682.164062,744.703125 L723.507812,699.773438 Z M838.734375,699.773438 L852.867188,699.773438 L852.867188,755.53125 C852.867188,763.078163 852.316412,768.773418 851.214844,772.617188 C850.113276,776.460957 848.753914,779.660143 847.136719,782.214844 C845.519523,784.769544 843.539074,787.054677 841.195312,789.070312 C833.414024,795.773471 823.24225,799.125 810.679688,799.125 C797.882749,799.125 787.617226,795.796908 779.882812,789.140625 C777.539051,787.078115 775.558602,784.769544 773.941406,782.214844 C772.324211,779.660143 770.988287,776.531269 769.933594,772.828125 C768.878901,769.124981 768.351562,763.31254 768.351562,755.390625 L768.351562,699.773438 L782.484375,699.773438 L782.484375,755.53125 C782.484375,764.765671 783.539052,771.187482 785.648438,774.796875 C787.757823,778.406268 790.968728,781.30077 795.28125,783.480469 C799.593772,785.660167 804.679658,786.75 810.539062,786.75 C818.882854,786.75 825.679661,784.570334 830.929688,780.210938 C833.695326,777.867176 835.687494,775.101578 836.90625,771.914062 C838.125006,768.726547 838.734375,763.265664 838.734375,755.53125 L838.734375,699.773438 Z M965,775.21875 L965,790.6875 C954.687448,796.312528 942.781318,799.125 929.28125,799.125 C918.312445,799.125 909.007851,796.921897 901.367188,792.515625 C893.726524,788.109353 887.67971,782.039101 883.226562,774.304688 C878.773415,766.570274 876.546875,758.20317 876.546875,749.203125 C876.546875,734.906179 881.64448,722.882861 891.839844,713.132812 C902.035207,703.382764 914.6093,698.507812 929.5625,698.507812 C939.875052,698.507812 951.335874,701.203098 963.945312,706.59375 L963.945312,721.710938 C952.46088,715.148405 941.23443,711.867188 930.265625,711.867188 C919.015569,711.867188 909.675818,715.417933 902.246094,722.519531 C894.816369,729.621129 891.101562,738.515572 891.101562,749.203125 C891.101562,759.984429 894.757776,768.843715 902.070312,775.78125 C909.382849,782.718785 918.734318,786.1875 930.125,786.1875 C942.03131,786.1875 953.656193,782.531287 965,775.21875 Z M1038.53125,698.367188 C1053.71883,698.367188 1066.36323,703.171827 1076.46484,712.78125 C1086.56646,722.390673 1091.61719,734.437428 1091.61719,748.921875 C1091.61719,763.406322 1086.51958,775.394484 1076.32422,784.886719 C1066.12886,794.378954 1053.27352,799.125 1037.75781,799.125 C1022.94524,799.125 1010.60552,794.378954 1000.73828,784.886719 C990.871044,775.394484 985.9375,763.500071 985.9375,749.203125 C985.9375,734.531177 990.9062,722.390673 1000.84375,712.78125 C1010.7813,703.171827 1023.34367,698.367188 1038.53125,698.367188 Z M1039.09375,711.726562 C1027.84369,711.726562 1018.59769,715.242152 1011.35547,722.273438 C1004.11325,729.304723 1000.49219,738.281195 1000.49219,749.203125 C1000.49219,759.796928 1004.12496,768.60934 1011.39062,775.640625 C1018.65629,782.67191 1027.74995,786.1875 1038.67188,786.1875 C1049.64068,786.1875 1058.79293,782.601598 1066.12891,775.429688 C1073.46488,768.257777 1077.13281,759.328178 1077.13281,748.640625 C1077.13281,738.234323 1073.46488,729.480504 1066.12891,722.378906 C1058.79293,715.277308 1049.7813,711.726562 1039.09375,711.726562 Z M1195.03125,699.773438 L1208.10938,699.773438 L1208.10938,798 L1193.97656,798 L1193.97656,721.570312 L1163.74219,759.539062 L1161.14062,759.539062 L1130.625,721.570312 L1130.625,798 L1116.5625,798 L1116.5625,699.773438 L1129.78125,699.773438 L1162.47656,740.132812 L1195.03125,699.773438 Z M1236.5,798 L1236.5,699.632812 L1267.64844,699.632812 C1277.02348,699.632812 1284.49997,702.164037 1290.07812,707.226562 C1295.65628,712.289088 1298.44531,719.085895 1298.44531,727.617188 C1298.44531,733.335966 1297.01564,738.398415 1294.15625,742.804688 C1291.29686,747.21096 1287.38284,750.410146 1282.41406,752.402344 C1277.44529,754.394541 1270.32036,755.390625 1261.03906,755.390625 L1250.63281,755.390625 L1250.63281,798 L1236.5,798 Z M1265.1875,712.148438 L1250.63281,712.148438 L1250.63281,742.875 L1266.03125,742.875 C1271.75003,742.875 1276.15623,741.527357 1279.25,738.832031 C1282.34377,736.136705 1283.89062,732.281275 1283.89062,727.265625 C1283.89062,717.18745 1277.65631,712.148438 1265.1875,712.148438 Z M1338.50781,699.210938 L1348.42188,699.210938 L1392.36719,798 L1377.95312,798 L1364.875,768.890625 L1323.10938,768.890625 L1310.73438,798 L1296.32031,798 L1338.50781,699.210938 Z M1359.10938,756.375 L1343.28906,720.796875 L1328.59375,756.375 L1359.10938,756.375 Z M1435.52344,756.796875 L1424.83594,750.328125 C1418.13278,746.24998 1413.3633,742.230489 1410.52734,738.269531 C1407.69139,734.308574 1406.27344,729.750026 1406.27344,724.59375 C1406.27344,716.859336 1408.957,710.578149 1414.32422,705.75 C1419.69143,700.921851 1426.66402,698.507812 1435.24219,698.507812 C1443.44535,698.507812 1450.96872,700.804665 1457.8125,705.398438 L1457.8125,721.359375 C1450.73434,714.562466 1443.11723,711.164062 1434.96094,711.164062 C1430.36716,711.164062 1426.59376,712.230458 1423.64062,714.363281 C1420.68749,716.496104 1419.21094,719.226546 1419.21094,722.554688 C1419.21094,725.507827 1420.28905,728.273425 1422.44531,730.851562 C1424.60157,733.4297 1428.09373,736.124986 1432.92188,738.9375 L1443.67969,745.265625 C1455.67975,752.390661 1461.67969,761.48432 1461.67969,772.546875 C1461.67969,780.421914 1459.043,786.820288 1453.76953,791.742188 C1448.49607,796.664087 1441.64067,799.125 1433.20312,799.125 C1423.49995,799.125 1414.6641,796.148467 1406.69531,790.195312 L1406.69531,772.335938 C1414.2891,781.945361 1423.07808,786.75 1433.0625,786.75 C1437.46877,786.75 1441.1367,785.519544 1444.06641,783.058594 C1446.99611,780.597644 1448.46094,777.515644 1448.46094,773.8125 C1448.46094,767.81247 1444.14848,762.140652 1435.52344,756.796875 Z M1509.47656,756.796875 L1498.78906,750.328125 C1492.0859,746.24998 1487.31642,742.230489 1484.48047,738.269531 C1481.64452,734.308574 1480.22656,729.750026 1480.22656,724.59375 C1480.22656,716.859336 1482.91013,710.578149 1488.27734,705.75 C1493.64456,700.921851 1500.61714,698.507812 1509.19531,698.507812 C1517.39848,698.507812 1524.92184,700.804665 1531.76562,705.398438 L1531.76562,721.359375 C1524.68746,714.562466 1517.07035,711.164062 1508.91406,711.164062 C1504.32029,711.164062 1500.54689,712.230458 1497.59375,714.363281 C1494.64061,716.496104 1493.16406,719.226546 1493.16406,722.554688 C1493.16406,725.507827 1494.24218,728.273425 1496.39844,730.851562 C1498.5547,733.4297 1502.04685,736.124986 1506.875,738.9375 L1517.63281,745.265625 C1529.63287,752.390661 1535.63281,761.48432 1535.63281,772.546875 C1535.63281,780.421914 1532.99612,786.820288 1527.72266,791.742188 C1522.44919,796.664087 1515.59379,799.125 1507.15625,799.125 C1497.45308,799.125 1488.61723,796.148467 1480.64844,790.195312 L1480.64844,772.335938 C1488.24223,781.945361 1497.0312,786.75 1507.01562,786.75 C1511.4219,786.75 1515.08983,785.519544 1518.01953,783.058594 C1520.94923,780.597644 1522.41406,777.515644 1522.41406,773.8125 C1522.41406,767.81247 1518.10161,762.140652 1509.47656,756.796875 Z" id="RYUGAKUCOMPASS" transform="translate(849.941406, 748.746094) rotate(90.000000) translate(-849.941406, -748.746094) "></path>
        </g>
    </g>
</svg>