<?xml version="1.0" encoding="utf-8"?>
<!-- Generator: Adobe Illustrator 23.0.1, SVG Export Plug-In . SVG Version: 6.00 Build 0)  -->
<svg version="1.1" id="レイヤー_1" xmlns="http://www.w3.org/2000/svg" xmlns:xlink="http://www.w3.org/1999/xlink" x="0px"
	 y="0px" viewBox="0 0 515.2 90.8" style="enable-background:new 0 0 515.2 90.8;" xml:space="preserve">
<title>アセット 4</title>
<g>
	<g id="レイヤー_1-2">
		<path d="M0,51.3v-0.2c0-17.8,13.9-32.8,32.2-32.8c8.6-0.1,16.9,3.1,23.1,9.1c0.9,0.8,1.5,2,1.5,3.3c0,2.5-2,4.5-4.5,4.5
			c0,0,0,0,0,0c-1.1,0-2.2-0.4-3-1.1c-4.5-4.1-9.6-7.5-17.2-7.5c-12.8,0-22.5,10.8-22.5,24.3v0.2c0,13.6,10,24.5,23.1,24.5
			c7.2,0,12.9-3.3,17.5-7.7c0.7-0.8,1.7-1.2,2.7-1.2c2.3,0.1,4.2,1.9,4.2,4.2c0,1.1-0.4,2.1-1.2,2.9c-6,6-13.1,10.1-23.7,10.1
			C14.4,83.9,0,69.4,0,51.6C0,51.5,0,51.4,0,51.3z"/>
		<path d="M69.4,51.3v-0.2C69.4,33,84,18.2,102.1,18.2c18.1-0.1,32.8,14.6,32.9,32.7v0.2c0.1,18-14.4,32.7-32.5,32.8
			c-0.2,0-0.4,0-0.5,0c-17.8,0.2-32.4-14.1-32.6-31.8C69.4,51.8,69.4,51.6,69.4,51.3z M125.4,51.3v-0.2c0-13.5-10.1-24.6-23.3-24.6
			c-13.6,0-23,11.1-23,24.3v0.2c0,13.5,10,24.5,23.2,24.5C115.9,75.5,125.4,64.6,125.4,51.3z"/>
		<path d="M297.2,83.9c-17.3,0-31.4-13.3-31.4-32.7V51c0-18.1,12.8-32.7,30.2-32.7c18.6,0,29.2,15.2,29.2,31.9
			c0,2.4-1.9,4.4-4.3,4.4c0,0,0,0,0,0h-45.5c1.3,13.6,11,21.3,22.1,21.3c6.8,0,13.3-2.6,18.1-7.3c0.7-0.7,1.7-1.1,2.7-1.1
			c2.2,0,4.1,1.8,4.1,4c0,1.2-0.6,2.3-1.5,3C315,80.1,307.9,83.9,297.2,83.9z M315.8,47.6c-1-11.4-7.5-21.4-20.1-21.4
			c-10.9,0-19.2,9.1-20.4,21.4H315.8z"/>
		<path d="M487.3,83.9c-17.3,0-31.4-13.3-31.4-32.7V51c0-18.1,12.8-32.7,30.2-32.7c18.6,0,29.2,15.2,29.2,31.9
			c0,2.4-1.9,4.4-4.3,4.4c0,0,0,0,0,0h-45.5c1.3,13.6,10.9,21.3,22.1,21.3c6.8,0,13.3-2.6,18.1-7.3c0.7-0.7,1.7-1.1,2.7-1.1
			c2.2,0,4,1.8,4,4c0,1.2-0.5,2.3-1.4,3C505,80.1,498,83.9,487.3,83.9z M505.9,47.6c-1-11.4-7.5-21.4-20.1-21.4
			c-11,0-19.2,9.1-20.4,21.4H505.9z"/>
		<path d="M337.9,51.3v-0.2c0-17.8,13.9-32.8,32.2-32.8c8.6-0.1,16.9,3.1,23.1,9.1c0.9,0.8,1.5,2,1.5,3.3c0,2.5-2,4.5-4.5,4.5
			c0,0,0,0,0,0c-1.1,0-2.2-0.4-3-1.1c-4.5-4.1-9.6-7.5-17.1-7.5c-12.8,0-22.5,10.8-22.5,24.3v0.2c0,13.6,10,24.5,23.1,24.5
			c7.2,0,12.9-3.3,17.5-7.7c0.7-0.8,1.6-1.2,2.7-1.2c2.3,0.1,4.1,2,4.2,4.2c0,1.1-0.5,2.1-1.2,2.9c-6,6-13.1,10.1-23.7,10.1
			c-17.8,0-32.3-14.5-32.2-32.4C337.8,51.5,337.8,51.4,337.9,51.3z"/>
		<path d="M414.5,65.8V27.9h-5.1c-2.3-0.1-4.1-1.9-4.1-4.1c0-2.3,1.9-4.1,4.1-4.1h5.1V4.7c0-2.6,2-4.7,4.6-4.7c0,0,0,0,0.1,0
			c2.6,0,4.7,2.1,4.8,4.7v14.8h16.3c2.3,0,4.2,1.8,4.3,4.1c0,2.3-1.9,4.2-4.3,4.1h-16.3v36.7c0,7.7,4.2,10.5,10.6,10.5
			c3.3,0,5-0.8,5.7-0.8c2.2,0,4,1.8,4,4c0,1.7-1.1,3.1-2.7,3.7c-2.9,1.2-6.1,1.8-9.2,1.7C422.1,83.5,414.5,78.6,414.5,65.8z"/>
		<path d="M179.8,50.7c-1.8,1.9-1.7,5,0.3,6.7c1.8,1.7,4.6,1.7,6.5,0l26.9-26.9c7-7,18.3-7,25.2,0s7,18.3,0,25.2l-27,27
			c-1.9,1.9-1.9,4.9,0,6.8s4.9,1.9,6.8,0l0,0l27-27c10.6-10.8,10.3-28.2-0.5-38.8c-10.6-10.4-27.6-10.4-38.2,0L179.8,50.7"/>
		<path d="M181.5,89.4c1.9,1.8,4.9,1.8,6.7-0.1c1.8-1.9,1.8-4.8,0-6.6l-26.9-27c-7.3-6.7-7.7-17.9-1.1-25.2
			c6.7-7.3,17.9-7.7,25.2-1.1c0.4,0.4,0.8,0.7,1.1,1.1l26.9,27c1.9,1.8,4.9,1.8,6.7-0.1c1.8-1.8,1.8-4.8,0-6.6l0,0l-26.9-27
			c-10.8-10.6-28.2-10.3-38.8,0.5c-10.4,10.6-10.4,27.6,0,38.2L181.5,89.4"/>
	</g>
</g>
</svg>
