<?xml version="1.0" encoding="UTF-8"?>
<svg width="101px" height="824px" viewBox="0 0 101 824" version="1.1" xmlns="http://www.w3.org/2000/svg" xmlns:xlink="http://www.w3.org/1999/xlink">
    <!-- Generator: Sketch 51.3 (57544) - http://www.bohemiancoding.com/sketch -->
    <title>CONNECTE</title>
    <desc>Created with Sketch.</desc>
    <defs></defs>
    <g id="Symbols" stroke="none" stroke-width="1" fill="none" fill-rule="evenodd">
        <path d="M-272.515625,438.21875 L-272.515625,453.6875 C-282.828177,459.312528 -294.734307,462.125 -308.234375,462.125 C-319.20318,462.125 -328.507774,459.921897 -336.148438,455.515625 C-343.789101,451.109353 -349.835915,445.039101 -354.289062,437.304687 C-358.74221,429.570274 -360.96875,421.20317 -360.96875,412.203125 C-360.96875,397.906179 -355.871145,385.882861 -345.675781,376.132812 C-335.480418,366.382764 -322.906325,361.507812 -307.953125,361.507812 C-297.640573,361.507812 -286.179751,364.203098 -273.570312,369.59375 L-273.570312,384.710937 C-285.054745,378.148405 -296.281195,374.867187 -307.25,374.867187 C-318.500056,374.867187 -327.839807,378.417933 -335.269531,385.519531 C-342.699256,392.621129 -346.414062,401.515572 -346.414062,412.203125 C-346.414062,422.984429 -342.757849,431.843715 -335.445312,438.78125 C-328.132776,445.718785 -318.781307,449.1875 -307.390625,449.1875 C-295.484315,449.1875 -283.859432,445.531287 -272.515625,438.21875 Z M-198.984375,361.367187 C-183.796799,361.367187 -171.152394,366.171827 -161.050781,375.78125 C-150.949168,385.390673 -145.898438,397.437428 -145.898438,411.921875 C-145.898438,426.406322 -150.996043,438.394484 -161.191406,447.886719 C-171.38677,457.378954 -184.24211,462.125 -199.757812,462.125 C-214.570387,462.125 -226.910107,457.378954 -236.777344,447.886719 C-246.644581,438.394484 -251.578125,426.500071 -251.578125,412.203125 C-251.578125,397.531177 -246.609425,385.390673 -236.671875,375.78125 C-226.734325,366.171827 -214.171951,361.367187 -198.984375,361.367187 Z M-198.421875,374.726562 C-209.671931,374.726562 -218.917933,378.242152 -226.160156,385.273437 C-233.40238,392.304723 -237.023438,401.281195 -237.023438,412.203125 C-237.023438,422.796928 -233.390661,431.60934 -226.125,438.640625 C-218.859339,445.67191 -209.76568,449.1875 -198.84375,449.1875 C-187.874945,449.1875 -178.722693,445.601598 -171.386719,438.429687 C-164.050745,431.257777 -160.382812,422.328178 -160.382812,411.640625 C-160.382812,401.234323 -164.050745,392.480504 -171.386719,385.378906 C-178.722693,378.277308 -187.734322,374.726562 -198.421875,374.726562 Z M-42.625,362.773437 L-29.265625,362.773437 L-29.265625,461 L-41.359375,461 L-107.03125,385.414062 L-107.03125,461 L-120.25,461 L-120.25,362.773437 L-108.859375,362.773437 L-42.625,438.992187 L-42.625,362.773437 Z M77.8046875,362.773437 L91.1640625,362.773437 L91.1640625,461 L79.0703125,461 L13.3984375,385.414062 L13.3984375,461 L0.1796875,461 L0.1796875,362.773437 L11.5703125,362.773437 L77.8046875,438.992187 L77.8046875,362.773437 Z M120.1875,362.773437 L175.875,362.773437 L175.875,375.289062 L134.25,375.289062 L134.25,405.242187 L174.46875,405.242187 L174.46875,417.828125 L134.25,417.828125 L134.25,448.34375 L177.210938,448.34375 L177.210938,460.859375 L120.1875,460.859375 L120.1875,362.773437 Z M284.84375,438.21875 L284.84375,453.6875 C274.531198,459.312528 262.625068,462.125 249.125,462.125 C238.156195,462.125 228.851601,459.921897 221.210938,455.515625 C213.570274,451.109353 207.52346,445.039101 203.070312,437.304687 C198.617165,429.570274 196.390625,421.20317 196.390625,412.203125 C196.390625,397.906179 201.48823,385.882861 211.683594,376.132812 C221.878957,366.382764 234.45305,361.507812 249.40625,361.507812 C259.718802,361.507812 271.179624,364.203098 283.789062,369.59375 L283.789062,384.710937 C272.30463,378.148405 261.07818,374.867187 250.109375,374.867187 C238.859319,374.867187 229.519568,378.417933 222.089844,385.519531 C214.660119,392.621129 210.945312,401.515572 210.945312,412.203125 C210.945312,422.984429 214.601526,431.843715 221.914062,438.78125 C229.226599,445.718785 238.578068,449.1875 249.96875,449.1875 C261.87506,449.1875 273.499943,445.531287 284.84375,438.21875 Z M301.773438,362.632812 L383.828125,362.632812 L383.828125,375.148437 L349.585938,375.148437 L349.585938,461 L335.453125,461 L335.453125,375.148437 L301.773438,375.148437 L301.773438,362.632812 Z M405.117188,362.773437 L460.804688,362.773437 L460.804688,375.289062 L419.179688,375.289062 L419.179688,405.242187 L459.398438,405.242187 L459.398438,417.828125 L419.179688,417.828125 L419.179688,448.34375 L462.140625,448.34375 L462.140625,460.859375 L405.117188,460.859375 L405.117188,362.773437 Z" id="CONNECTE" fill="#000000" transform="translate(50.585938, 411.746094) rotate(90.000000) translate(-50.585938, -411.746094) "></path>
    </g>
</svg>